Unlock-Regular.otf.ufo
<glyph name="exclam" format="1">
  <advance width="355"/>
  <unicode hex="0021"/>
  <outline>
    <contour>
      <point x="281" y="68" type="curve" smooth="yes" name="hr00"/>
      <point x="281" y="142" smooth="yes"/>
      <point x="263" y="151" smooth="yes"/>
      <point x="183" y="151" type="curve" smooth="yes"/>
      <point x="92" y="151" smooth="yes"/>
      <point x="72" y="142" smooth="yes"/>
      <point x="72" y="68" type="curve" smooth="yes"/>
      <point x="72" y="-7" smooth="yes"/>
      <point x="92" y="-15" smooth="yes"/>
      <point x="182" y="-15" type="curve" smooth="yes"/>
      <point x="262" y="-15" smooth="yes"/>
      <point x="281" y="-7" smooth="yes"/>
    </contour>
    <contour>
      <point x="63" y="635" type="line"/>
      <point x="63" y="365" type="line"/>
      <point x="93" y="233" type="line"/>
      <point x="262" y="233" type="line"/>
      <point x="292" y="365" type="line"/>
      <point x="292" y="635" type="line"/>
    </contour>
  </outline>
</glyph>
<glyph name="quotedbl" format="1">
  <advance width="402"/>
  <unicode hex="0022"/>
  <outline>
    <contour>
      <point x="15" y="635" type="line" name="hr00"/>
      <point x="47" y="333" type="line"/>
      <point x="176" y="333" type="line"/>
      <point x="176" y="635" type="line"/>
    </contour>
    <contour>
      <point x="226" y="635" type="line"/>
      <point x="226" y="333" type="line"/>
      <point x="355" y="333" type="line"/>
      <point x="387" y="635" type="line"/>
    </contour>
  </outline>
</glyph>
<glyph name="numbersign" format="1">
  <advance width="692"/>
  <unicode hex="0023"/>
  <outline>
    <contour>
      <point x="84" y="361" type="line" name="hr00"/>
      <point x="203" y="361" type="line"/>
      <point x="185" y="263" type="line"/>
      <point x="68" y="263" type="line"/>
      <point x="50" y="161" type="line"/>
      <point x="167" y="161" type="line"/>
      <point x="139" y="0" type="line"/>
      <point x="241" y="0" type="line"/>
      <point x="269" y="161" type="line"/>
      <point x="367" y="161" type="line"/>
      <point x="339" y="0" type="line"/>
      <point x="441" y="0" type="line"/>
      <point x="469" y="161" type="line"/>
      <point x="589" y="161" type="line"/>
      <point x="607" y="263" type="line"/>
      <point x="487" y="263" type="line"/>
      <point x="505" y="361" type="line"/>
      <point x="624" y="361" type="line"/>
      <point x="642" y="463" type="line"/>
      <point x="523" y="463" type="line"/>
      <point x="552" y="624" type="line"/>
      <point x="450" y="624" type="line"/>
      <point x="421" y="463" type="line"/>
      <point x="323" y="463" type="line"/>
      <point x="352" y="624" type="line"/>
      <point x="250" y="624" type="line"/>
      <point x="221" y="463" type="line"/>
      <point x="102" y="463" type="line"/>
    </contour>
    <contour>
      <point x="305" y="361" type="line"/>
      <point x="403" y="361" type="line"/>
      <point x="385" y="263" type="line"/>
      <point x="287" y="263" type="line"/>
    </contour>
  </outline>
</glyph>
<glyph name="dollar" format="1">
  <advance width="575"/>
  <unicode hex="0024"/>
  <outline>
    <contour>
      <point x="523" y="138" type="curve" smooth="yes"/>
      <point x="523" y="226" smooth="yes"/>
      <point x="429" y="318" smooth="yes"/>
      <point x="377" y="382" type="curve" smooth="yes"/>
      <point x="248" y="542" type="line"/>
      <point x="338" y="542" type="line"/>
      <point x="433" y="425" type="line"/>
      <point x="504" y="425" type="line"/>
      <point x="511" y="579" type="line"/>
      <point x="464" y="597"/>
      <point x="392" y="610"/>
      <point x="322" y="612" type="curve"/>
      <point x="322" y="706" type="line"/>
      <point x="288" y="706" type="line"/>
      <point x="288" y="611" type="line" name="hr01"/>
      <point x="146" y="607" smooth="yes"/>
      <point x="69" y="554" smooth="yes"/>
      <point x="69" y="452" type="curve" smooth="yes"/>
      <point x="69" y="384" smooth="yes"/>
      <point x="134" y="322" smooth="yes"/>
      <point x="172" y="275" type="curve" smooth="yes"/>
      <point x="346" y="58" type="line"/>
      <point x="256" y="58" type="line"/>
      <point x="150" y="189" type="line"/>
      <point x="80" y="189" type="line"/>
      <point x="72" y="15" type="line"/>
      <point x="129" y="0"/>
      <point x="198" y="-11"/>
      <point x="272" y="-12" type="curve"/>
      <point x="272" y="-107" type="line"/>
      <point x="306" y="-107" type="line"/>
      <point x="306" y="-11" type="line" name="hr02"/>
      <point x="442" y="-7" smooth="yes"/>
      <point x="523" y="38" smooth="yes"/>
    </contour>
  </outline>
</glyph>
<glyph name="ampersand" format="1">
  <advance width="645"/>
  <unicode hex="0026"/>
  <outline>
    <contour>
      <point x="690" y="0" type="line"/>
      <point x="690" y="38" type="line"/>
      <point x="617" y="38" type="line"/>
      <point x="484" y="292" type="line"/>
      <point x="564" y="292" type="line"/>
      <point x="564" y="364" type="line"/>
      <point x="445" y="364" type="line"/>
      <point x="329" y="581" type="line"/>
      <point x="398" y="581" type="line"/>
      <point x="479" y="431" type="line"/>
      <point x="566" y="431" type="line"/>
      <point x="583" y="618" type="line"/>
      <point x="509" y="637" smooth="yes"/>
      <point x="442" y="650" smooth="yes"/>
      <point x="366" y="650" type="curve" smooth="yes"/>
      <point x="262" y="650" smooth="yes"/>
      <point x="150" y="634" smooth="yes"/>
      <point x="150" y="500" type="curve" smooth="yes"/>
      <point x="150" y="445"/>
      <point x="165" y="401"/>
      <point x="186" y="361" type="curve"/>
      <point x="88" y="352" smooth="yes"/>
      <point x="30" y="313" smooth="yes"/>
      <point x="30" y="173" type="curve" smooth="yes"/>
      <point x="30" y="-14" smooth="yes"/>
      <point x="108" y="-15" smooth="yes"/>
      <point x="183" y="-15" type="curve" smooth="yes" name="hr01"/>
      <point x="231" y="-15"/>
      <point x="282" y="-15"/>
      <point x="297" y="28" type="curve"/>
      <point x="161" y="286" type="line"/>
      <point x="230" y="286" type="line"/>
      <point x="382" y="0" type="line" name="hr02"/>
    </contour>
  </outline>
</glyph>
<glyph name="quotesingle" format="1">
  <advance width="223"/>
  <unicode hex="0027"/>
  <outline>
    <contour>
      <point x="15" y="635" type="line" name="hr00"/>
      <point x="47" y="333" type="line"/>
      <point x="176" y="333" type="line"/>
      <point x="208" y="635" type="line"/>
    </contour>
  </outline>
</glyph>
<glyph name="parenleft" format="1">
  <advance width="308"/>
  <unicode hex="0028"/>
  <outline>
    <contour>
      <point x="195" y="372" type="line" smooth="yes" name="hr00"/>
      <point x="195" y="634"/>
      <point x="232" y="634"/>
      <point x="288" y="634" type="curve"/>
      <point x="288" y="685" type="line"/>
      <point x="172" y="685" smooth="yes"/>
      <point x="62" y="685" smooth="yes"/>
      <point x="62" y="380" type="curve" smooth="yes"/>
      <point x="62" y="255" type="line" smooth="yes"/>
      <point x="62" y="-50"/>
      <point x="172" y="-50"/>
      <point x="288" y="-50" type="curve"/>
      <point x="288" y="1" type="line"/>
      <point x="232" y="1" smooth="yes"/>
      <point x="195" y="1" smooth="yes"/>
      <point x="195" y="263" type="curve" smooth="yes"/>
    </contour>
  </outline>
</glyph>
<glyph name="parenright" format="1">
  <advance width="308"/>
  <unicode hex="0029"/>
  <outline>
    <contour>
      <point x="113" y="263" type="line" smooth="yes" name="hr00"/>
      <point x="113" y="1"/>
      <point x="76" y="1"/>
      <point x="20" y="1" type="curve"/>
      <point x="20" y="-50" type="line"/>
      <point x="136" y="-50" smooth="yes"/>
      <point x="246" y="-50" smooth="yes"/>
      <point x="246" y="255" type="curve" smooth="yes"/>
      <point x="246" y="380" type="line" smooth="yes"/>
      <point x="246" y="685"/>
      <point x="136" y="685"/>
      <point x="20" y="685" type="curve"/>
      <point x="20" y="634" type="line"/>
      <point x="76" y="634" smooth="yes"/>
      <point x="113" y="634" smooth="yes"/>
      <point x="113" y="372" type="curve" smooth="yes"/>
    </contour>
  </outline>
</glyph>
<glyph name="asterisk" format="1">
  <advance width="544"/>
  <unicode hex="002A"/>
  <outline>
    <contour>
      <point x="323" y="697" type="line" name="hr00"/>
      <point x="335" y="563" type="line"/>
      <point x="467" y="592" type="line"/>
      <point x="500" y="495" type="line"/>
      <point x="375" y="441" type="line"/>
      <point x="445" y="327" type="line"/>
      <point x="360" y="265" type="line"/>
      <point x="272" y="367" type="line"/>
      <point x="184" y="265" type="line"/>
      <point x="99" y="327" type="line"/>
      <point x="169" y="441" type="line"/>
      <point x="44" y="495" type="line"/>
      <point x="77" y="593" type="line"/>
      <point x="209" y="563" type="line"/>
      <point x="212" y="600"/>
      <point x="218" y="655"/>
      <point x="221" y="697" type="curve"/>
    </contour>
  </outline>
</glyph>
<glyph name="plus" format="1">
  <advance width="540"/>
  <unicode hex="002B"/>
  <outline>
    <contour>
      <point x="60" y="261" type="line" name="hr00"/>
      <point x="219" y="261" type="line"/>
      <point x="219" y="102" type="line"/>
      <point x="321" y="102" type="line"/>
      <point x="321" y="261" type="line"/>
      <point x="480" y="261" type="line"/>
      <point x="480" y="363" type="line"/>
      <point x="321" y="363" type="line"/>
      <point x="321" y="522" type="line"/>
      <point x="219" y="522" type="line"/>
      <point x="219" y="363" type="line"/>
      <point x="60" y="363" type="line"/>
    </contour>
  </outline>
</glyph>
<glyph name="comma" format="1">
  <advance width="308"/>
  <unicode hex="002C"/>
  <outline>
    <contour>
      <point x="248" y="94" type="curve" smooth="yes" name="hr00"/>
      <point x="248" y="179" smooth="yes"/>
      <point x="232" y="188" smooth="yes"/>
      <point x="163" y="188" type="curve" smooth="yes"/>
      <point x="80" y="188" smooth="yes"/>
      <point x="60" y="179" smooth="yes"/>
      <point x="60" y="94" type="curve" smooth="yes"/>
      <point x="60" y="27"/>
      <point x="84" y="12"/>
      <point x="126" y="12" type="curve"/>
      <point x="111" y="-105" type="line"/>
      <point x="162" y="-113" type="line"/>
      <point x="221" y="-57" smooth="yes"/>
      <point x="248" y="15" smooth="yes"/>
    </contour>
  </outline>
</glyph>
<glyph name="hyphen" format="1">
  <advance width="372"/>
  <unicode hex="002D"/>
  <outline>
    <contour>
      <point x="30" y="213" type="line" name="hr00"/>
      <point x="342" y="213" type="line"/>
      <point x="342" y="351" type="line"/>
      <point x="30" y="351" type="line"/>
    </contour>
  </outline>
</glyph>
<glyph name="period" format="1">
  <advance width="308"/>
  <unicode hex="002E"/>
  <outline>
    <contour>
      <point x="248" y="88" type="curve" smooth="yes" name="hr00"/>
      <point x="248" y="178" smooth="yes"/>
      <point x="230" y="188" smooth="yes"/>
      <point x="160" y="188" type="curve" smooth="yes"/>
      <point x="78" y="188" smooth="yes"/>
      <point x="60" y="178" smooth="yes"/>
      <point x="60" y="88" type="curve" smooth="yes"/>
      <point x="60" y="0" smooth="yes"/>
      <point x="78" y="-10" smooth="yes"/>
      <point x="159" y="-10" type="curve" smooth="yes"/>
      <point x="230" y="-10" smooth="yes"/>
      <point x="248" y="0" smooth="yes"/>
    </contour>
  </outline>
</glyph>
<glyph name="slash" format="1">
  <advance width="238"/>
  <unicode hex="002F"/>
  <outline>
    <contour>
      <point x="33" y="-129" type="line" name="hr00"/>
      <point x="255" y="729" type="line"/>
      <point x="204" y="729" type="line"/>
      <point x="-17" y="-129" type="line"/>
    </contour>
  </outline>
</glyph>
<glyph name="zero" format="1">
  <advance width="570"/>
  <unicode hex="0030"/>
  <outline>
    <contour>
      <point x="542" y="363" type="line" smooth="yes" name="hr00"/>
      <point x="542" y="609" smooth="yes"/>
      <point x="408" y="609" smooth="yes"/>
      <point x="297" y="609" type="curve" smooth="yes"/>
      <point x="175" y="609" smooth="yes"/>
      <point x="27" y="609" smooth="yes"/>
      <point x="27" y="363" type="curve" smooth="yes"/>
      <point x="27" y="237" type="line" smooth="yes"/>
      <point x="27" y="-9" smooth="yes"/>
      <point x="161" y="-9" smooth="yes"/>
      <point x="272" y="-9" type="curve" smooth="yes"/>
      <point x="393" y="-9" smooth="yes"/>
      <point x="542" y="-9" smooth="yes"/>
      <point x="542" y="237" type="curve" smooth="yes"/>
    </contour>
    <contour>
      <point x="187" y="52" type="line"/>
      <point x="238" y="545" type="line"/>
      <point x="387" y="545" type="line"/>
      <point x="336" y="52" type="line"/>
    </contour>
  </outline>
</glyph>
<glyph name="one" format="1">
  <advance width="438"/>
  <unicode hex="0031"/>
  <outline>
    <contour>
      <point x="438" y="0" type="line" name="hr00"/>
      <point x="438" y="38" type="line"/>
      <point x="334" y="38" type="line"/>
      <point x="334" y="610" type="line"/>
      <point x="290" y="610" type="line"/>
      <point x="24" y="546" type="line"/>
      <point x="47" y="413" type="line"/>
      <point x="234" y="413" type="line"/>
      <point x="234" y="385" type="line"/>
      <point x="119" y="355" type="line"/>
      <point x="119" y="38" type="line"/>
      <point x="15" y="38" type="line"/>
      <point x="15" y="0" type="line"/>
    </contour>
  </outline>
</glyph>
<glyph name="two" format="1">
  <advance width="570"/>
  <unicode hex="0032"/>
  <outline>
    <contour>
      <point x="51" y="0" type="line" name="hr00"/>
      <point x="524" y="0" type="line"/>
      <point x="506" y="208" type="line"/>
      <point x="445" y="208" type="line"/>
      <point x="352" y="66" type="line"/>
      <point x="282" y="66" type="line"/>
      <point x="405" y="255" type="line" smooth="yes"/>
      <point x="466" y="349" smooth="yes"/>
      <point x="507" y="418" smooth="yes"/>
      <point x="507" y="491" type="curve" smooth="yes"/>
      <point x="507" y="600" smooth="yes"/>
      <point x="401" y="615" smooth="yes"/>
      <point x="293" y="615" type="curve" smooth="yes"/>
      <point x="220" y="615"/>
      <point x="150" y="603"/>
      <point x="79" y="585" type="curve"/>
      <point x="96" y="399" type="line"/>
      <point x="179" y="399" type="line"/>
      <point x="268" y="550" type="line"/>
      <point x="348" y="550" type="line"/>
      <point x="36" y="38" type="line"/>
    </contour>
  </outline>
</glyph>
<glyph name="three" format="1">
  <advance width="570"/>
  <unicode hex="0033"/>
  <outline>
    <contour>
      <point x="271" y="615" type="curve" smooth="yes" name="hr00"/>
      <point x="201" y="615"/>
      <point x="135" y="603"/>
      <point x="66" y="585" type="curve"/>
      <point x="81" y="399" type="line"/>
      <point x="186" y="399" type="line"/>
      <point x="265" y="550" type="line"/>
      <point x="345" y="550" type="line"/>
      <point x="234" y="341" type="line"/>
      <point x="140" y="341" type="line"/>
      <point x="140" y="258" type="line"/>
      <point x="222" y="258" type="line"/>
      <point x="333" y="50" type="line"/>
      <point x="253" y="50" type="line"/>
      <point x="174" y="201" type="line"/>
      <point x="69" y="201" type="line"/>
      <point x="54" y="15" type="line"/>
      <point x="126" y="-3" smooth="yes"/>
      <point x="195" y="-15" smooth="yes"/>
      <point x="268" y="-15" type="curve" smooth="yes"/>
      <point x="445" y="-15" smooth="yes"/>
      <point x="515" y="51" smooth="yes"/>
      <point x="515" y="159" type="curve" smooth="yes"/>
      <point x="515" y="262"/>
      <point x="467" y="296"/>
      <point x="391" y="307" type="curve"/>
      <point x="391" y="314" type="line"/>
      <point x="462" y="328" smooth="yes"/>
      <point x="507" y="367" smooth="yes"/>
      <point x="507" y="463" type="curve" smooth="yes"/>
      <point x="507" y="558" smooth="yes"/>
      <point x="440" y="615" smooth="yes"/>
    </contour>
  </outline>
</glyph>
<glyph name="four" format="1">
  <advance width="570"/>
  <unicode hex="0034"/>
  <outline>
    <contour>
      <point x="8" y="115" type="line"/>
      <point x="262" y="115" type="line"/>
      <point x="262" y="38" type="line"/>
      <point x="128" y="38" type="line"/>
      <point x="128" y="0" type="line"/>
      <point x="541" y="0" type="line"/>
      <point x="541" y="38" type="line"/>
      <point x="477" y="38" type="line"/>
      <point x="477" y="115" type="line"/>
      <point x="531" y="115" type="line"/>
      <point x="531" y="198" type="line" name="hr01"/>
      <point x="477" y="198" type="line"/>
      <point x="477" y="600" type="line"/>
      <point x="168" y="600" type="line"/>
      <point x="8" y="175" type="line"/>
    </contour>
    <contour>
      <point x="262" y="540" type="line"/>
      <point x="262" y="181" type="line" name="hr02"/>
      <point x="141" y="181" type="line"/>
      <point x="221" y="540" type="line"/>
    </contour>
  </outline>
</glyph>
<glyph name="five" format="1">
  <advance width="570"/>
  <unicode hex="0035"/>
  <outline>
    <contour>
      <point x="221" y="271" type="line" name="hr00"/>
      <point x="339" y="50" type="line"/>
      <point x="259" y="50" type="line"/>
      <point x="180" y="201" type="line"/>
      <point x="76" y="201" type="line"/>
      <point x="60" y="15" type="line"/>
      <point x="127" y="-3" smooth="yes"/>
      <point x="194" y="-15" smooth="yes"/>
      <point x="268" y="-15" type="curve" smooth="yes"/>
      <point x="450" y="-15" smooth="yes"/>
      <point x="521" y="44" smooth="yes"/>
      <point x="521" y="175" type="curve" smooth="yes"/>
      <point x="521" y="319" smooth="yes"/>
      <point x="430" y="349" smooth="yes"/>
      <point x="302" y="349" type="curve" smooth="yes"/>
      <point x="236" y="349" type="line"/>
      <point x="236" y="540" type="line"/>
      <point x="361" y="540" type="line"/>
      <point x="361" y="399" type="line"/>
      <point x="482" y="399" type="line"/>
      <point x="516" y="600" type="line"/>
      <point x="77" y="600" type="line"/>
      <point x="77" y="271" type="line"/>
    </contour>
  </outline>
</glyph>
<glyph name="six" format="1">
  <advance width="570"/>
  <unicode hex="0036"/>
  <outline>
    <contour>
      <point x="225" y="280" type="line" name="hr00"/>
      <point x="352" y="280" type="line"/>
      <point x="352" y="50" type="line"/>
      <point x="225" y="50" type="line"/>
    </contour>
    <contour>
      <point x="275" y="-15" type="curve" smooth="yes"/>
      <point x="466" y="-15" smooth="yes"/>
      <point x="529" y="44" smooth="yes"/>
      <point x="529" y="173" type="curve" smooth="yes"/>
      <point x="529" y="315" smooth="yes"/>
      <point x="441" y="349" smooth="yes"/>
      <point x="316" y="349" type="curve" smooth="yes"/>
      <point x="225" y="349" type="line"/>
      <point x="225" y="550" type="line"/>
      <point x="352" y="550" type="line"/>
      <point x="352" y="399" type="line"/>
      <point x="479" y="399" type="line"/>
      <point x="509" y="585" type="line"/>
      <point x="439" y="607" smooth="yes"/>
      <point x="373" y="615" smooth="yes"/>
      <point x="299" y="615" type="curve" smooth="yes"/>
      <point x="182" y="615" smooth="yes"/>
      <point x="40" y="615" smooth="yes"/>
      <point x="40" y="364" type="curve" smooth="yes"/>
      <point x="40" y="236" type="line" smooth="yes"/>
      <point x="40" y="-15" smooth="yes"/>
      <point x="169" y="-15" smooth="yes"/>
    </contour>
  </outline>
</glyph>
<glyph name="seven" format="1">
  <advance width="570"/>
  <unicode hex="0037"/>
  <outline>
    <contour>
      <point x="50" y="0" type="line" name="hr00"/>
      <point x="503" y="0" type="line"/>
      <point x="503" y="38" type="line"/>
      <point x="367" y="38" type="line"/>
      <point x="544" y="562" type="line"/>
      <point x="529" y="600" type="line"/>
      <point x="45" y="600" type="line"/>
      <point x="67" y="362" type="line"/>
      <point x="168" y="362" type="line"/>
      <point x="222" y="534" type="line"/>
      <point x="311" y="534" type="line"/>
      <point x="147" y="38" type="line"/>
      <point x="50" y="38" type="line"/>
    </contour>
  </outline>
</glyph>
<glyph name="eight" format="1">
  <advance width="570"/>
  <unicode hex="0038"/>
  <outline>
    <contour>
      <point x="294" y="615" type="curve" smooth="yes"/>
      <point x="112" y="615" smooth="yes"/>
      <point x="53" y="556" smooth="yes"/>
      <point x="53" y="427" type="curve" smooth="yes"/>
      <point x="53" y="339" smooth="yes"/>
      <point x="87" y="306" smooth="yes"/>
      <point x="116" y="287" type="curve" smooth="yes"/>
      <point x="352" y="154" type="line"/>
      <point x="352" y="50" type="line"/>
      <point x="225" y="50" type="line"/>
      <point x="225" y="180" type="line"/>
      <point x="94" y="257" type="line"/>
      <point x="60" y="230" smooth="yes"/>
      <point x="40" y="187" smooth="yes"/>
      <point x="40" y="132" type="curve" smooth="yes" name="hr01"/>
      <point x="40" y="19" smooth="yes"/>
      <point x="128" y="-15" smooth="yes"/>
      <point x="275" y="-15" type="curve" smooth="yes"/>
      <point x="466" y="-15" smooth="yes"/>
      <point x="529" y="44" smooth="yes"/>
      <point x="529" y="173" type="curve" smooth="yes"/>
      <point x="529" y="235" smooth="yes"/>
      <point x="510" y="278" smooth="yes"/>
      <point x="461" y="312" type="curve" smooth="yes"/>
      <point x="217" y="453" type="line"/>
      <point x="217" y="550" type="line"/>
      <point x="344" y="550" type="line"/>
      <point x="344" y="426" type="line"/>
      <point x="470" y="353" type="line"/>
      <point x="495" y="378" smooth="yes"/>
      <point x="516" y="419" smooth="yes"/>
      <point x="516" y="478" type="curve" smooth="yes" name="hr02"/>
      <point x="516" y="581" smooth="yes"/>
      <point x="433" y="615" smooth="yes"/>
    </contour>
  </outline>
</glyph>
<glyph name="nine" format="1">
  <advance width="570"/>
  <unicode hex="0039"/>
  <outline>
    <contour>
      <point x="344" y="285" type="line" name="hr00"/>
      <point x="217" y="285" type="line"/>
      <point x="217" y="550" type="line"/>
      <point x="344" y="550" type="line"/>
    </contour>
    <contour>
      <point x="217" y="50" type="line"/>
      <point x="186" y="167" type="line"/>
      <point x="70" y="167" type="line"/>
      <point x="55" y="8" type="line"/>
      <point x="123" y="-8" smooth="yes"/>
      <point x="193" y="-15" smooth="yes"/>
      <point x="265" y="-15" type="curve" smooth="yes"/>
      <point x="384" y="-15" smooth="yes"/>
      <point x="529" y="-15" smooth="yes"/>
      <point x="529" y="236" type="curve" smooth="yes"/>
      <point x="529" y="364" type="line" smooth="yes"/>
      <point x="529" y="615" smooth="yes"/>
      <point x="400" y="615" smooth="yes"/>
      <point x="294" y="615" type="curve" smooth="yes"/>
      <point x="92" y="615" smooth="yes"/>
      <point x="40" y="565" smooth="yes"/>
      <point x="40" y="409" type="curve" smooth="yes"/>
      <point x="40" y="253" smooth="yes"/>
      <point x="122" y="216" smooth="yes"/>
      <point x="252" y="216" type="curve" smooth="yes"/>
      <point x="344" y="216" type="line"/>
      <point x="344" y="50" type="line"/>
    </contour>
  </outline>
</glyph>
<glyph name="less" format="1">
  <advance width="540"/>
  <unicode hex="003C"/>
  <outline>
    <contour>
      <point x="60" y="266" type="line" name="hr00"/>
      <point x="480" y="86" type="line"/>
      <point x="480" y="188" type="line"/>
      <point x="168" y="314" type="line"/>
      <point x="480" y="441" type="line"/>
      <point x="480" y="543" type="line"/>
      <point x="60" y="363" type="line"/>
    </contour>
  </outline>
</glyph>
<glyph name="question" format="1">
  <advance width="446"/>
  <unicode hex="003F"/>
  <outline>
    <contour>
      <point x="436" y="429" type="curve" smooth="yes" name="hr00"/>
      <point x="436" y="590" smooth="yes"/>
      <point x="364" y="650" smooth="yes"/>
      <point x="215" y="650" type="curve" smooth="yes"/>
      <point x="145" y="650"/>
      <point x="78" y="638"/>
      <point x="10" y="620" type="curve"/>
      <point x="27" y="398" type="line"/>
      <point x="105" y="398" type="line"/>
      <point x="204" y="575" type="line"/>
      <point x="294" y="575" type="line"/>
      <point x="123" y="270" type="line"/>
      <point x="123" y="229" type="line"/>
      <point x="158" y="218" smooth="yes"/>
      <point x="217" y="211" smooth="yes"/>
      <point x="252" y="211" type="curve" smooth="yes"/>
      <point x="338" y="211" smooth="yes"/>
      <point x="436" y="256" smooth="yes"/>
    </contour>
    <contour>
      <point x="313" y="68" type="curve" smooth="yes"/>
      <point x="313" y="142" smooth="yes"/>
      <point x="295" y="151" smooth="yes"/>
      <point x="215" y="151" type="curve" smooth="yes"/>
      <point x="124" y="151" smooth="yes"/>
      <point x="104" y="142" smooth="yes"/>
      <point x="104" y="68" type="curve" smooth="yes"/>
      <point x="104" y="-7" smooth="yes"/>
      <point x="124" y="-15" smooth="yes"/>
      <point x="214" y="-15" type="curve" smooth="yes"/>
      <point x="294" y="-15" smooth="yes"/>
      <point x="313" y="-7" smooth="yes"/>
    </contour>
  </outline>
</glyph>
<glyph name="at" format="1">
  <advance width="787"/>
  <unicode hex="0040"/>
  <outline>
    <contour>
      <point x="426" y="269" type="line"/>
      <point x="346" y="269" type="line"/>
      <point x="346" y="139" type="line"/>
      <point x="426" y="139" type="line"/>
    </contour>
    <contour>
      <point x="492" y="69" type="line"/>
      <point x="461" y="139" type="line"/>
      <point x="453" y="139" type="line"/>
      <point x="453" y="78" smooth="yes"/>
      <point x="405" y="57" smooth="yes"/>
      <point x="349" y="57" type="curve" smooth="yes"/>
      <point x="276" y="57" smooth="yes"/>
      <point x="200" y="57" smooth="yes"/>
      <point x="200" y="187" type="curve" smooth="yes"/>
      <point x="200" y="300" smooth="yes"/>
      <point x="267" y="316" smooth="yes"/>
      <point x="349" y="316" type="curve" smooth="yes"/>
      <point x="426" y="316" type="line"/>
      <point x="426" y="458" type="line"/>
      <point x="353" y="458" type="line"/>
      <point x="336" y="365" type="line"/>
      <point x="234" y="365" type="line"/>
      <point x="217" y="501" type="line"/>
      <point x="276" y="515" smooth="yes"/>
      <point x="349" y="526" smooth="yes"/>
      <point x="408" y="526" type="curve" smooth="yes"/>
      <point x="497" y="526" smooth="yes"/>
      <point x="591" y="512" smooth="yes"/>
      <point x="591" y="401" type="curve" smooth="yes"/>
      <point x="591" y="117" type="line" name="hr01"/>
      <point x="680" y="117" type="line"/>
      <point x="688" y="157" smooth="yes"/>
      <point x="692" y="207" smooth="yes"/>
      <point x="692" y="267" type="curve" smooth="yes"/>
      <point x="692" y="534" smooth="yes"/>
      <point x="622" y="588" smooth="yes"/>
      <point x="393" y="588" type="curve" smooth="yes"/>
      <point x="164" y="588" smooth="yes"/>
      <point x="95" y="534" smooth="yes"/>
      <point x="95" y="267" type="curve" smooth="yes"/>
      <point x="95" y="2" smooth="yes"/>
      <point x="164" y="-53" smooth="yes"/>
      <point x="393" y="-53" type="curve" smooth="yes"/>
      <point x="486" y="-53"/>
      <point x="599" y="-36"/>
      <point x="691" y="-15" type="curve"/>
      <point x="691" y="-62" type="line"/>
      <point x="599" y="-83" smooth="yes"/>
      <point x="486" y="-101" smooth="yes"/>
      <point x="393" y="-101" type="curve" smooth="yes" name="hr02"/>
      <point x="138" y="-101" smooth="yes"/>
      <point x="45" y="-39" smooth="yes"/>
      <point x="45" y="267" type="curve" smooth="yes" name="hr03"/>
      <point x="45" y="575" smooth="yes"/>
      <point x="138" y="635" smooth="yes"/>
      <point x="393" y="635" type="curve" smooth="yes"/>
      <point x="646" y="635" smooth="yes"/>
      <point x="742" y="575" smooth="yes"/>
      <point x="742" y="267" type="curve" smooth="yes"/>
      <point x="742" y="184"/>
      <point x="735" y="120"/>
      <point x="720" y="69" type="curve"/>
    </contour>
  </outline>
</glyph>
<glyph name="A" format="1">
  <advance width="602"/>
  <unicode hex="0041"/>
  <outline>
    <contour>
      <point x="41" y="597" type="line"/>
      <point x="103" y="597" type="line"/>
      <point x="16" y="38" type="line"/>
      <point x="-25" y="38" type="line"/>
      <point x="-25" y="0" type="line"/>
      <point x="627" y="0" type="line"/>
      <point x="627" y="38" type="line"/>
      <point x="585" y="38" type="line"/>
      <point x="493" y="635" type="line"/>
      <point x="41" y="635" type="line"/>
    </contour>
    <contour>
      <point x="196" y="575" type="line" name="hr01"/>
      <point x="285" y="575" type="line"/>
      <point x="318" y="205" type="line"/>
      <point x="196" y="205" type="line"/>
    </contour>
    <contour>
      <point x="196" y="0" type="line"/>
      <point x="196" y="150" type="line"/>
      <point x="323" y="150" type="line"/>
      <point x="337" y="0" type="line"/>
    </contour>
  </outline>
</glyph>
<glyph name="B" format="1">
  <advance width="654"/>
  <unicode hex="0042"/>
  <outline>
    <contour>
      <point x="639" y="162" type="curve" smooth="yes"/>
      <point x="639" y="258"/>
      <point x="572" y="298"/>
      <point x="485" y="314" type="curve"/>
      <point x="485" y="322" type="line"/>
      <point x="568" y="338" smooth="yes"/>
      <point x="629" y="378" smooth="yes"/>
      <point x="629" y="473" type="curve" smooth="yes"/>
      <point x="629" y="635" smooth="yes"/>
      <point x="499" y="635" smooth="yes"/>
      <point x="354" y="635" type="curve" smooth="yes"/>
      <point x="30" y="635" type="line"/>
      <point x="30" y="597" type="line" name="hr01"/>
      <point x="74" y="597" type="line"/>
      <point x="74" y="38" type="line"/>
      <point x="30" y="38" type="line"/>
      <point x="30" y="0" type="line"/>
      <point x="364" y="0" type="line" smooth="yes"/>
      <point x="509" y="0" smooth="yes"/>
      <point x="639" y="0" smooth="yes"/>
    </contour>
    <contour>
      <point x="289" y="579" type="line" name="hr02"/>
      <point x="424" y="579" type="line"/>
      <point x="424" y="345" type="line"/>
      <point x="289" y="345" type="line"/>
    </contour>
    <contour>
      <point x="424" y="60" type="line"/>
      <point x="289" y="60" type="line"/>
      <point x="289" y="290" type="line"/>
      <point x="424" y="290" type="line"/>
    </contour>
  </outline>
</glyph>
<glyph name="C" format="1">
  <advance width="590"/>
  <unicode hex="0043"/>
  <outline>
    <contour>
      <point x="365" y="57" type="line" name="hr00"/>
      <point x="235" y="57" type="line"/>
      <point x="235" y="579" type="line"/>
      <point x="365" y="579" type="line"/>
      <point x="365" y="389" type="line"/>
      <point x="580" y="389" type="line"/>
      <point x="580" y="408" type="line" smooth="yes"/>
      <point x="580" y="632" smooth="yes"/>
      <point x="468" y="650" smooth="yes"/>
      <point x="308" y="650" type="curve" smooth="yes"/>
      <point x="157" y="650" smooth="yes"/>
      <point x="20" y="650" smooth="yes"/>
      <point x="20" y="374" type="curve" smooth="yes"/>
      <point x="20" y="262" type="line" smooth="yes"/>
      <point x="20" y="-15" smooth="yes"/>
      <point x="146" y="-15" smooth="yes"/>
      <point x="286" y="-15" type="curve" smooth="yes"/>
      <point x="458" y="-15" smooth="yes"/>
      <point x="580" y="3" smooth="yes"/>
      <point x="580" y="227" type="curve" smooth="yes"/>
      <point x="580" y="239" type="line"/>
      <point x="365" y="239" type="line"/>
    </contour>
  </outline>
</glyph>
<glyph name="D" format="1">
  <advance width="674"/>
  <unicode hex="0044"/>
  <outline>
    <contour>
      <point x="379" y="0" type="line" smooth="yes"/>
      <point x="524" y="0" smooth="yes"/>
      <point x="654" y="1" smooth="yes"/>
      <point x="654" y="277" type="curve" smooth="yes"/>
      <point x="654" y="359" type="line" smooth="yes"/>
      <point x="654" y="635" smooth="yes"/>
      <point x="524" y="635" smooth="yes"/>
      <point x="379" y="635" type="curve" smooth="yes"/>
      <point x="30" y="635" type="line"/>
      <point x="30" y="597" type="line" name="hr01"/>
      <point x="74" y="597" type="line"/>
      <point x="74" y="38" type="line"/>
      <point x="30" y="38" type="line"/>
      <point x="30" y="0" type="line"/>
    </contour>
    <contour>
      <point x="439" y="60" type="line" name="hr02"/>
      <point x="289" y="60" type="line"/>
      <point x="289" y="579" type="line"/>
      <point x="439" y="579" type="line"/>
    </contour>
  </outline>
</glyph>
<glyph name="E" format="1">
  <advance width="571"/>
  <unicode hex="0045"/>
  <outline>
    <contour>
      <point x="30" y="0" type="line"/>
      <point x="536" y="0" type="line"/>
      <point x="536" y="214" type="line"/>
      <point x="419" y="214" type="line"/>
      <point x="378" y="60" type="line"/>
      <point x="289" y="60" type="line"/>
      <point x="289" y="284" type="line"/>
      <point x="480" y="284" type="line"/>
      <point x="480" y="339" type="line"/>
      <point x="289" y="339" type="line"/>
      <point x="289" y="575" type="line"/>
      <point x="378" y="575" type="line"/>
      <point x="419" y="421" type="line"/>
      <point x="536" y="421" type="line"/>
      <point x="536" y="635" type="line"/>
      <point x="30" y="635" type="line"/>
      <point x="30" y="597" type="line" name="hr01"/>
      <point x="74" y="597" type="line"/>
      <point x="74" y="38" type="line"/>
      <point x="30" y="38" type="line"/>
    </contour>
  </outline>
</glyph>
<glyph name="F" format="1">
  <advance width="546"/>
  <unicode hex="0046"/>
  <outline>
    <contour>
      <point x="470" y="284" type="line"/>
      <point x="470" y="339" type="line"/>
      <point x="289" y="339" type="line"/>
      <point x="289" y="575" type="line"/>
      <point x="368" y="575" type="line"/>
      <point x="409" y="421" type="line"/>
      <point x="526" y="421" type="line"/>
      <point x="526" y="635" type="line"/>
      <point x="30" y="635" type="line"/>
      <point x="30" y="597" type="line" name="hr01"/>
      <point x="74" y="597" type="line"/>
      <point x="74" y="38" type="line"/>
      <point x="30" y="38" type="line"/>
      <point x="30" y="0" type="line"/>
      <point x="413" y="0" type="line"/>
      <point x="413" y="38" type="line"/>
      <point x="289" y="38" type="line"/>
      <point x="289" y="284" type="line"/>
    </contour>
  </outline>
</glyph>
<glyph name="G" format="1">
  <advance width="620"/>
  <unicode hex="0047"/>
  <outline>
    <contour>
      <point x="286" y="-15" type="curve" smooth="yes"/>
      <point x="350" y="-15"/>
      <point x="403" y="-4"/>
      <point x="435" y="76" type="curve"/>
      <point x="446" y="76" type="line"/>
      <point x="475" y="0" type="line" name="hr01"/>
      <point x="590" y="0" type="line"/>
      <point x="590" y="310" type="line"/>
      <point x="305" y="310" type="line"/>
      <point x="305" y="255" type="line"/>
      <point x="375" y="255" type="line"/>
      <point x="375" y="76" type="line" name="hr02"/>
      <point x="235" y="76" type="line"/>
      <point x="235" y="579" type="line"/>
      <point x="375" y="579" type="line"/>
      <point x="375" y="389" type="line"/>
      <point x="590" y="389" type="line"/>
      <point x="590" y="408" type="line" smooth="yes"/>
      <point x="590" y="632" smooth="yes"/>
      <point x="474" y="650" smooth="yes"/>
      <point x="309" y="650" type="curve" smooth="yes"/>
      <point x="157" y="650" smooth="yes"/>
      <point x="20" y="650" smooth="yes"/>
      <point x="20" y="374" type="curve" smooth="yes"/>
      <point x="20" y="262" type="line" smooth="yes"/>
      <point x="20" y="-15" smooth="yes"/>
      <point x="146" y="-15" smooth="yes"/>
    </contour>
  </outline>
</glyph>
<glyph name="H" format="1">
  <advance width="728"/>
  <unicode hex="0048"/>
  <outline>
    <contour>
      <point x="289" y="0" type="line" name="hr00"/>
      <point x="289" y="284" type="line"/>
      <point x="439" y="284" type="line"/>
      <point x="439" y="0" type="line"/>
      <point x="698" y="0" type="line"/>
      <point x="698" y="38" type="line"/>
      <point x="654" y="38" type="line"/>
      <point x="654" y="597" type="line"/>
      <point x="698" y="597" type="line"/>
      <point x="698" y="635" type="line"/>
      <point x="439" y="635" type="line"/>
      <point x="439" y="339" type="line"/>
      <point x="289" y="339" type="line"/>
      <point x="289" y="635" type="line"/>
      <point x="30" y="635" type="line"/>
      <point x="30" y="597" type="line"/>
      <point x="74" y="597" type="line"/>
      <point x="74" y="38" type="line"/>
      <point x="30" y="38" type="line"/>
      <point x="30" y="0" type="line"/>
    </contour>
  </outline>
</glyph>
<glyph name="I" format="1">
  <advance width="381"/>
  <unicode hex="0049"/>
  <outline>
    <contour>
      <point x="342" y="597" type="line" name="hr00"/>
      <point x="342" y="635" type="line"/>
      <point x="39" y="635" type="line"/>
      <point x="39" y="597" type="line"/>
      <point x="83" y="597" type="line"/>
      <point x="83" y="38" type="line"/>
      <point x="39" y="38" type="line"/>
      <point x="39" y="0" type="line"/>
      <point x="342" y="0" type="line"/>
      <point x="342" y="38" type="line"/>
      <point x="298" y="38" type="line"/>
      <point x="298" y="597" type="line"/>
    </contour>
  </outline>
</glyph>
<glyph name="J" format="1">
  <advance width="351"/>
  <unicode hex="004A"/>
  <outline>
    <contour>
      <point x="83" y="249" type="line"/>
      <point x="119" y="249" type="line" smooth="yes"/>
      <point x="135" y="249" smooth="yes"/>
      <point x="149" y="249" smooth="yes"/>
      <point x="149" y="223" type="curve" smooth="yes" name="hr01"/>
      <point x="149" y="170" type="line"/>
      <point x="22" y="170" type="line"/>
      <point x="-1" y="0" type="line"/>
      <point x="21" y="-6" smooth="yes"/>
      <point x="52" y="-15" smooth="yes"/>
      <point x="118" y="-15" type="curve" smooth="yes"/>
      <point x="217" y="-15" smooth="yes"/>
      <point x="298" y="23" smooth="yes"/>
      <point x="298" y="205" type="curve" smooth="yes"/>
      <point x="298" y="597" type="line"/>
      <point x="342" y="597" type="line"/>
      <point x="342" y="635" type="line"/>
      <point x="19" y="635" type="line"/>
      <point x="19" y="597" type="line"/>
      <point x="83" y="597" type="line" name="hr02"/>
    </contour>
  </outline>
</glyph>
<glyph name="K" format="1">
  <advance width="671"/>
  <unicode hex="004B"/>
  <outline>
    <contour>
      <point x="460" y="322" type="line" name="hr00"/>
      <point x="499" y="326" smooth="yes"/>
      <point x="527" y="340" smooth="yes"/>
      <point x="540" y="385" type="curve" smooth="yes"/>
      <point x="604" y="597" type="line"/>
      <point x="656" y="597" type="line"/>
      <point x="656" y="635" type="line"/>
      <point x="419" y="635" type="line"/>
      <point x="362" y="339" type="line"/>
      <point x="289" y="339" type="line"/>
      <point x="289" y="635" type="line"/>
      <point x="30" y="635" type="line"/>
      <point x="30" y="597" type="line"/>
      <point x="74" y="597" type="line"/>
      <point x="74" y="38" type="line"/>
      <point x="30" y="38" type="line"/>
      <point x="30" y="0" type="line"/>
      <point x="289" y="0" type="line"/>
      <point x="289" y="284" type="line"/>
      <point x="359" y="284" type="line"/>
      <point x="419" y="0" type="line"/>
      <point x="666" y="0" type="line"/>
      <point x="666" y="38" type="line"/>
      <point x="609" y="38" type="line"/>
      <point x="569" y="242" type="line" smooth="yes"/>
      <point x="560" y="287" smooth="yes"/>
      <point x="551" y="299" smooth="yes"/>
      <point x="505" y="299" type="curve" smooth="yes"/>
      <point x="460" y="299" type="line"/>
    </contour>
  </outline>
</glyph>
<glyph name="L" format="1">
  <advance width="531"/>
  <unicode hex="004C"/>
  <outline>
    <contour>
      <point x="526" y="214" type="line"/>
      <point x="409" y="214" type="line"/>
      <point x="368" y="60" type="line"/>
      <point x="289" y="60" type="line"/>
      <point x="289" y="597" type="line"/>
      <point x="333" y="597" type="line"/>
      <point x="333" y="635" type="line"/>
      <point x="30" y="635" type="line"/>
      <point x="30" y="597" type="line"/>
      <point x="74" y="597" type="line"/>
      <point x="74" y="38" type="line" name="hr01"/>
      <point x="30" y="38" type="line"/>
      <point x="30" y="0" type="line"/>
      <point x="526" y="0" type="line"/>
    </contour>
  </outline>
</glyph>
<glyph name="M" format="1">
  <advance width="845"/>
  <unicode hex="004D"/>
  <outline>
    <contour>
      <point x="30" y="597" type="line"/>
      <point x="74" y="597" type="line"/>
      <point x="74" y="38" type="line"/>
      <point x="30" y="38" type="line"/>
      <point x="30" y="0" type="line"/>
      <point x="233" y="0" type="line"/>
      <point x="152" y="575" type="line" name="hr01"/>
      <point x="193" y="575" type="line"/>
      <point x="322" y="0" type="line"/>
      <point x="452" y="0" type="line"/>
      <point x="611" y="575" type="line"/>
      <point x="652" y="575" type="line"/>
      <point x="541" y="0" type="line"/>
      <point x="815" y="0" type="line"/>
      <point x="815" y="38" type="line"/>
      <point x="771" y="38" type="line"/>
      <point x="771" y="597" type="line" name="hr02"/>
      <point x="815" y="597" type="line"/>
      <point x="815" y="635" type="line"/>
      <point x="547" y="635" type="line"/>
      <point x="478" y="388" type="line"/>
      <point x="459" y="388" type="line"/>
      <point x="404" y="635" type="line"/>
      <point x="30" y="635" type="line"/>
    </contour>
  </outline>
</glyph>
<glyph name="N" format="1">
  <advance width="727"/>
  <unicode hex="004E"/>
  <outline>
    <contour>
      <point x="30" y="597" type="line"/>
      <point x="74" y="597" type="line"/>
      <point x="74" y="38" type="line"/>
      <point x="30" y="38" type="line"/>
      <point x="30" y="0" type="line"/>
      <point x="221" y="0" type="line"/>
      <point x="152" y="575" type="line" name="hr01"/>
      <point x="193" y="575" type="line"/>
      <point x="322" y="0" type="line"/>
      <point x="663" y="0" type="line"/>
      <point x="663" y="597" type="line" name="hr02"/>
      <point x="707" y="597" type="line"/>
      <point x="707" y="635" type="line"/>
      <point x="516" y="635" type="line"/>
      <point x="597" y="60" type="line"/>
      <point x="556" y="60" type="line"/>
      <point x="415" y="635" type="line"/>
      <point x="30" y="635" type="line"/>
    </contour>
  </outline>
</glyph>
<glyph name="O" format="1">
  <advance width="620"/>
  <unicode hex="004F"/>
  <outline>
    <contour>
      <point x="600" y="374" type="line" smooth="yes" name="hr00"/>
      <point x="600" y="650" smooth="yes"/>
      <point x="470" y="650" smooth="yes"/>
      <point x="325" y="650" type="curve" smooth="yes"/>
      <point x="165" y="650" smooth="yes"/>
      <point x="20" y="650" smooth="yes"/>
      <point x="20" y="374" type="curve" smooth="yes"/>
      <point x="20" y="262" type="line" smooth="yes"/>
      <point x="20" y="-15" smooth="yes"/>
      <point x="150" y="-15" smooth="yes"/>
      <point x="295" y="-15" type="curve" smooth="yes"/>
      <point x="456" y="-15" smooth="yes"/>
      <point x="600" y="-15" smooth="yes"/>
      <point x="600" y="262" type="curve" smooth="yes"/>
    </contour>
    <contour>
      <point x="385" y="57" type="line"/>
      <point x="235" y="57" type="line"/>
      <point x="235" y="579" type="line"/>
      <point x="385" y="579" type="line"/>
    </contour>
  </outline>
</glyph>
<glyph name="P" format="1">
  <advance width="669"/>
  <unicode hex="0050"/>
  <outline>
    <contour>
      <point x="439" y="215" type="line"/>
      <point x="289" y="215" type="line"/>
      <point x="289" y="565" type="line"/>
      <point x="439" y="565" type="line"/>
    </contour>
    <contour>
      <point x="413" y="0" type="line"/>
      <point x="413" y="38" type="line"/>
      <point x="289" y="38" type="line"/>
      <point x="289" y="143" type="line"/>
      <point x="379" y="143" type="line" smooth="yes"/>
      <point x="524" y="143" smooth="yes"/>
      <point x="654" y="144" smooth="yes"/>
      <point x="654" y="390" type="curve" smooth="yes"/>
      <point x="654" y="634" smooth="yes"/>
      <point x="526" y="635" smooth="yes"/>
      <point x="382" y="635" type="curve" smooth="yes"/>
      <point x="30" y="635" type="line"/>
      <point x="30" y="597" type="line" name="hr01"/>
      <point x="74" y="597" type="line"/>
      <point x="74" y="38" type="line"/>
      <point x="30" y="38" type="line"/>
      <point x="30" y="0" type="line"/>
    </contour>
  </outline>
</glyph>
<glyph name="Q" format="1">
  <advance width="620"/>
  <unicode hex="0051"/>
  <outline>
    <contour>
      <point x="531" y="-165" type="line" name="hr00"/>
      <point x="531" y="-127" type="line"/>
      <point x="424" y="-127" type="line"/>
      <point x="400" y="-15" type="line" smooth="yes"/>
      <point x="512" y="-15" smooth="yes"/>
      <point x="600" y="49" smooth="yes"/>
      <point x="600" y="257" type="curve" smooth="yes"/>
      <point x="600" y="374" type="line" smooth="yes"/>
      <point x="600" y="650" smooth="yes"/>
      <point x="470" y="650" smooth="yes"/>
      <point x="325" y="650" type="curve" smooth="yes"/>
      <point x="165" y="650" smooth="yes"/>
      <point x="20" y="650" smooth="yes"/>
      <point x="20" y="374" type="curve" smooth="yes"/>
      <point x="20" y="257" type="line" smooth="yes"/>
      <point x="20" y="49" smooth="yes"/>
      <point x="108" y="-15" smooth="yes"/>
      <point x="220" y="-15" type="curve" smooth="yes"/>
      <point x="252" y="-165" type="line"/>
    </contour>
    <contour>
      <point x="385" y="54" type="line"/>
      <point x="235" y="54" type="line"/>
      <point x="235" y="579" type="line"/>
      <point x="385" y="579" type="line"/>
    </contour>
  </outline>
</glyph>
<glyph name="R" format="1">
  <advance width="676"/>
  <unicode hex="0052"/>
  <outline>
    <contour>
      <point x="289" y="0" type="line"/>
      <point x="289" y="210" type="line"/>
      <point x="439" y="210" type="line"/>
      <point x="439" y="0" type="line"/>
      <point x="686" y="0" type="line"/>
      <point x="686" y="38" type="line"/>
      <point x="633" y="38" type="line"/>
      <point x="616" y="180" type="line" smooth="yes"/>
      <point x="611" y="226" smooth="yes"/>
      <point x="598" y="240" smooth="yes"/>
      <point x="552" y="240" type="curve" smooth="yes"/>
      <point x="507" y="240" type="line"/>
      <point x="507" y="263" type="line"/>
      <point x="592" y="276" smooth="yes"/>
      <point x="654" y="317" smooth="yes"/>
      <point x="654" y="447" type="curve" smooth="yes"/>
      <point x="654" y="634" smooth="yes"/>
      <point x="526" y="635" smooth="yes"/>
      <point x="382" y="635" type="curve" smooth="yes"/>
      <point x="30" y="635" type="line"/>
      <point x="30" y="597" type="line" name="hr01"/>
      <point x="74" y="597" type="line"/>
      <point x="74" y="38" type="line"/>
      <point x="30" y="38" type="line"/>
      <point x="30" y="0" type="line"/>
    </contour>
    <contour>
      <point x="439" y="282" type="line"/>
      <point x="289" y="282" type="line"/>
      <point x="289" y="565" type="line" name="hr02"/>
      <point x="439" y="565" type="line"/>
    </contour>
  </outline>
</glyph>
<glyph name="S" format="1">
  <advance width="555"/>
  <unicode hex="0053"/>
  <outline>
    <contour>
      <point x="271" y="-15" type="curve" smooth="yes" name="hr00"/>
      <point x="410" y="-15" smooth="yes"/>
      <point x="535" y="2" smooth="yes"/>
      <point x="535" y="157" type="curve" smooth="yes"/>
      <point x="535" y="250" smooth="yes"/>
      <point x="505" y="303" smooth="yes"/>
      <point x="449" y="344" type="curve" smooth="yes"/>
      <point x="252" y="490" type="line"/>
      <point x="252" y="565" type="line"/>
      <point x="352" y="565" type="line"/>
      <point x="379" y="437" type="line"/>
      <point x="495" y="437" type="line"/>
      <point x="522" y="617" type="line"/>
      <point x="453" y="637" smooth="yes"/>
      <point x="362" y="651" smooth="yes"/>
      <point x="293" y="651" type="curve" smooth="yes"/>
      <point x="153" y="651" smooth="yes"/>
      <point x="29" y="634" smooth="yes"/>
      <point x="29" y="479" type="curve" smooth="yes"/>
      <point x="29" y="386" smooth="yes"/>
      <point x="59" y="333" smooth="yes"/>
      <point x="115" y="292" type="curve" smooth="yes"/>
      <point x="312" y="146" type="line"/>
      <point x="312" y="71" type="line"/>
      <point x="201" y="71" type="line"/>
      <point x="170" y="199" type="line"/>
      <point x="42" y="199" type="line"/>
      <point x="15" y="19" type="line"/>
      <point x="90" y="-1" smooth="yes"/>
      <point x="194" y="-15" smooth="yes"/>
    </contour>
  </outline>
</glyph>
<glyph name="T" format="1">
  <advance width="579"/>
  <unicode hex="0054"/>
  <outline>
    <contour>
      <point x="574" y="635" type="line" name="hr00"/>
      <point x="5" y="635" type="line"/>
      <point x="5" y="421" type="line"/>
      <point x="122" y="421" type="line"/>
      <point x="147" y="565" type="line"/>
      <point x="204" y="565" type="line"/>
      <point x="182" y="397" type="line"/>
      <point x="182" y="38" type="line"/>
      <point x="98" y="38" type="line"/>
      <point x="98" y="0" type="line"/>
      <point x="481" y="0" type="line"/>
      <point x="481" y="38" type="line"/>
      <point x="397" y="38" type="line"/>
      <point x="397" y="397" type="line"/>
      <point x="375" y="565" type="line"/>
      <point x="432" y="565" type="line"/>
      <point x="457" y="427" type="line"/>
      <point x="574" y="427" type="line"/>
    </contour>
  </outline>
</glyph>
<glyph name="U" format="1">
  <advance width="648"/>
  <unicode hex="0055"/>
  <outline>
    <contour>
      <point x="274" y="57" type="line" name="hr00"/>
      <point x="274" y="635" type="line"/>
      <point x="10" y="635" type="line"/>
      <point x="10" y="597" type="line"/>
      <point x="54" y="597" type="line"/>
      <point x="54" y="234" type="line" smooth="yes"/>
      <point x="54" y="-15" smooth="yes"/>
      <point x="187" y="-15" smooth="yes"/>
      <point x="334" y="-15" type="curve" smooth="yes"/>
      <point x="472" y="-15" smooth="yes"/>
      <point x="594" y="-15" smooth="yes"/>
      <point x="594" y="234" type="curve" smooth="yes"/>
      <point x="594" y="597" type="line"/>
      <point x="638" y="597" type="line"/>
      <point x="638" y="635" type="line"/>
      <point x="424" y="635" type="line"/>
      <point x="424" y="57" type="line"/>
    </contour>
  </outline>
</glyph>
<glyph name="V" format="1">
  <advance width="652"/>
  <unicode hex="0056"/>
  <outline>
    <contour>
      <point x="652" y="635" type="line" name="hr00"/>
      <point x="431" y="635" type="line"/>
      <point x="431" y="60" type="line"/>
      <point x="342" y="60" type="line"/>
      <point x="290" y="635" type="line"/>
      <point x="0" y="635" type="line"/>
      <point x="0" y="597" type="line"/>
      <point x="42" y="597" type="line"/>
      <point x="134" y="0" type="line"/>
      <point x="496" y="0" type="line"/>
      <point x="610" y="597" type="line"/>
      <point x="652" y="597" type="line"/>
    </contour>
  </outline>
</glyph>
<glyph name="W" format="1">
  <advance width="955"/>
  <unicode hex="0057"/>
  <outline>
    <contour>
      <point x="552" y="182" type="line" name="hr00"/>
      <point x="552" y="0" type="line"/>
      <point x="797" y="0" type="line"/>
      <point x="912" y="597" type="line"/>
      <point x="955" y="597" type="line"/>
      <point x="955" y="635" type="line"/>
      <point x="717" y="635" type="line"/>
      <point x="717" y="60" type="line"/>
      <point x="637" y="60" type="line"/>
      <point x="584" y="635" type="line"/>
      <point x="422" y="635" type="line"/>
      <point x="422" y="60" type="line"/>
      <point x="342" y="60" type="line"/>
      <point x="288" y="635" type="line"/>
      <point x="0" y="635" type="line"/>
      <point x="0" y="597" type="line"/>
      <point x="44" y="597" type="line"/>
      <point x="134" y="0" type="line"/>
      <point x="473" y="0" type="line"/>
      <point x="508" y="182" type="line"/>
    </contour>
  </outline>
</glyph>
<glyph name="X" format="1">
  <advance width="640"/>
  <unicode hex="0058"/>
  <outline>
    <contour>
      <point x="415" y="635" type="line" name="hr00"/>
      <point x="415" y="376" type="line"/>
      <point x="356" y="376" type="line"/>
      <point x="293" y="635" type="line"/>
      <point x="0" y="635" type="line"/>
      <point x="0" y="597" type="line"/>
      <point x="44" y="597" type="line"/>
      <point x="129" y="324" type="line"/>
      <point x="11" y="0" type="line"/>
      <point x="225" y="0" type="line"/>
      <point x="225" y="260" type="line"/>
      <point x="284" y="260" type="line"/>
      <point x="347" y="0" type="line"/>
      <point x="640" y="0" type="line"/>
      <point x="640" y="38" type="line"/>
      <point x="597" y="38" type="line"/>
      <point x="510" y="313" type="line"/>
      <point x="629" y="635" type="line"/>
    </contour>
  </outline>
</glyph>
<glyph name="Y" format="1">
  <advance width="626"/>
  <unicode hex="0059"/>
  <outline>
    <contour>
      <point x="626" y="597" type="line" name="hr00"/>
      <point x="626" y="635" type="line"/>
      <point x="405" y="635" type="line"/>
      <point x="405" y="300" type="line"/>
      <point x="348" y="300" type="line"/>
      <point x="266" y="635" type="line"/>
      <point x="0" y="635" type="line"/>
      <point x="0" y="597" type="line"/>
      <point x="43" y="597" type="line"/>
      <point x="176" y="146" type="line"/>
      <point x="176" y="38" type="line"/>
      <point x="92" y="38" type="line"/>
      <point x="92" y="0" type="line"/>
      <point x="535" y="0" type="line"/>
      <point x="535" y="38" type="line"/>
      <point x="451" y="38" type="line"/>
      <point x="451" y="146" type="line"/>
      <point x="584" y="597" type="line"/>
    </contour>
  </outline>
</glyph>
<glyph name="Z" format="1">
  <advance width="557"/>
  <unicode hex="005A"/>
  <outline>
    <contour>
      <point x="397" y="84" type="line" name="hr00"/>
      <point x="269" y="84" type="line"/>
      <point x="554" y="569" type="line"/>
      <point x="522" y="636" type="line"/>
      <point x="35" y="636" type="line"/>
      <point x="47" y="421" type="line"/>
      <point x="165" y="421" type="line"/>
      <point x="195" y="552" type="line"/>
      <point x="302" y="552" type="line"/>
      <point x="-5" y="0" type="line"/>
      <point x="557" y="0" type="line"/>
      <point x="544" y="215" type="line"/>
      <point x="426" y="215" type="line"/>
    </contour>
  </outline>
</glyph>
<glyph name="bracketleft" format="1">
  <advance width="308"/>
  <unicode hex="005B"/>
  <outline>
    <contour>
      <point x="288" y="-50" type="line"/>
      <point x="288" y="1" type="line"/>
      <point x="194" y="1" type="line" name="hr01"/>
      <point x="194" y="634" type="line"/>
      <point x="288" y="634" type="line" name="hr02"/>
      <point x="288" y="685" type="line"/>
      <point x="80" y="685" type="line"/>
      <point x="80" y="-50" type="line"/>
    </contour>
  </outline>
</glyph>
<glyph name="backslash" format="1">
  <advance width="238"/>
  <unicode hex="005C"/>
  <outline>
    <contour>
      <point x="255" y="-129" type="line" name="hr00"/>
      <point x="34" y="729" type="line"/>
      <point x="-17" y="729" type="line"/>
      <point x="205" y="-129" type="line"/>
    </contour>
  </outline>
</glyph>
<glyph name="bracketright" format="1">
  <advance width="308"/>
  <unicode hex="005D"/>
  <outline>
    <contour>
      <point x="20" y="1" type="line"/>
      <point x="20" y="-50" type="line"/>
      <point x="228" y="-50" type="line"/>
      <point x="228" y="685" type="line"/>
      <point x="20" y="685" type="line"/>
      <point x="20" y="634" type="line"/>
      <point x="114" y="634" type="line" name="hr01"/>
      <point x="114" y="1" type="line"/>
    </contour>
  </outline>
</glyph>
<glyph name="asciicircum" format="1">
  <advance width="540"/>
  <unicode hex="005E"/>
  <outline>
    <contour>
      <point x="221" y="729" type="line" name="hr00"/>
      <point x="41" y="309" type="line"/>
      <point x="143" y="309" type="line"/>
      <point x="270" y="621" type="line"/>
      <point x="396" y="309" type="line"/>
      <point x="498" y="309" type="line"/>
      <point x="318" y="729" type="line"/>
    </contour>
  </outline>
</glyph>
<glyph name="underscore" format="1">
  <advance width="486"/>
  <unicode hex="005F"/>
  <outline>
    <contour>
      <point x="24" y="-153" type="line" name="hr00"/>
      <point x="462" y="-153" type="line"/>
      <point x="462" y="-15" type="line"/>
      <point x="24" y="-15" type="line"/>
    </contour>
  </outline>
</glyph>
<glyph name="grave" format="1">
  <advance width="311"/>
  <unicode hex="0060"/>
  <outline>
    <contour>
      <point x="49" y="780" type="line" name="hr00"/>
      <point x="0" y="645" type="line"/>
      <point x="227" y="586" type="line"/>
      <point x="260" y="678" type="line"/>
    </contour>
  </outline>
</glyph>
<glyph name="a" format="1">
  <advance width="618"/>
  <unicode hex="0061"/>
  <outline>
    <contour>
      <point x="92" y="379" type="line"/>
      <point x="207" y="379" type="line"/>
      <point x="234" y="490" type="line"/>
      <point x="348" y="490" type="line"/>
      <point x="348" y="315" type="line"/>
      <point x="247" y="315" type="line" smooth="yes"/>
      <point x="135" y="315" smooth="yes"/>
      <point x="35" y="296" smooth="yes"/>
      <point x="35" y="150" type="curve" smooth="yes"/>
      <point x="35" y="-15" smooth="yes"/>
      <point x="154" y="-15" smooth="yes"/>
      <point x="255" y="-15" type="curve" smooth="yes"/>
      <point x="343" y="-15"/>
      <point x="374" y="-4"/>
      <point x="402" y="76" type="curve"/>
      <point x="415" y="76" type="line"/>
      <point x="455" y="0" type="line" name="hr01"/>
      <point x="578" y="0" type="line"/>
      <point x="578" y="38" type="line"/>
      <point x="538" y="38" type="line"/>
      <point x="538" y="415" type="line" smooth="yes"/>
      <point x="538" y="550" smooth="yes"/>
      <point x="398" y="565" smooth="yes"/>
      <point x="295" y="565" type="curve" smooth="yes"/>
      <point x="226" y="565"/>
      <point x="136" y="553"/>
      <point x="68" y="535" type="curve"/>
    </contour>
    <contour>
      <point x="348" y="76" type="line" name="hr02"/>
      <point x="211" y="76" type="line"/>
      <point x="211" y="240" type="line"/>
      <point x="348" y="240" type="line"/>
    </contour>
  </outline>
</glyph>
<glyph name="b" format="1">
  <advance width="672"/>
  <unicode hex="0062"/>
  <outline>
    <contour>
      <point x="208" y="464" type="line"/>
      <point x="208" y="550" type="line" smooth="yes"/>
      <point x="208" y="566" smooth="yes"/>
      <point x="210" y="571" smooth="yes"/>
      <point x="234" y="580" type="curve" smooth="yes"/>
      <point x="275" y="595" type="line" name="hr01"/>
      <point x="275" y="729" type="line"/>
      <point x="45" y="729" type="line"/>
      <point x="45" y="691" type="line"/>
      <point x="85" y="691" type="line"/>
      <point x="85" y="0" type="line"/>
      <point x="113" y="0" type="line"/>
      <point x="128" y="35" type="line"/>
      <point x="173" y="11" smooth="yes"/>
      <point x="267" y="-15" smooth="yes"/>
      <point x="343" y="-15" type="curve" smooth="yes" name="hr02"/>
      <point x="480" y="-15" smooth="yes"/>
      <point x="612" y="-15" smooth="yes"/>
      <point x="612" y="236" type="curve" smooth="yes"/>
      <point x="612" y="304" type="line" smooth="yes"/>
      <point x="612" y="555" smooth="yes"/>
      <point x="501" y="555" smooth="yes"/>
      <point x="378" y="555" type="curve" smooth="yes"/>
      <point x="308" y="555"/>
      <point x="256" y="544"/>
      <point x="226" y="464" type="curve"/>
    </contour>
    <contour>
      <point x="422" y="60" type="line"/>
      <point x="275" y="60" type="line" name="hr03"/>
      <point x="275" y="464" type="line"/>
      <point x="422" y="464" type="line"/>
    </contour>
  </outline>
</glyph>
<glyph name="c" format="1">
  <advance width="555"/>
  <unicode hex="0063"/>
  <outline>
    <contour>
      <point x="320" y="-15" type="curve" smooth="yes" name="hr00"/>
      <point x="389" y="-15"/>
      <point x="452" y="-10"/>
      <point x="520" y="15" type="curve"/>
      <point x="496" y="171" type="line"/>
      <point x="381" y="171" type="line"/>
      <point x="354" y="50" type="line"/>
      <point x="250" y="50" type="line"/>
      <point x="250" y="500" type="line"/>
      <point x="354" y="500" type="line"/>
      <point x="381" y="379" type="line"/>
      <point x="496" y="379" type="line"/>
      <point x="520" y="535" type="line"/>
      <point x="454" y="554" smooth="yes"/>
      <point x="389" y="565" smooth="yes"/>
      <point x="320" y="565" type="curve" smooth="yes"/>
      <point x="183" y="565" smooth="yes"/>
      <point x="60" y="565" smooth="yes"/>
      <point x="60" y="314" type="curve" smooth="yes"/>
      <point x="60" y="236" type="line" smooth="yes"/>
      <point x="60" y="-15" smooth="yes"/>
      <point x="183" y="-15" smooth="yes"/>
    </contour>
  </outline>
</glyph>
<glyph name="d" format="1">
  <advance width="668"/>
  <unicode hex="0064"/>
  <outline>
    <contour>
      <point x="628" y="0" type="line"/>
      <point x="628" y="38" type="line"/>
      <point x="588" y="38" type="line"/>
      <point x="588" y="729" type="line"/>
      <point x="357" y="729" type="line"/>
      <point x="357" y="691" type="line"/>
      <point x="397" y="691" type="line"/>
      <point x="397" y="548" type="line"/>
      <point x="378" y="549" smooth="yes"/>
      <point x="356" y="550" smooth="yes"/>
      <point x="337" y="550" type="curve" smooth="yes"/>
      <point x="191" y="550" smooth="yes"/>
      <point x="60" y="550" smooth="yes"/>
      <point x="60" y="299" type="curve" smooth="yes"/>
      <point x="60" y="236" type="line" smooth="yes"/>
      <point x="60" y="-13" smooth="yes"/>
      <point x="178" y="-15" smooth="yes"/>
      <point x="298" y="-15" type="curve" smooth="yes" name="hr01"/>
      <point x="380" y="-15"/>
      <point x="412" y="-4"/>
      <point x="452" y="76" type="curve"/>
      <point x="465" y="76" type="line"/>
      <point x="505" y="0" type="line" name="hr02"/>
    </contour>
    <contour>
      <point x="250" y="475" type="line"/>
      <point x="397" y="475" type="line"/>
      <point x="397" y="76" type="line" name="hr03"/>
      <point x="250" y="76" type="line"/>
    </contour>
  </outline>
</glyph>
<glyph name="e" format="1">
  <advance width="593"/>
  <unicode hex="0065"/>
  <outline>
    <contour>
      <point x="250" y="490" type="line" name="hr00"/>
      <point x="387" y="490" type="line"/>
      <point x="387" y="310" type="line"/>
      <point x="250" y="310" type="line"/>
    </contour>
    <contour>
      <point x="250" y="60" type="line"/>
      <point x="250" y="235" type="line"/>
      <point x="331" y="235" type="line" smooth="yes"/>
      <point x="444" y="235" smooth="yes"/>
      <point x="543" y="235" smooth="yes"/>
      <point x="543" y="400" type="curve" smooth="yes"/>
      <point x="543" y="565" smooth="yes"/>
      <point x="444" y="565" smooth="yes"/>
      <point x="331" y="565" type="curve" smooth="yes"/>
      <point x="191" y="565" smooth="yes"/>
      <point x="60" y="565" smooth="yes"/>
      <point x="60" y="314" type="curve" smooth="yes"/>
      <point x="60" y="184" type="line" smooth="yes"/>
      <point x="60" y="-1" smooth="yes"/>
      <point x="192" y="-15" smooth="yes"/>
      <point x="306" y="-15" type="curve" smooth="yes"/>
      <point x="375" y="-15"/>
      <point x="464" y="-2"/>
      <point x="531" y="15" type="curve"/>
      <point x="508" y="171" type="line"/>
      <point x="401" y="171" type="line"/>
      <point x="375" y="60" type="line"/>
    </contour>
  </outline>
</glyph>
<glyph name="f" format="1">
  <advance width="360"/>
  <unicode hex="0066"/>
  <outline>
    <contour>
      <point x="45" y="444" type="line"/>
      <point x="85" y="444" type="line" name="hr01"/>
      <point x="85" y="38" type="line"/>
      <point x="45" y="38" type="line" name="hr02"/>
      <point x="45" y="0" type="line"/>
      <point x="345" y="0" type="line"/>
      <point x="345" y="38" type="line"/>
      <point x="275" y="38" type="line" name="hr03"/>
      <point x="275" y="444" type="line"/>
      <point x="352" y="444" type="line"/>
      <point x="352" y="492" type="line"/>
      <point x="230" y="492" type="line" smooth="yes"/>
      <point x="214" y="492" smooth="yes"/>
      <point x="200" y="492" smooth="yes"/>
      <point x="200" y="518" type="curve" smooth="yes" name="hr04"/>
      <point x="200" y="578" type="line"/>
      <point x="352" y="578" type="line"/>
      <point x="369" y="731" type="line"/>
      <point x="332" y="739" smooth="yes"/>
      <point x="299" y="744" smooth="yes"/>
      <point x="267" y="744" type="curve" smooth="yes"/>
      <point x="143" y="744" smooth="yes"/>
      <point x="85" y="692" smooth="yes"/>
      <point x="85" y="540" type="curve" smooth="yes" name="hr05"/>
      <point x="85" y="492" type="line"/>
      <point x="45" y="492" type="line" name="hr06"/>
    </contour>
  </outline>
</glyph>
<glyph name="g" format="1">
  <advance width="589"/>
  <unicode hex="0067"/>
  <outline>
    <contour>
      <point x="20" y="-41" type="curve" smooth="yes"/>
      <point x="20" y="-160" smooth="yes"/>
      <point x="49" y="-195" smooth="yes"/>
      <point x="276" y="-195" type="curve" smooth="yes"/>
      <point x="492" y="-195" smooth="yes"/>
      <point x="547" y="-156" smooth="yes"/>
      <point x="547" y="-18" type="curve" smooth="yes"/>
      <point x="547" y="104" smooth="yes"/>
      <point x="467" y="135" smooth="yes"/>
      <point x="413" y="135" type="curve" smooth="yes"/>
      <point x="264" y="135" type="line" smooth="yes"/>
      <point x="237" y="135" smooth="yes"/>
      <point x="230" y="151" smooth="yes"/>
      <point x="230" y="191" type="curve" smooth="yes" name="hr01"/>
      <point x="230" y="215" type="line"/>
      <point x="266" y="215" type="line" smooth="yes"/>
      <point x="399" y="215" smooth="yes"/>
      <point x="519" y="215" smooth="yes"/>
      <point x="519" y="366" type="curve" smooth="yes"/>
      <point x="519" y="483" type="line" smooth="yes"/>
      <point x="519" y="504" smooth="yes"/>
      <point x="525" y="511" smooth="yes"/>
      <point x="538" y="511" type="curve" smooth="yes"/>
      <point x="549" y="511" type="line"/>
      <point x="549" y="600" type="line"/>
      <point x="505" y="600" type="line" smooth="yes"/>
      <point x="446" y="600" smooth="yes"/>
      <point x="433" y="582" smooth="yes"/>
      <point x="419" y="525" type="curve" smooth="yes"/>
      <point x="409" y="484" type="line"/>
      <point x="396" y="484" type="line"/>
      <point x="396" y="551" smooth="yes"/>
      <point x="347" y="565" smooth="yes"/>
      <point x="262" y="565" type="curve" smooth="yes"/>
      <point x="143" y="565" smooth="yes"/>
      <point x="37" y="565" smooth="yes"/>
      <point x="37" y="387" type="curve" smooth="yes" name="hr02"/>
      <point x="37" y="366" type="line" smooth="yes"/>
      <point x="37" y="284"/>
      <point x="73" y="246"/>
      <point x="124" y="229" type="curve" name="hr03"/>
      <point x="124" y="167" type="line" smooth="yes"/>
      <point x="124" y="140"/>
      <point x="131" y="113"/>
      <point x="175" y="104" type="curve"/>
      <point x="175" y="91" type="line"/>
      <point x="100" y="91" type="line" smooth="yes"/>
      <point x="68" y="91" smooth="yes"/>
      <point x="20" y="61" smooth="yes"/>
    </contour>
    <contour>
      <point x="347" y="297" type="line"/>
      <point x="210" y="297" type="line" name="hr05"/>
      <point x="210" y="484" type="line"/>
      <point x="347" y="484" type="line"/>
    </contour>
    <contour>
      <point x="403" y="10" type="line" name="hr06"/>
      <point x="403" y="-95" type="line"/>
      <point x="161" y="-95" type="line"/>
      <point x="161" y="10" type="line"/>
    </contour>
  </outline>
</glyph>
<glyph name="h" format="1">
  <advance width="692"/>
  <unicode hex="0068"/>
  <outline>
    <contour>
      <point x="652" y="0" type="line"/>
      <point x="652" y="38" type="line"/>
      <point x="612" y="38" type="line"/>
      <point x="612" y="405" type="line" smooth="yes"/>
      <point x="612" y="522" smooth="yes"/>
      <point x="536" y="555" smooth="yes"/>
      <point x="415" y="555" type="curve" smooth="yes"/>
      <point x="315" y="555"/>
      <point x="256" y="544"/>
      <point x="226" y="464" type="curve"/>
      <point x="208" y="464" type="line"/>
      <point x="208" y="550" type="line" smooth="yes"/>
      <point x="208" y="566" smooth="yes"/>
      <point x="210" y="571" smooth="yes"/>
      <point x="234" y="580" type="curve" smooth="yes"/>
      <point x="275" y="595" type="line" name="hr01"/>
      <point x="275" y="729" type="line"/>
      <point x="45" y="729" type="line"/>
      <point x="45" y="691" type="line"/>
      <point x="85" y="691" type="line"/>
      <point x="85" y="38" type="line"/>
      <point x="45" y="38" type="line"/>
      <point x="45" y="0" type="line"/>
      <point x="275" y="0" type="line"/>
      <point x="275" y="464" type="line"/>
      <point x="422" y="464" type="line"/>
      <point x="422" y="0" type="line"/>
    </contour>
  </outline>
</glyph>
<glyph name="i" format="1">
  <advance width="355"/>
  <unicode hex="0069"/>
  <outline>
    <contour>
      <point x="315" y="0" type="line" name="hr00"/>
      <point x="315" y="38" type="line"/>
      <point x="275" y="38" type="line"/>
      <point x="275" y="550" type="line"/>
      <point x="45" y="550" type="line"/>
      <point x="45" y="512" type="line"/>
      <point x="85" y="512" type="line"/>
      <point x="85" y="38" type="line"/>
      <point x="45" y="38" type="line"/>
      <point x="45" y="0" type="line"/>
    </contour>
    <contour>
      <point x="284" y="682" type="curve" smooth="yes"/>
      <point x="284" y="757" smooth="yes"/>
      <point x="266" y="765" smooth="yes"/>
      <point x="186" y="765" type="curve" smooth="yes"/>
      <point x="95" y="765" smooth="yes"/>
      <point x="75" y="757" smooth="yes"/>
      <point x="75" y="682" type="curve" smooth="yes"/>
      <point x="75" y="607" smooth="yes"/>
      <point x="95" y="599" smooth="yes"/>
      <point x="186" y="599" type="curve" smooth="yes"/>
      <point x="266" y="599" smooth="yes"/>
      <point x="284" y="607" smooth="yes"/>
    </contour>
  </outline>
</glyph>
<glyph name="j" format="1">
  <advance width="360"/>
  <unicode hex="006A"/>
  <outline>
    <contour>
      <point x="98" y="-195" type="curve" smooth="yes"/>
      <point x="217" y="-195" smooth="yes"/>
      <point x="280" y="-132" smooth="yes"/>
      <point x="280" y="20" type="curve" smooth="yes"/>
      <point x="280" y="550" type="line"/>
      <point x="50" y="550" type="line"/>
      <point x="50" y="512" type="line"/>
      <point x="90" y="512" type="line"/>
      <point x="90" y="49" type="line"/>
      <point x="126" y="49" type="line" smooth="yes"/>
      <point x="142" y="49" smooth="yes"/>
      <point x="156" y="49" smooth="yes"/>
      <point x="156" y="23" type="curve" smooth="yes" name="hr01"/>
      <point x="156" y="-30" type="line"/>
      <point x="34" y="-30" type="line"/>
      <point x="14" y="-187" type="line"/>
      <point x="42" y="-193" smooth="yes"/>
      <point x="70" y="-195" smooth="yes"/>
    </contour>
    <contour>
      <point x="289" y="682" type="curve" smooth="yes"/>
      <point x="289" y="757" smooth="yes"/>
      <point x="271" y="765" smooth="yes"/>
      <point x="191" y="765" type="curve" smooth="yes"/>
      <point x="100" y="765" smooth="yes"/>
      <point x="80" y="757" smooth="yes"/>
      <point x="80" y="682" type="curve" smooth="yes"/>
      <point x="80" y="607" smooth="yes"/>
      <point x="100" y="599" smooth="yes"/>
      <point x="191" y="599" type="curve" smooth="yes"/>
      <point x="271" y="599" smooth="yes"/>
      <point x="289" y="607" smooth="yes"/>
    </contour>
  </outline>
</glyph>
<glyph name="k" format="1">
  <advance width="642"/>
  <unicode hex="006B"/>
  <outline>
    <contour>
      <point x="449" y="559" type="curve" smooth="yes"/>
      <point x="362" y="559"/>
      <point x="314" y="510"/>
      <point x="270" y="359" type="curve"/>
      <point x="252" y="359" type="line" name="hr01"/>
      <point x="252" y="543" type="line" smooth="yes"/>
      <point x="252" y="559" smooth="yes"/>
      <point x="254" y="564" smooth="yes"/>
      <point x="278" y="573" type="curve" smooth="yes"/>
      <point x="297" y="580" type="line" name="hr02"/>
      <point x="297" y="729" type="line"/>
      <point x="40" y="729" type="line"/>
      <point x="40" y="691" type="line"/>
      <point x="80" y="691" type="line"/>
      <point x="80" y="38" type="line"/>
      <point x="40" y="38" type="line"/>
      <point x="40" y="0" type="line"/>
      <point x="632" y="0" type="line"/>
      <point x="632" y="38" type="line"/>
      <point x="593" y="38" type="line"/>
      <point x="527" y="315" type="line"/>
      <point x="442" y="315" type="line" smooth="yes"/>
      <point x="426" y="315" smooth="yes"/>
      <point x="412" y="315" smooth="yes"/>
      <point x="412" y="341" type="curve" smooth="yes"/>
      <point x="412" y="394" type="line"/>
      <point x="534" y="394" type="line"/>
      <point x="554" y="551" type="line"/>
      <point x="526" y="557" smooth="yes"/>
      <point x="477" y="559" smooth="yes"/>
    </contour>
    <contour>
      <point x="270" y="0" type="line"/>
      <point x="270" y="268" type="line"/>
      <point x="343" y="268" type="line"/>
      <point x="391" y="0" type="line"/>
    </contour>
  </outline>
</glyph>
<glyph name="l" format="1">
  <advance width="355"/>
  <unicode hex="006C"/>
  <outline>
    <contour>
      <point x="45" y="729" type="line" name="hr00"/>
      <point x="45" y="691" type="line"/>
      <point x="85" y="691" type="line"/>
      <point x="85" y="38" type="line"/>
      <point x="45" y="38" type="line"/>
      <point x="45" y="0" type="line"/>
      <point x="315" y="0" type="line"/>
      <point x="315" y="38" type="line"/>
      <point x="275" y="38" type="line"/>
      <point x="275" y="729" type="line"/>
    </contour>
  </outline>
</glyph>
<glyph name="m" format="1">
  <advance width="969"/>
  <unicode hex="006D"/>
  <outline>
    <contour>
      <point x="275" y="474" type="line"/>
      <point x="392" y="474" type="line"/>
      <point x="392" y="0" type="line"/>
      <point x="582" y="0" type="line"/>
      <point x="582" y="474" type="line"/>
      <point x="699" y="474" type="line"/>
      <point x="699" y="0" type="line"/>
      <point x="929" y="0" type="line"/>
      <point x="929" y="38" type="line"/>
      <point x="889" y="38" type="line"/>
      <point x="889" y="415" type="line" smooth="yes"/>
      <point x="889" y="532" smooth="yes"/>
      <point x="813" y="565" smooth="yes"/>
      <point x="693" y="565" type="curve" smooth="yes"/>
      <point x="624" y="565"/>
      <point x="576" y="558"/>
      <point x="544" y="514" type="curve"/>
      <point x="515" y="552" smooth="yes"/>
      <point x="463" y="565" smooth="yes"/>
      <point x="396" y="565" type="curve" smooth="yes"/>
      <point x="310" y="565"/>
      <point x="256" y="554"/>
      <point x="226" y="474" type="curve"/>
      <point x="213" y="474" type="line"/>
      <point x="178" y="550" type="line" name="hr01"/>
      <point x="45" y="550" type="line"/>
      <point x="45" y="512" type="line"/>
      <point x="85" y="512" type="line"/>
      <point x="85" y="38" type="line"/>
      <point x="45" y="38" type="line"/>
      <point x="45" y="0" type="line" name="hr02"/>
      <point x="275" y="0" type="line"/>
    </contour>
  </outline>
</glyph>
<glyph name="n" format="1">
  <advance width="692"/>
  <unicode hex="006E"/>
  <outline>
    <contour>
      <point x="652" y="0" type="line"/>
      <point x="652" y="38" type="line"/>
      <point x="612" y="38" type="line"/>
      <point x="612" y="415" type="line" smooth="yes"/>
      <point x="612" y="532" smooth="yes"/>
      <point x="536" y="565" smooth="yes"/>
      <point x="415" y="565" type="curve" smooth="yes"/>
      <point x="315" y="565"/>
      <point x="256" y="554"/>
      <point x="226" y="474" type="curve"/>
      <point x="213" y="474" type="line"/>
      <point x="178" y="550" type="line" name="hr01"/>
      <point x="45" y="550" type="line"/>
      <point x="45" y="512" type="line"/>
      <point x="85" y="512" type="line"/>
      <point x="85" y="38" type="line"/>
      <point x="45" y="38" type="line"/>
      <point x="45" y="0" type="line"/>
      <point x="275" y="0" type="line"/>
      <point x="275" y="474" type="line" name="hr02"/>
      <point x="422" y="474" type="line"/>
      <point x="422" y="0" type="line"/>
    </contour>
  </outline>
</glyph>
<glyph name="o" format="1">
  <advance width="647"/>
  <unicode hex="006F"/>
  <outline>
    <contour>
      <point x="587" y="314" type="line" smooth="yes" name="hr00"/>
      <point x="587" y="565" smooth="yes"/>
      <point x="469" y="565" smooth="yes"/>
      <point x="337" y="565" type="curve" smooth="yes"/>
      <point x="191" y="565" smooth="yes"/>
      <point x="60" y="565" smooth="yes"/>
      <point x="60" y="314" type="curve" smooth="yes"/>
      <point x="60" y="236" type="line" smooth="yes"/>
      <point x="60" y="-15" smooth="yes"/>
      <point x="178" y="-15" smooth="yes"/>
      <point x="310" y="-15" type="curve" smooth="yes"/>
      <point x="456" y="-15" smooth="yes"/>
      <point x="587" y="-15" smooth="yes"/>
      <point x="587" y="236" type="curve" smooth="yes"/>
    </contour>
    <contour>
      <point x="397" y="60" type="line"/>
      <point x="250" y="60" type="line"/>
      <point x="250" y="490" type="line"/>
      <point x="397" y="490" type="line"/>
    </contour>
  </outline>
</glyph>
<glyph name="p" format="1">
  <advance width="668"/>
  <unicode hex="0070"/>
  <outline>
    <contour>
      <point x="40" y="550" type="line"/>
      <point x="40" y="512" type="line"/>
      <point x="80" y="512" type="line"/>
      <point x="80" y="-180" type="line"/>
      <point x="325" y="-180" type="line"/>
      <point x="325" y="-142" type="line"/>
      <point x="271" y="-142" type="line"/>
      <point x="271" y="2" type="line"/>
      <point x="291" y="0" smooth="yes"/>
      <point x="311" y="0" smooth="yes"/>
      <point x="331" y="0" type="curve" smooth="yes"/>
      <point x="477" y="0" smooth="yes"/>
      <point x="608" y="0" smooth="yes"/>
      <point x="608" y="251" type="curve" smooth="yes"/>
      <point x="608" y="314" type="line" smooth="yes"/>
      <point x="608" y="563" smooth="yes"/>
      <point x="492" y="565" smooth="yes"/>
      <point x="373" y="565" type="curve" smooth="yes" name="hr01"/>
      <point x="290" y="565"/>
      <point x="246" y="554"/>
      <point x="216" y="474" type="curve"/>
      <point x="203" y="474" type="line"/>
      <point x="163" y="550" type="line" name="hr02"/>
    </contour>
    <contour>
      <point x="418" y="75" type="line"/>
      <point x="271" y="75" type="line"/>
      <point x="271" y="474" type="line" name="hr03"/>
      <point x="418" y="474" type="line"/>
    </contour>
  </outline>
</glyph>
<glyph name="q" format="1">
  <advance width="667"/>
  <unicode hex="0071"/>
  <outline>
    <contour>
      <point x="627" y="-180" type="line"/>
      <point x="627" y="-142" type="line"/>
      <point x="587" y="-142" type="line"/>
      <point x="587" y="550" type="line"/>
      <point x="559" y="550" type="line"/>
      <point x="544" y="515" type="line"/>
      <point x="499" y="539" smooth="yes"/>
      <point x="405" y="565" smooth="yes"/>
      <point x="329" y="565" type="curve" smooth="yes" name="hr01"/>
      <point x="192" y="565" smooth="yes"/>
      <point x="60" y="565" smooth="yes"/>
      <point x="60" y="314" type="curve" smooth="yes"/>
      <point x="60" y="246" type="line" smooth="yes"/>
      <point x="60" y="-5" smooth="yes"/>
      <point x="171" y="-5" smooth="yes"/>
      <point x="294" y="-5" type="curve" smooth="yes"/>
      <point x="364" y="-5"/>
      <point x="416" y="6"/>
      <point x="446" y="86" type="curve"/>
      <point x="464" y="86" type="line"/>
      <point x="464" y="0" type="line" smooth="yes"/>
      <point x="464" y="-16" smooth="yes"/>
      <point x="462" y="-21" smooth="yes"/>
      <point x="438" y="-30" type="curve" smooth="yes"/>
      <point x="397" y="-45" type="line" name="hr02"/>
      <point x="397" y="-180" type="line"/>
    </contour>
    <contour>
      <point x="250" y="490" type="line"/>
      <point x="397" y="490" type="line"/>
      <point x="397" y="86" type="line"/>
      <point x="250" y="86" type="line"/>
    </contour>
  </outline>
</glyph>
<glyph name="r" format="1">
  <advance width="391"/>
  <unicode hex="0072"/>
  <outline>
    <contour>
      <point x="45" y="550" type="line"/>
      <point x="45" y="512" type="line"/>
      <point x="85" y="512" type="line"/>
      <point x="85" y="38" type="line"/>
      <point x="45" y="38" type="line"/>
      <point x="45" y="0" type="line"/>
      <point x="356" y="0" type="line"/>
      <point x="356" y="38" type="line"/>
      <point x="275" y="38" type="line"/>
      <point x="275" y="315" type="line"/>
      <point x="239" y="315" type="line" smooth="yes"/>
      <point x="223" y="315" smooth="yes"/>
      <point x="209" y="315" smooth="yes"/>
      <point x="209" y="341" type="curve" smooth="yes" name="hr01"/>
      <point x="209" y="394" type="line"/>
      <point x="351" y="394" type="line"/>
      <point x="372" y="559" type="line"/>
      <point x="349" y="563" smooth="yes"/>
      <point x="328" y="565" smooth="yes"/>
      <point x="309" y="565" type="curve" smooth="yes"/>
      <point x="254" y="565"/>
      <point x="217" y="544"/>
      <point x="194" y="474" type="curve"/>
      <point x="186" y="474" type="line"/>
      <point x="166" y="550" type="line" name="hr02"/>
    </contour>
  </outline>
</glyph>
<glyph name="s" format="1">
  <advance width="570"/>
  <unicode hex="0073"/>
  <outline>
    <contour>
      <point x="281" y="-15" type="curve" smooth="yes" name="hr00"/>
      <point x="408" y="-15" smooth="yes"/>
      <point x="520" y="0" smooth="yes"/>
      <point x="520" y="135" type="curve" smooth="yes"/>
      <point x="520" y="216" smooth="yes"/>
      <point x="492" y="253" smooth="yes"/>
      <point x="439" y="289" type="curve" smooth="yes"/>
      <point x="252" y="418" type="line"/>
      <point x="252" y="490" type="line"/>
      <point x="356" y="490" type="line"/>
      <point x="380" y="379" type="line"/>
      <point x="485" y="379" type="line"/>
      <point x="509" y="535" type="line"/>
      <point x="447" y="553" smooth="yes"/>
      <point x="364" y="565" smooth="yes"/>
      <point x="301" y="565" type="curve" smooth="yes"/>
      <point x="174" y="565" smooth="yes"/>
      <point x="62" y="550" smooth="yes"/>
      <point x="62" y="415" type="curve" smooth="yes"/>
      <point x="62" y="334" smooth="yes"/>
      <point x="90" y="297" smooth="yes"/>
      <point x="143" y="261" type="curve" smooth="yes"/>
      <point x="330" y="132" type="line"/>
      <point x="330" y="60" type="line"/>
      <point x="216" y="60" type="line"/>
      <point x="189" y="171" type="line"/>
      <point x="74" y="171" type="line"/>
      <point x="50" y="15" type="line"/>
      <point x="118" y="-3" smooth="yes"/>
      <point x="212" y="-15" smooth="yes"/>
    </contour>
  </outline>
</glyph>
<glyph name="t" format="1">
  <advance width="390"/>
  <unicode hex="0074"/>
  <outline>
    <contour>
      <point x="40" y="550" type="line"/>
      <point x="40" y="502" type="line"/>
      <point x="80" y="502" type="line"/>
      <point x="80" y="150" type="line" smooth="yes"/>
      <point x="80" y="-15" smooth="yes"/>
      <point x="164" y="-15" smooth="yes"/>
      <point x="232" y="-15" type="curve" smooth="yes"/>
      <point x="318" y="-15" smooth="yes"/>
      <point x="375" y="0" smooth="yes"/>
      <point x="375" y="76" type="curve" smooth="yes"/>
      <point x="375" y="149" type="line"/>
      <point x="327" y="149" type="line"/>
      <point x="327" y="50" type="line" name="hr01"/>
      <point x="270" y="50" type="line"/>
      <point x="270" y="502" type="line"/>
      <point x="375" y="502" type="line"/>
      <point x="375" y="550" type="line"/>
      <point x="270" y="550" type="line"/>
      <point x="270" y="668" type="line"/>
      <point x="198" y="668" type="line"/>
      <point x="90" y="550" type="line"/>
    </contour>
  </outline>
</glyph>
<glyph name="u" format="1">
  <advance width="692"/>
  <unicode hex="0075"/>
  <outline>
    <contour>
      <point x="80" y="150" type="line" smooth="yes"/>
      <point x="80" y="-15" smooth="yes"/>
      <point x="210" y="-15" smooth="yes"/>
      <point x="316" y="-15" type="curve" smooth="yes"/>
      <point x="410" y="-15"/>
      <point x="471" y="0"/>
      <point x="471" y="76" type="curve"/>
      <point x="484" y="76" type="line"/>
      <point x="524" y="0" type="line" name="hr01"/>
      <point x="647" y="0" type="line"/>
      <point x="647" y="38" type="line"/>
      <point x="607" y="38" type="line"/>
      <point x="607" y="550" type="line"/>
      <point x="417" y="550" type="line"/>
      <point x="417" y="76" type="line" name="hr02"/>
      <point x="270" y="76" type="line"/>
      <point x="270" y="550" type="line"/>
      <point x="40" y="550" type="line"/>
      <point x="40" y="512" type="line"/>
      <point x="80" y="512" type="line"/>
    </contour>
  </outline>
</glyph>
<glyph name="v" format="1">
  <advance width="598"/>
  <unicode hex="0076"/>
  <outline>
    <contour>
      <point x="382" y="550" type="line" name="hr00"/>
      <point x="382" y="84" type="line"/>
      <point x="305" y="84" type="line"/>
      <point x="261" y="550" type="line"/>
      <point x="20" y="550" type="line"/>
      <point x="20" y="512" type="line"/>
      <point x="59" y="512" type="line"/>
      <point x="132" y="0" type="line"/>
      <point x="453" y="0" type="line"/>
      <point x="563" y="550" type="line"/>
    </contour>
  </outline>
</glyph>
<glyph name="w" format="1">
  <advance width="855"/>
  <unicode hex="0077"/>
  <outline>
    <contour>
      <point x="484" y="158" type="line" name="hr00"/>
      <point x="484" y="0" type="line"/>
      <point x="710" y="0" type="line"/>
      <point x="820" y="550" type="line"/>
      <point x="639" y="550" type="line"/>
      <point x="639" y="84" type="line"/>
      <point x="562" y="84" type="line"/>
      <point x="518" y="550" type="line"/>
      <point x="382" y="550" type="line"/>
      <point x="382" y="84" type="line"/>
      <point x="305" y="84" type="line"/>
      <point x="261" y="550" type="line"/>
      <point x="20" y="550" type="line"/>
      <point x="20" y="512" type="line"/>
      <point x="59" y="512" type="line"/>
      <point x="132" y="0" type="line"/>
      <point x="427" y="0" type="line"/>
      <point x="458" y="158" type="line"/>
    </contour>
  </outline>
</glyph>
<glyph name="x" format="1">
  <advance width="603"/>
  <unicode hex="0078"/>
  <outline>
    <contour>
      <point x="221" y="0" type="line" name="hr00"/>
      <point x="221" y="226" type="line"/>
      <point x="277" y="226" type="line"/>
      <point x="332" y="0" type="line"/>
      <point x="578" y="0" type="line"/>
      <point x="578" y="38" type="line"/>
      <point x="539" y="38" type="line"/>
      <point x="465" y="270" type="line"/>
      <point x="568" y="550" type="line"/>
      <point x="382" y="550" type="line"/>
      <point x="382" y="324" type="line"/>
      <point x="326" y="324" type="line"/>
      <point x="271" y="550" type="line"/>
      <point x="25" y="550" type="line"/>
      <point x="25" y="512" type="line"/>
      <point x="64" y="512" type="line"/>
      <point x="137" y="280" type="line"/>
      <point x="35" y="0" type="line"/>
    </contour>
  </outline>
</glyph>
<glyph name="y" format="1">
  <advance width="598"/>
  <unicode hex="0079"/>
  <outline>
    <contour>
      <point x="382" y="550" type="line" name="hr00"/>
      <point x="382" y="49" type="line"/>
      <point x="309" y="49" type="line"/>
      <point x="261" y="550" type="line"/>
      <point x="20" y="550" type="line"/>
      <point x="20" y="512" type="line"/>
      <point x="59" y="512" type="line"/>
      <point x="125" y="49" type="line"/>
      <point x="210" y="49" type="line" smooth="yes"/>
      <point x="226" y="49" smooth="yes"/>
      <point x="240" y="49" smooth="yes"/>
      <point x="240" y="23" type="curve" smooth="yes"/>
      <point x="240" y="-30" type="line"/>
      <point x="118" y="-30" type="line"/>
      <point x="98" y="-187" type="line"/>
      <point x="126" y="-193" smooth="yes"/>
      <point x="175" y="-195" smooth="yes"/>
      <point x="203" y="-195" type="curve" smooth="yes"/>
      <point x="327" y="-195" smooth="yes"/>
      <point x="427" y="-123" smooth="yes"/>
      <point x="458" y="31" type="curve" smooth="yes"/>
      <point x="563" y="550" type="line"/>
    </contour>
  </outline>
</glyph>
<glyph name="z" format="1">
  <advance width="564"/>
  <unicode hex="007A"/>
  <outline>
    <contour>
      <point x="371" y="73" type="line" name="hr00"/>
      <point x="265" y="73" type="line"/>
      <point x="515" y="492" type="line"/>
      <point x="488" y="550" type="line"/>
      <point x="49" y="550" type="line"/>
      <point x="60" y="364" type="line"/>
      <point x="162" y="364" type="line"/>
      <point x="196" y="477" type="line"/>
      <point x="302" y="477" type="line"/>
      <point x="15" y="0" type="line"/>
      <point x="518" y="0" type="line"/>
      <point x="507" y="186" type="line"/>
      <point x="405" y="186" type="line"/>
    </contour>
  </outline>
</glyph>
<glyph name="braceleft" format="1">
  <advance width="308"/>
  <unicode hex="007B"/>
  <outline>
    <contour>
      <point x="0" y="295" type="line" name="hr00"/>
      <point x="62" y="277" type="line"/>
      <point x="62" y="219" type="line" smooth="yes"/>
      <point x="62" y="-30"/>
      <point x="154" y="-50"/>
      <point x="288" y="-50" type="curve"/>
      <point x="288" y="1" type="line"/>
      <point x="233" y="1" smooth="yes"/>
      <point x="196" y="1" smooth="yes"/>
      <point x="196" y="243" type="curve" smooth="yes"/>
      <point x="196" y="280"/>
      <point x="171" y="311"/>
      <point x="124" y="311" type="curve"/>
      <point x="124" y="323" type="line"/>
      <point x="170" y="323" smooth="yes"/>
      <point x="195" y="354" smooth="yes"/>
      <point x="195" y="391" type="curve" smooth="yes"/>
      <point x="195" y="633"/>
      <point x="232" y="633"/>
      <point x="288" y="633" type="curve"/>
      <point x="288" y="684" type="line"/>
      <point x="154" y="684" smooth="yes"/>
      <point x="62" y="664" smooth="yes"/>
      <point x="62" y="415" type="curve" smooth="yes"/>
      <point x="62" y="357" type="line"/>
      <point x="0" y="339" type="line"/>
    </contour>
  </outline>
</glyph>
<glyph name="bar" format="1">
  <advance width="254"/>
  <unicode hex="007C"/>
  <outline>
    <contour>
      <point x="100" y="-50" type="line" name="hr00"/>
      <point x="154" y="-50" type="line"/>
      <point x="154" y="684" type="line"/>
      <point x="100" y="684" type="line"/>
    </contour>
  </outline>
</glyph>
<glyph name="braceright" format="1">
  <advance width="308"/>
  <unicode hex="007D"/>
  <outline>
    <contour>
      <point x="308" y="339" type="line" name="hr00"/>
      <point x="246" y="357" type="line"/>
      <point x="246" y="415" type="line" smooth="yes"/>
      <point x="246" y="664"/>
      <point x="154" y="684"/>
      <point x="20" y="684" type="curve"/>
      <point x="20" y="633" type="line"/>
      <point x="75" y="633" smooth="yes"/>
      <point x="112" y="633" smooth="yes"/>
      <point x="112" y="391" type="curve" smooth="yes"/>
      <point x="112" y="354"/>
      <point x="137" y="323"/>
      <point x="184" y="323" type="curve"/>
      <point x="184" y="311" type="line"/>
      <point x="138" y="311" smooth="yes"/>
      <point x="113" y="280" smooth="yes"/>
      <point x="113" y="243" type="curve" smooth="yes"/>
      <point x="113" y="1"/>
      <point x="76" y="1"/>
      <point x="20" y="1" type="curve"/>
      <point x="20" y="-50" type="line"/>
      <point x="154" y="-50" smooth="yes"/>
      <point x="246" y="-30" smooth="yes"/>
      <point x="246" y="219" type="curve" smooth="yes"/>
      <point x="246" y="277" type="line"/>
      <point x="308" y="295" type="line"/>
    </contour>
  </outline>
</glyph>
<glyph name="asciitilde" format="1">
  <advance width="540"/>
  <unicode hex="007E"/>
  <outline>
    <contour>
      <point x="60" y="261" type="line"/>
      <point x="87" y="242" smooth="yes"/>
      <point x="121" y="236" smooth="yes"/>
      <point x="153" y="236" type="curve" smooth="yes"/>
      <point x="233" y="236" smooth="yes"/>
      <point x="303" y="286" smooth="yes"/>
      <point x="383" y="286" type="curve" smooth="yes" name="hr01"/>
      <point x="418" y="286"/>
      <point x="450" y="277"/>
      <point x="480" y="261" type="curve"/>
      <point x="480" y="363" type="line"/>
      <point x="448" y="378" smooth="yes"/>
      <point x="416" y="384" smooth="yes"/>
      <point x="381" y="384" type="curve" smooth="yes"/>
      <point x="303" y="384" smooth="yes"/>
      <point x="234" y="339" smooth="yes"/>
      <point x="157" y="339" type="curve" smooth="yes" name="hr02"/>
      <point x="124" y="339"/>
      <point x="89" y="344"/>
      <point x="60" y="363" type="curve"/>
    </contour>
  </outline>
</glyph>
<glyph name="exclamdown" format="1">
  <advance width="355"/>
  <unicode hex="00A1"/>
  <outline>
    <contour>
      <point x="74" y="482" type="curve" smooth="yes" name="hr00"/>
      <point x="74" y="408" smooth="yes"/>
      <point x="92" y="399" smooth="yes"/>
      <point x="172" y="399" type="curve" smooth="yes"/>
      <point x="263" y="399" smooth="yes"/>
      <point x="283" y="408" smooth="yes"/>
      <point x="283" y="482" type="curve" smooth="yes"/>
      <point x="283" y="557" smooth="yes"/>
      <point x="263" y="565" smooth="yes"/>
      <point x="173" y="565" type="curve" smooth="yes"/>
      <point x="93" y="565" smooth="yes"/>
      <point x="74" y="557" smooth="yes"/>
    </contour>
    <contour>
      <point x="292" y="-85" type="line"/>
      <point x="292" y="185" type="line"/>
      <point x="262" y="317" type="line"/>
      <point x="93" y="317" type="line"/>
      <point x="63" y="185" type="line"/>
      <point x="63" y="-85" type="line"/>
    </contour>
  </outline>
</glyph>
<glyph name="cent" format="1">
  <advance width="547"/>
  <unicode hex="00A2"/>
  <outline>
    <contour>
      <point x="305" y="665" type="line" name="hr00"/>
      <point x="271" y="665" type="line"/>
      <point x="271" y="556" type="line"/>
      <point x="157" y="555" smooth="yes"/>
      <point x="60" y="538" smooth="yes"/>
      <point x="60" y="301" type="curve" smooth="yes"/>
      <point x="60" y="63"/>
      <point x="157" y="47"/>
      <point x="272" y="46" type="curve"/>
      <point x="272" y="-66" type="line"/>
      <point x="306" y="-66" type="line"/>
      <point x="306" y="46" type="line"/>
      <point x="366" y="46"/>
      <point x="426" y="55"/>
      <point x="480" y="72" type="curve"/>
      <point x="453" y="236" type="line"/>
      <point x="359" y="236" type="line"/>
      <point x="332" y="111" type="line"/>
      <point x="245" y="111" type="line"/>
      <point x="245" y="491" type="line"/>
      <point x="332" y="491" type="line"/>
      <point x="359" y="366" type="line"/>
      <point x="453" y="366" type="line"/>
      <point x="480" y="530" type="line"/>
      <point x="421" y="545"/>
      <point x="365" y="555"/>
      <point x="305" y="556" type="curve"/>
    </contour>
  </outline>
</glyph>
<glyph name="currency" format="1">
  <advance width="575"/>
  <unicode hex="00A4"/>
  <outline>
    <contour>
      <point x="56" y="556" type="line" name="hr00"/>
      <point x="32" y="532" type="line"/>
      <point x="104" y="459" type="line"/>
      <point x="75" y="426" smooth="yes"/>
      <point x="67" y="374" smooth="yes"/>
      <point x="67" y="301" type="curve" smooth="yes"/>
      <point x="67" y="227"/>
      <point x="75" y="176"/>
      <point x="104" y="142" type="curve"/>
      <point x="32" y="70" type="line"/>
      <point x="56" y="46" type="line"/>
      <point x="131" y="121" type="line"/>
      <point x="164" y="101" smooth="yes"/>
      <point x="214" y="92" smooth="yes"/>
      <point x="287" y="92" type="curve" smooth="yes"/>
      <point x="360" y="92"/>
      <point x="409" y="101"/>
      <point x="443" y="121" type="curve"/>
      <point x="518" y="46" type="line"/>
      <point x="542" y="70" type="line"/>
      <point x="469" y="142" type="line"/>
      <point x="498" y="176" smooth="yes"/>
      <point x="507" y="227" smooth="yes"/>
      <point x="507" y="301" type="curve" smooth="yes"/>
      <point x="507" y="374"/>
      <point x="498" y="426"/>
      <point x="469" y="459" type="curve"/>
      <point x="542" y="532" type="line"/>
      <point x="518" y="556" type="line"/>
      <point x="443" y="481" type="line"/>
      <point x="409" y="501" smooth="yes"/>
      <point x="360" y="510" smooth="yes"/>
      <point x="287" y="510" type="curve" smooth="yes"/>
      <point x="214" y="510"/>
      <point x="164" y="501"/>
      <point x="131" y="481" type="curve"/>
    </contour>
    <contour>
      <point x="287" y="387" type="curve" smooth="yes"/>
      <point x="358" y="387" smooth="yes"/>
      <point x="371" y="380" smooth="yes"/>
      <point x="371" y="301" type="curve" smooth="yes"/>
      <point x="371" y="218" smooth="yes"/>
      <point x="358" y="215" smooth="yes"/>
      <point x="287" y="215" type="curve" smooth="yes"/>
      <point x="216" y="215" smooth="yes"/>
      <point x="203" y="218" smooth="yes"/>
      <point x="203" y="301" type="curve" smooth="yes"/>
      <point x="203" y="380" smooth="yes"/>
      <point x="216" y="387" smooth="yes"/>
    </contour>
  </outline>
</glyph>
<glyph name="yen" format="1">
  <advance width="567"/>
  <unicode hex="00A5"/>
  <outline>
    <contour>
      <point x="470" y="0" type="line" name="hr00"/>
      <point x="470" y="33" type="line"/>
      <point x="385" y="33" type="line"/>
      <point x="385" y="204" type="line"/>
      <point x="524" y="204" type="line"/>
      <point x="524" y="237" type="line"/>
      <point x="396" y="237" type="line"/>
      <point x="412" y="277" type="line"/>
      <point x="524" y="277" type="line"/>
      <point x="524" y="310" type="line"/>
      <point x="426" y="310" type="line"/>
      <point x="546" y="600" type="line"/>
      <point x="301" y="600" type="line"/>
      <point x="362" y="310" type="line"/>
      <point x="286" y="310" type="line"/>
      <point x="225" y="600" type="line"/>
      <point x="21" y="600" type="line"/>
      <point x="141" y="310" type="line"/>
      <point x="43" y="310" type="line"/>
      <point x="43" y="277" type="line"/>
      <point x="154" y="277" type="line"/>
      <point x="171" y="237" type="line"/>
      <point x="43" y="237" type="line"/>
      <point x="43" y="204" type="line"/>
      <point x="182" y="204" type="line"/>
      <point x="182" y="33" type="line"/>
      <point x="97" y="33" type="line"/>
      <point x="97" y="0" type="line"/>
    </contour>
  </outline>
</glyph>
<glyph name="brokenbar" format="1">
  <advance width="254"/>
  <unicode hex="00A6"/>
  <outline>
    <contour>
      <point x="100" y="-50" type="line" name="hr00"/>
      <point x="154" y="-50" type="line"/>
      <point x="154" y="229" type="line"/>
      <point x="100" y="229" type="line"/>
    </contour>
    <contour>
      <point x="100" y="405" type="line"/>
      <point x="154" y="405" type="line"/>
      <point x="154" y="684" type="line"/>
      <point x="100" y="684" type="line"/>
    </contour>
  </outline>
</glyph>
<glyph name="section" format="1">
  <advance width="597"/>
  <unicode hex="00A7"/>
  <outline>
    <contour>
      <point x="465" y="271" type="line"/>
      <point x="465" y="308" type="line"/>
      <point x="342" y="308" type="line" name="hr01"/>
      <point x="342" y="577" type="line"/>
      <point x="422" y="577" type="line"/>
      <point x="422" y="430" type="line"/>
      <point x="516" y="430" type="line"/>
      <point x="567" y="616" type="line"/>
      <point x="521" y="632" smooth="yes"/>
      <point x="441" y="650" smooth="yes"/>
      <point x="366" y="650" type="curve" smooth="yes"/>
      <point x="253" y="650" smooth="yes"/>
      <point x="132" y="650" smooth="yes"/>
      <point x="132" y="368" type="curve" smooth="yes" name="hr02"/>
      <point x="132" y="271" type="line"/>
    </contour>
    <contour>
      <point x="132" y="214" type="line" name="hr03"/>
      <point x="132" y="177" type="line"/>
      <point x="255" y="177" type="line" name="hr04"/>
      <point x="255" y="-92" type="line"/>
      <point x="175" y="-92" type="line"/>
      <point x="175" y="55" type="line"/>
      <point x="81" y="55" type="line"/>
      <point x="30" y="-131" type="line"/>
      <point x="76" y="-147" smooth="yes"/>
      <point x="156" y="-165" smooth="yes"/>
      <point x="231" y="-165" type="curve" smooth="yes"/>
      <point x="344" y="-165" smooth="yes"/>
      <point x="465" y="-165" smooth="yes"/>
      <point x="465" y="117" type="curve" smooth="yes" name="hr05"/>
      <point x="465" y="214" type="line"/>
    </contour>
  </outline>
</glyph>
<glyph name="dieresis" format="1">
  <advance width="432"/>
  <unicode hex="00A8"/>
  <outline>
    <contour>
      <point x="184" y="682" type="curve" smooth="yes" name="hr00"/>
      <point x="184" y="757" smooth="yes"/>
      <point x="172" y="765" smooth="yes"/>
      <point x="121" y="765" type="curve" smooth="yes"/>
      <point x="63" y="765" smooth="yes"/>
      <point x="50" y="757" smooth="yes"/>
      <point x="50" y="682" type="curve" smooth="yes"/>
      <point x="50" y="607" smooth="yes"/>
      <point x="63" y="599" smooth="yes"/>
      <point x="121" y="599" type="curve" smooth="yes"/>
      <point x="172" y="599" smooth="yes"/>
      <point x="184" y="607" smooth="yes"/>
    </contour>
    <contour>
      <point x="382" y="682" type="curve" smooth="yes"/>
      <point x="382" y="757" smooth="yes"/>
      <point x="370" y="765" smooth="yes"/>
      <point x="319" y="765" type="curve" smooth="yes"/>
      <point x="261" y="765" smooth="yes"/>
      <point x="248" y="757" smooth="yes"/>
      <point x="248" y="682" type="curve" smooth="yes"/>
      <point x="248" y="607" smooth="yes"/>
      <point x="261" y="599" smooth="yes"/>
      <point x="319" y="599" type="curve" smooth="yes"/>
      <point x="370" y="599" smooth="yes"/>
      <point x="382" y="607" smooth="yes"/>
    </contour>
  </outline>
</glyph>
<glyph name="copyright" format="1">
  <advance width="528"/>
  <unicode hex="00A9"/>
  <outline>
    <contour>
      <point x="508" y="465" type="curve" smooth="yes"/>
      <point x="508" y="681" smooth="yes"/>
      <point x="441" y="723" smooth="yes"/>
      <point x="264" y="723" type="curve" smooth="yes"/>
      <point x="85" y="723" smooth="yes"/>
      <point x="20" y="681" smooth="yes"/>
      <point x="20" y="465" type="curve" smooth="yes"/>
      <point x="20" y="251" smooth="yes"/>
      <point x="85" y="208" smooth="yes"/>
      <point x="264" y="208" type="curve" smooth="yes"/>
      <point x="441" y="208" smooth="yes"/>
      <point x="508" y="251" smooth="yes"/>
    </contour>
    <contour>
      <point x="284" y="322" type="line"/>
      <point x="237" y="322" type="line"/>
      <point x="237" y="609" type="line"/>
      <point x="284" y="609" type="line"/>
      <point x="284" y="487" type="line" name="hr01"/>
      <point x="415" y="487" type="line"/>
      <point x="415" y="497" type="line" smooth="yes"/>
      <point x="415" y="648" smooth="yes"/>
      <point x="348" y="648" smooth="yes"/>
      <point x="273" y="648" type="curve" smooth="yes"/>
      <point x="191" y="648" smooth="yes"/>
      <point x="116" y="648" smooth="yes"/>
      <point x="116" y="497" type="curve" smooth="yes"/>
      <point x="116" y="435" type="line" smooth="yes"/>
      <point x="116" y="283" smooth="yes"/>
      <point x="183" y="283" smooth="yes"/>
      <point x="258" y="283" type="curve" smooth="yes"/>
      <point x="341" y="283" smooth="yes"/>
      <point x="415" y="283" smooth="yes"/>
      <point x="415" y="435" type="curve" smooth="yes"/>
      <point x="415" y="440" type="line" name="hr02"/>
      <point x="284" y="440" type="line"/>
    </contour>
    <contour>
      <point x="473" y="465" type="curve" smooth="yes"/>
      <point x="473" y="280" smooth="yes"/>
      <point x="424" y="241" smooth="yes"/>
      <point x="264" y="241" type="curve" smooth="yes"/>
      <point x="103" y="241" smooth="yes"/>
      <point x="55" y="280" smooth="yes"/>
      <point x="55" y="465" type="curve" smooth="yes"/>
      <point x="55" y="652" smooth="yes"/>
      <point x="103" y="690" smooth="yes"/>
      <point x="264" y="690" type="curve" smooth="yes"/>
      <point x="424" y="690" smooth="yes"/>
      <point x="473" y="652" smooth="yes"/>
    </contour>
  </outline>
</glyph>
<glyph name="ordfeminine" format="1">
  <advance width="367"/>
  <unicode hex="00AA"/>
  <outline>
    <contour>
      <point x="133" y="536" type="line" smooth="yes"/>
      <point x="71" y="536" smooth="yes"/>
      <point x="31" y="524" smooth="yes"/>
      <point x="31" y="439" type="curve" smooth="yes"/>
      <point x="31" y="341" smooth="yes"/>
      <point x="78" y="341" smooth="yes"/>
      <point x="133" y="341" type="curve" smooth="yes"/>
      <point x="175" y="341"/>
      <point x="232" y="357"/>
      <point x="232" y="403" type="curve"/>
      <point x="238" y="403" type="line"/>
      <point x="261" y="350" type="line"/>
      <point x="344" y="350" type="line"/>
      <point x="344" y="386" type="line"/>
      <point x="321" y="386" type="line" name="hr01"/>
      <point x="321" y="600" type="line" smooth="yes"/>
      <point x="321" y="684" smooth="yes"/>
      <point x="245" y="694" smooth="yes"/>
      <point x="178" y="694" type="curve" smooth="yes"/>
      <point x="133" y="694"/>
      <point x="84" y="684"/>
      <point x="40" y="676" type="curve"/>
      <point x="52" y="560" type="line"/>
      <point x="127" y="560" type="line"/>
      <point x="148" y="643" type="line" name="hr02"/>
      <point x="205" y="643" type="line"/>
      <point x="205" y="536" type="line"/>
    </contour>
    <contour>
      <point x="205" y="403" type="line"/>
      <point x="135" y="403" type="line"/>
      <point x="135" y="501" type="line"/>
      <point x="205" y="501" type="line"/>
    </contour>
  </outline>
</glyph>
<glyph name="guillemotleft" format="1">
  <advance width="488"/>
  <unicode hex="00AB"/>
  <outline>
    <contour>
      <point x="391" y="479" type="line" name="hr00"/>
      <point x="467" y="415" type="line"/>
      <point x="385" y="281" type="line"/>
      <point x="468" y="146" type="line"/>
      <point x="391" y="82" type="line"/>
      <point x="246" y="238" type="line"/>
      <point x="246" y="324" type="line"/>
    </contour>
    <contour>
      <point x="160" y="479" type="line"/>
      <point x="236" y="415" type="line"/>
      <point x="154" y="281" type="line"/>
      <point x="237" y="146" type="line"/>
      <point x="160" y="82" type="line"/>
      <point x="15" y="238" type="line"/>
      <point x="15" y="324" type="line"/>
    </contour>
  </outline>
</glyph>
<glyph name="logicalnot" format="1">
  <advance width="540"/>
  <unicode hex="00AC"/>
  <outline>
    <contour>
      <point x="480" y="121" type="line" name="hr00"/>
      <point x="480" y="363" type="line"/>
      <point x="399" y="363" type="line"/>
      <point x="399" y="121" type="line"/>
    </contour>
    <component  base="minus"/>
  </outline>
</glyph>
<glyph name="registered" format="1">
  <advance width="528"/>
  <unicode hex="00AE"/>
  <outline>
    <contour>
      <point x="508" y="465" type="curve" smooth="yes"/>
      <point x="508" y="681" smooth="yes"/>
      <point x="441" y="723" smooth="yes"/>
      <point x="264" y="723" type="curve" smooth="yes"/>
      <point x="85" y="723" smooth="yes"/>
      <point x="20" y="681" smooth="yes"/>
      <point x="20" y="465" type="curve" smooth="yes"/>
      <point x="20" y="251" smooth="yes"/>
      <point x="85" y="208" smooth="yes"/>
      <point x="264" y="208" type="curve" smooth="yes"/>
      <point x="441" y="208" smooth="yes"/>
      <point x="508" y="251" smooth="yes"/>
    </contour>
    <contour>
      <point x="245" y="291" type="line"/>
      <point x="245" y="405" type="line" name="hr01"/>
      <point x="292" y="405" type="line"/>
      <point x="292" y="291" type="line" name="hr02"/>
      <point x="415" y="291" type="line"/>
      <point x="404" y="398" type="line" smooth="yes"/>
      <point x="401" y="424" smooth="yes"/>
      <point x="394" y="431" smooth="yes"/>
      <point x="368" y="431" type="curve" smooth="yes"/>
      <point x="344" y="431" type="line"/>
      <point x="344" y="438" type="line"/>
      <point x="391" y="444" smooth="yes"/>
      <point x="425" y="459" smooth="yes"/>
      <point x="425" y="531" type="curve" smooth="yes"/>
      <point x="425" y="640" smooth="yes"/>
      <point x="353" y="640" smooth="yes"/>
      <point x="273" y="640" type="curve" smooth="yes"/>
      <point x="124" y="640" type="line"/>
      <point x="124" y="291" type="line"/>
    </contour>
    <contour>
      <point x="292" y="436" type="line"/>
      <point x="245" y="436" type="line"/>
      <point x="245" y="602" type="line"/>
      <point x="292" y="602" type="line"/>
    </contour>
    <contour>
      <point x="473" y="465" type="curve" smooth="yes"/>
      <point x="473" y="280" smooth="yes"/>
      <point x="424" y="241" smooth="yes"/>
      <point x="264" y="241" type="curve" smooth="yes"/>
      <point x="103" y="241" smooth="yes"/>
      <point x="55" y="280" smooth="yes"/>
      <point x="55" y="465" type="curve" smooth="yes"/>
      <point x="55" y="652" smooth="yes"/>
      <point x="103" y="690" smooth="yes"/>
      <point x="264" y="690" type="curve" smooth="yes"/>
      <point x="424" y="690" smooth="yes"/>
      <point x="473" y="652" smooth="yes"/>
    </contour>
  </outline>
</glyph>
<glyph name="macron" format="1">
  <advance width="372"/>
  <unicode hex="00AF"/>
  <outline>
    <contour>
      <point x="40" y="610" type="line" name="hr00"/>
      <point x="332" y="610" type="line"/>
      <point x="332" y="734" type="line"/>
      <point x="40" y="734" type="line"/>
    </contour>
  </outline>
</glyph>
<glyph name="degree" format="1">
  <advance width="364"/>
  <unicode hex="00B0"/>
  <outline>
    <contour>
      <point x="182" y="711" type="curve" smooth="yes" name="hr00"/>
      <point x="59" y="711" smooth="yes"/>
      <point x="35" y="673" smooth="yes"/>
      <point x="35" y="571" type="curve" smooth="yes"/>
      <point x="35" y="469" smooth="yes"/>
      <point x="59" y="431" smooth="yes"/>
      <point x="182" y="431" type="curve" smooth="yes"/>
      <point x="305" y="431" smooth="yes"/>
      <point x="329" y="469" smooth="yes"/>
      <point x="329" y="571" type="curve" smooth="yes"/>
      <point x="329" y="673" smooth="yes"/>
      <point x="305" y="711" smooth="yes"/>
    </contour>
    <contour>
      <point x="182" y="629" type="curve"/>
      <point x="230" y="629" smooth="yes"/>
      <point x="238" y="624" smooth="yes"/>
      <point x="238" y="571" type="curve" smooth="yes"/>
      <point x="238" y="516" smooth="yes"/>
      <point x="230" y="513" smooth="yes"/>
      <point x="182" y="513" type="curve" smooth="yes"/>
      <point x="134" y="513" smooth="yes"/>
      <point x="126" y="516" smooth="yes"/>
      <point x="126" y="571" type="curve" smooth="yes"/>
      <point x="126" y="624" smooth="yes"/>
      <point x="134" y="629" smooth="yes"/>
    </contour>
  </outline>
</glyph>
<glyph name="acute" format="1">
  <advance width="311"/>
  <unicode hex="00B4"/>
  <outline>
    <contour>
      <point x="51" y="678" type="line" name="hr00"/>
      <point x="84" y="586" type="line"/>
      <point x="311" y="645" type="line"/>
      <point x="262" y="780" type="line"/>
    </contour>
  </outline>
</glyph>
<glyph name="mu" format="1">
  <advance width="692"/>
  <unicode hex="00B5"/>
  <outline>
    <contour>
      <point x="80" y="-180" type="line"/>
      <point x="220" y="-180" type="line"/>
      <point x="250" y="-13" type="line"/>
      <point x="272" y="-15" smooth="yes"/>
      <point x="294" y="-15" smooth="yes"/>
      <point x="316" y="-15" type="curve" smooth="yes"/>
      <point x="410" y="-15"/>
      <point x="471" y="0"/>
      <point x="471" y="76" type="curve"/>
      <point x="484" y="76" type="line"/>
      <point x="524" y="0" type="line" name="hr01"/>
      <point x="607" y="0" type="line"/>
      <point x="607" y="550" type="line"/>
      <point x="417" y="550" type="line"/>
      <point x="417" y="76" type="line" name="hr02"/>
      <point x="270" y="76" type="line"/>
      <point x="270" y="550" type="line"/>
      <point x="80" y="550" type="line"/>
    </contour>
  </outline>
</glyph>
<glyph name="paragraph" format="1">
  <advance width="610"/>
  <unicode hex="00B6"/>
  <outline>
    <contour>
      <point x="530" y="424" type="line" smooth="yes" name="hr00"/>
      <point x="530" y="630" smooth="yes"/>
      <point x="437" y="650" smooth="yes"/>
      <point x="305" y="650" type="curve" smooth="yes"/>
      <point x="159" y="650" smooth="yes"/>
      <point x="50" y="630" smooth="yes"/>
      <point x="50" y="424" type="curve" smooth="yes"/>
      <point x="50" y="250"/>
      <point x="105" y="213"/>
      <point x="212" y="207" type="curve"/>
      <point x="212" y="0" type="line"/>
      <point x="250" y="0" type="line"/>
      <point x="250" y="585" type="line"/>
      <point x="330" y="585" type="line"/>
      <point x="330" y="86" type="line" smooth="yes"/>
      <point x="330" y="-165"/>
      <point x="408" y="-165"/>
      <point x="530" y="-165" type="curve"/>
    </contour>
  </outline>
</glyph>
<glyph name="cedilla" format="1">
  <advance width="249"/>
  <unicode hex="00B8"/>
  <outline>
    <contour>
      <point x="236" y="-76" type="curve" smooth="yes" name="hr00"/>
      <point x="236" y="-4"/>
      <point x="176" y="6"/>
      <point x="133" y="6" type="curve"/>
      <point x="133" y="-104" type="line"/>
      <point x="106" y="-104" type="line"/>
      <point x="72" y="-52" type="line"/>
      <point x="20" y="-52" type="line"/>
      <point x="13" y="-149" type="line"/>
      <point x="42" y="-157" smooth="yes"/>
      <point x="82" y="-165" smooth="yes"/>
      <point x="125" y="-165" type="curve" smooth="yes"/>
      <point x="177" y="-165" smooth="yes"/>
      <point x="236" y="-146" smooth="yes"/>
    </contour>
  </outline>
</glyph>
<glyph name="ordmasculine" format="1">
  <advance width="362"/>
  <unicode hex="00BA"/>
  <outline>
    <contour>
      <point x="332" y="540" type="line" smooth="yes" name="hr00"/>
      <point x="332" y="694" smooth="yes"/>
      <point x="264" y="694" smooth="yes"/>
      <point x="189" y="694" type="curve" smooth="yes"/>
      <point x="105" y="694" smooth="yes"/>
      <point x="30" y="694" smooth="yes"/>
      <point x="30" y="540" type="curve" smooth="yes"/>
      <point x="30" y="495" type="line" smooth="yes"/>
      <point x="30" y="341" smooth="yes"/>
      <point x="98" y="341" smooth="yes"/>
      <point x="173" y="341" type="curve" smooth="yes"/>
      <point x="258" y="341" smooth="yes"/>
      <point x="332" y="341" smooth="yes"/>
      <point x="332" y="495" type="curve" smooth="yes"/>
    </contour>
    <contour>
      <point x="216" y="393" type="line"/>
      <point x="146" y="393" type="line"/>
      <point x="146" y="643" type="line"/>
      <point x="216" y="643" type="line"/>
    </contour>
  </outline>
</glyph>
<glyph name="guillemotright" format="1">
  <advance width="488"/>
  <unicode hex="00BB"/>
  <outline>
    <contour>
      <point x="242" y="324" type="line" name="hr00"/>
      <point x="242" y="238" type="line"/>
      <point x="97" y="82" type="line"/>
      <point x="20" y="146" type="line"/>
      <point x="103" y="281" type="line"/>
      <point x="21" y="415" type="line"/>
      <point x="97" y="479" type="line"/>
    </contour>
    <contour>
      <point x="473" y="324" type="line"/>
      <point x="473" y="238" type="line"/>
      <point x="328" y="82" type="line"/>
      <point x="251" y="146" type="line"/>
      <point x="334" y="281" type="line"/>
      <point x="252" y="415" type="line"/>
      <point x="328" y="479" type="line"/>
    </contour>
  </outline>
</glyph>
<glyph name="questiondown" format="1">
  <advance width="461"/>
  <unicode hex="00BF"/>
  <outline>
    <contour>
      <point x="28" y="121" type="curve" smooth="yes" name="hr00"/>
      <point x="28" y="-40" smooth="yes"/>
      <point x="100" y="-100" smooth="yes"/>
      <point x="249" y="-100" type="curve" smooth="yes"/>
      <point x="319" y="-100"/>
      <point x="386" y="-88"/>
      <point x="454" y="-70" type="curve"/>
      <point x="437" y="152" type="line"/>
      <point x="359" y="152" type="line"/>
      <point x="260" y="-25" type="line"/>
      <point x="170" y="-25" type="line"/>
      <point x="341" y="280" type="line"/>
      <point x="341" y="321" type="line"/>
      <point x="306" y="332" smooth="yes"/>
      <point x="247" y="339" smooth="yes"/>
      <point x="212" y="339" type="curve" smooth="yes"/>
      <point x="126" y="339" smooth="yes"/>
      <point x="28" y="294" smooth="yes"/>
    </contour>
    <contour>
      <point x="151" y="482" type="curve" smooth="yes"/>
      <point x="151" y="408" smooth="yes"/>
      <point x="169" y="399" smooth="yes"/>
      <point x="249" y="399" type="curve" smooth="yes"/>
      <point x="340" y="399" smooth="yes"/>
      <point x="360" y="408" smooth="yes"/>
      <point x="360" y="482" type="curve" smooth="yes"/>
      <point x="360" y="557" smooth="yes"/>
      <point x="340" y="565" smooth="yes"/>
      <point x="250" y="565" type="curve" smooth="yes"/>
      <point x="170" y="565" smooth="yes"/>
      <point x="151" y="557" smooth="yes"/>
    </contour>
  </outline>
</glyph>
<glyph name="AE" format="1">
  <advance width="886"/>
  <unicode hex="00C6"/>
  <outline>
    <contour>
      <point x="141" y="597" type="line"/>
      <point x="197" y="597" type="line"/>
      <point x="22" y="38" type="line"/>
      <point x="-25" y="38" type="line"/>
      <point x="-25" y="0" type="line"/>
      <point x="196" y="0" type="line"/>
      <point x="245" y="284" type="line"/>
      <point x="389" y="284" type="line"/>
      <point x="389" y="38" type="line"/>
      <point x="345" y="38" type="line"/>
      <point x="345" y="0" type="line"/>
      <point x="851" y="0" type="line"/>
      <point x="851" y="214" type="line"/>
      <point x="734" y="214" type="line"/>
      <point x="693" y="60" type="line" name="hr01"/>
      <point x="604" y="60" type="line"/>
      <point x="604" y="284" type="line"/>
      <point x="795" y="284" type="line"/>
      <point x="795" y="339" type="line"/>
      <point x="604" y="339" type="line"/>
      <point x="604" y="575" type="line"/>
      <point x="693" y="575" type="line"/>
      <point x="734" y="421" type="line"/>
      <point x="851" y="421" type="line"/>
      <point x="851" y="635" type="line" name="hr02"/>
      <point x="141" y="635" type="line"/>
    </contour>
    <contour>
      <point x="296" y="575" type="line" name="hr03"/>
      <point x="389" y="575" type="line"/>
      <point x="389" y="339" type="line"/>
      <point x="255" y="339" type="line"/>
    </contour>
  </outline>
</glyph>
<glyph name="Eth" format="1">
  <advance width="674"/>
  <unicode hex="00D0"/>
  <outline>
    <contour>
      <point x="27" y="286" type="line"/>
      <point x="363" y="286" type="line"/>
      <point x="363" y="348" type="line"/>
      <point x="27" y="348" type="line"/>
    </contour>
    <contour>
      <point x="27" y="286" type="line"/>
      <point x="363" y="286" type="line"/>
      <point x="363" y="348" type="line"/>
      <point x="27" y="348" type="line"/>
    </contour>
    <component  base="D"/>
    <component  base="barra" xOffset="26"/>
  </outline>
</glyph>
<glyph name="multiply" format="1">
  <advance width="540"/>
  <unicode hex="00D7"/>
  <outline>
    <contour>
      <point x="145" y="119" type="line" name="hr00"/>
      <point x="270" y="244" type="line"/>
      <point x="395" y="119" type="line"/>
      <point x="463" y="187" type="line"/>
      <point x="338" y="312" type="line"/>
      <point x="463" y="437" type="line"/>
      <point x="395" y="505" type="line"/>
      <point x="270" y="380" type="line"/>
      <point x="145" y="505" type="line"/>
      <point x="77" y="437" type="line"/>
      <point x="202" y="312" type="line"/>
      <point x="77" y="187" type="line"/>
    </contour>
  </outline>
</glyph>
<glyph name="Thorn" format="1">
  <advance width="669"/>
  <unicode hex="00DE"/>
  <outline>
    <contour>
      <point x="654" y="339" type="curve" smooth="yes" name="hr00"/>
      <point x="654" y="583" smooth="yes"/>
      <point x="526" y="584" smooth="yes"/>
      <point x="382" y="584" type="curve" smooth="yes"/>
      <point x="289" y="584" type="line"/>
      <point x="289" y="635" type="line"/>
      <point x="30" y="635" type="line"/>
      <point x="30" y="597" type="line"/>
      <point x="74" y="597" type="line"/>
      <point x="74" y="38" type="line"/>
      <point x="30" y="38" type="line"/>
      <point x="30" y="0" type="line"/>
      <point x="333" y="0" type="line"/>
      <point x="333" y="38" type="line"/>
      <point x="289" y="38" type="line"/>
      <point x="289" y="92" type="line"/>
      <point x="379" y="92" type="line" smooth="yes"/>
      <point x="524" y="92" smooth="yes"/>
      <point x="654" y="93" smooth="yes"/>
    </contour>
    <contour>
      <point x="439" y="164" type="line"/>
      <point x="289" y="164" type="line"/>
      <point x="289" y="514" type="line"/>
      <point x="439" y="514" type="line"/>
    </contour>
  </outline>
</glyph>
<glyph name="germandbls" format="1">
  <advance width="651"/>
  <unicode hex="00DF"/>
  <outline>
    <contour>
      <point x="45" y="444" type="line"/>
      <point x="85" y="444" type="line"/>
      <point x="85" y="38" type="line"/>
      <point x="45" y="38" type="line"/>
      <point x="45" y="0" type="line"/>
      <point x="275" y="0" type="line"/>
      <point x="275" y="663" type="line"/>
      <point x="423" y="663" type="line"/>
      <point x="423" y="595" type="line" smooth="yes"/>
      <point x="423" y="505"/>
      <point x="420" y="431"/>
      <point x="326" y="396" type="curve"/>
      <point x="326" y="313" type="line"/>
      <point x="423" y="313" type="line"/>
      <point x="423" y="50" type="line" name="hr01"/>
      <point x="326" y="50" type="line"/>
      <point x="326" y="-11" type="line"/>
      <point x="352" y="-14" smooth="yes"/>
      <point x="378" y="-15" smooth="yes"/>
      <point x="404" y="-15" type="curve" smooth="yes"/>
      <point x="581" y="-15" smooth="yes"/>
      <point x="631" y="71" smooth="yes"/>
      <point x="631" y="179" type="curve" smooth="yes"/>
      <point x="631" y="282"/>
      <point x="558" y="361"/>
      <point x="482" y="372" type="curve"/>
      <point x="482" y="379" type="line"/>
      <point x="553" y="403" smooth="yes"/>
      <point x="589" y="454" smooth="yes"/>
      <point x="589" y="550" type="curve" smooth="yes" name="hr02"/>
      <point x="589" y="695" smooth="yes"/>
      <point x="467" y="744" smooth="yes"/>
      <point x="352" y="744" type="curve" smooth="yes"/>
      <point x="183" y="744" smooth="yes"/>
      <point x="85" y="692" smooth="yes"/>
      <point x="85" y="540" type="curve" smooth="yes"/>
      <point x="85" y="492" type="line"/>
      <point x="45" y="492" type="line"/>
    </contour>
  </outline>
</glyph>
<glyph name="ae" format="1">
  <advance width="891"/>
  <unicode hex="00E6"/>
  <outline>
    <contour>
      <point x="538" y="60" type="line"/>
      <point x="538" y="235" type="line"/>
      <point x="619" y="235" type="line" smooth="yes"/>
      <point x="732" y="235" smooth="yes"/>
      <point x="831" y="235" smooth="yes"/>
      <point x="831" y="400" type="curve" smooth="yes"/>
      <point x="831" y="565" smooth="yes"/>
      <point x="732" y="565" smooth="yes"/>
      <point x="619" y="565" type="curve" smooth="yes"/>
      <point x="548" y="565"/>
      <point x="489" y="565"/>
      <point x="449" y="532" type="curve"/>
      <point x="410" y="560" smooth="yes"/>
      <point x="353" y="565" smooth="yes"/>
      <point x="295" y="565" type="curve" smooth="yes"/>
      <point x="226" y="565"/>
      <point x="136" y="553"/>
      <point x="68" y="535" type="curve"/>
      <point x="92" y="379" type="line"/>
      <point x="207" y="379" type="line"/>
      <point x="234" y="490" type="line"/>
      <point x="348" y="490" type="line"/>
      <point x="348" y="315" type="line"/>
      <point x="247" y="315" type="line" smooth="yes"/>
      <point x="135" y="315" smooth="yes"/>
      <point x="35" y="296" smooth="yes"/>
      <point x="35" y="150" type="curve" smooth="yes"/>
      <point x="35" y="-15" smooth="yes"/>
      <point x="154" y="-15" smooth="yes"/>
      <point x="255" y="-15" type="curve" smooth="yes"/>
      <point x="343" y="-15"/>
      <point x="374" y="-4"/>
      <point x="402" y="76" type="curve"/>
      <point x="414" y="76" type="line"/>
      <point x="442" y="-7" smooth="yes"/>
      <point x="508" y="-15" smooth="yes"/>
      <point x="594" y="-15" type="curve" smooth="yes"/>
      <point x="663" y="-15"/>
      <point x="752" y="-2"/>
      <point x="819" y="15" type="curve"/>
      <point x="796" y="171" type="line"/>
      <point x="689" y="171" type="line"/>
      <point x="663" y="60" type="line" name="hr01"/>
    </contour>
    <contour>
      <point x="538" y="490" type="line"/>
      <point x="675" y="490" type="line"/>
      <point x="675" y="310" type="line"/>
      <point x="538" y="310" type="line"/>
    </contour>
    <contour>
      <point x="348" y="76" type="line" name="hr02"/>
      <point x="211" y="76" type="line"/>
      <point x="211" y="240" type="line"/>
      <point x="348" y="240" type="line"/>
    </contour>
  </outline>
</glyph>
<glyph name="eth" format="1">
  <advance width="647"/>
  <unicode hex="00F0"/>
  <outline>
    <contour>
      <point x="169" y="703" type="curve" name="hr00"/>
      <point x="191" y="599" type="line"/>
      <point x="243" y="627"/>
      <point x="355" y="649"/>
      <point x="397" y="649" type="curve"/>
      <point x="397" y="599" type="line"/>
      <point x="302" y="558" type="line"/>
      <point x="302" y="486" type="line"/>
      <point x="397" y="527" type="line"/>
      <point x="397" y="444" type="line"/>
      <point x="377" y="445" smooth="yes"/>
      <point x="357" y="445" smooth="yes"/>
      <point x="337" y="445" type="curve" smooth="yes"/>
      <point x="191" y="445" smooth="yes"/>
      <point x="60" y="445" smooth="yes"/>
      <point x="60" y="223" type="curve" smooth="yes"/>
      <point x="60" y="207" type="line" smooth="yes"/>
      <point x="60" y="-15" smooth="yes"/>
      <point x="178" y="-15" smooth="yes"/>
      <point x="310" y="-15" type="curve" smooth="yes"/>
      <point x="456" y="-15" smooth="yes"/>
      <point x="587" y="-15" smooth="yes"/>
      <point x="587" y="207" type="curve" smooth="yes"/>
      <point x="587" y="413" type="line" smooth="yes"/>
      <point x="587" y="486"/>
      <point x="582" y="550"/>
      <point x="565" y="601" type="curve"/>
      <point x="647" y="637" type="line"/>
      <point x="647" y="709" type="line"/>
      <point x="538" y="661" type="line"/>
      <point x="504" y="711" smooth="yes"/>
      <point x="448" y="740" smooth="yes"/>
      <point x="358" y="740" type="curve" smooth="yes"/>
      <point x="305" y="740"/>
      <point x="237" y="729"/>
    </contour>
    <contour>
      <point x="397" y="60" type="line"/>
      <point x="250" y="60" type="line"/>
      <point x="250" y="370" type="line"/>
      <point x="397" y="370" type="line"/>
    </contour>
  </outline>
</glyph>
<glyph name="thorn" format="1">
  <advance width="668"/>
  <unicode hex="00FE"/>
  <outline>
    <contour>
      <point x="325" y="-180" type="line"/>
      <point x="325" y="-142" type="line"/>
      <point x="270" y="-142" type="line"/>
      <point x="270" y="-9" type="line"/>
      <point x="293" y="-12" smooth="yes"/>
      <point x="316" y="-15" smooth="yes"/>
      <point x="338" y="-15" type="curve" smooth="yes"/>
      <point x="475" y="-15" smooth="yes"/>
      <point x="607" y="-15" smooth="yes"/>
      <point x="607" y="236" type="curve" smooth="yes"/>
      <point x="607" y="304" type="line" smooth="yes"/>
      <point x="607" y="555" smooth="yes"/>
      <point x="496" y="555" smooth="yes"/>
      <point x="373" y="555" type="curve" smooth="yes"/>
      <point x="303" y="555"/>
      <point x="251" y="544"/>
      <point x="221" y="464" type="curve"/>
      <point x="203" y="464" type="line" name="hr01"/>
      <point x="203" y="550" type="line" smooth="yes"/>
      <point x="203" y="566" smooth="yes"/>
      <point x="205" y="571" smooth="yes"/>
      <point x="229" y="580" type="curve" smooth="yes"/>
      <point x="270" y="595" type="line" name="hr02"/>
      <point x="270" y="729" type="line"/>
      <point x="40" y="729" type="line"/>
      <point x="40" y="691" type="line"/>
      <point x="80" y="691" type="line"/>
      <point x="80" y="-180" type="line"/>
    </contour>
    <contour>
      <point x="417" y="60" type="line"/>
      <point x="270" y="60" type="line"/>
      <point x="270" y="464" type="line"/>
      <point x="417" y="464" type="line"/>
    </contour>
  </outline>
</glyph>
<glyph name="dotlessi" format="1">
  <advance width="355"/>
  <unicode hex="0131"/>
  <outline>
    <contour>
      <point x="315" y="0" type="line" name="hr00"/>
      <point x="315" y="38" type="line"/>
      <point x="275" y="38" type="line"/>
      <point x="275" y="550" type="line"/>
      <point x="45" y="550" type="line"/>
      <point x="45" y="512" type="line"/>
      <point x="85" y="512" type="line"/>
      <point x="85" y="38" type="line"/>
      <point x="45" y="38" type="line"/>
      <point x="45" y="0" type="line"/>
    </contour>
  </outline>
</glyph>
<glyph name="kgreenlandic" format="1">
  <advance width="632"/>
  <unicode hex="0138"/>
  <outline>
    <contour>
      <point x="426" y="280" type="line" name="hr00"/>
      <point x="465" y="284" smooth="yes"/>
      <point x="493" y="298" smooth="yes"/>
      <point x="506" y="343" type="curve" smooth="yes"/>
      <point x="570" y="512" type="line"/>
      <point x="622" y="512" type="line"/>
      <point x="622" y="550" type="line"/>
      <point x="385" y="550" type="line"/>
      <point x="328" y="297" type="line"/>
      <point x="275" y="297" type="line"/>
      <point x="275" y="550" type="line"/>
      <point x="45" y="550" type="line"/>
      <point x="45" y="512" type="line"/>
      <point x="85" y="512" type="line"/>
      <point x="85" y="38" type="line"/>
      <point x="45" y="38" type="line"/>
      <point x="45" y="0" type="line"/>
      <point x="275" y="0" type="line"/>
      <point x="275" y="242" type="line"/>
      <point x="325" y="242" type="line"/>
      <point x="385" y="0" type="line"/>
      <point x="632" y="0" type="line"/>
      <point x="632" y="38" type="line"/>
      <point x="575" y="38" type="line"/>
      <point x="535" y="200" type="line" smooth="yes"/>
      <point x="526" y="245" smooth="yes"/>
      <point x="517" y="257" smooth="yes"/>
      <point x="471" y="257" type="curve" smooth="yes"/>
      <point x="426" y="257" type="line"/>
    </contour>
  </outline>
</glyph>
<glyph name="Lslash" format="1">
  <advance width="531"/>
  <unicode hex="0141"/>
  <outline>
    <contour>
      <point x="17" y="237" type="line" name="hr00"/>
      <point x="410" y="409" type="line"/>
      <point x="410" y="471" type="line"/>
      <point x="17" y="299" type="line"/>
    </contour>
    <component  base="L"/>
  </outline>
</glyph>
<glyph name="lslash" format="1">
  <advance width="355"/>
  <unicode hex="0142"/>
  <outline>
    <contour>
      <point x="5" y="257" type="line" name="hr00"/>
      <point x="350" y="408" type="line"/>
      <point x="350" y="470" type="line"/>
      <point x="5" y="319" type="line"/>
    </contour>
    <component  base="l"/>
  </outline>
</glyph>
<glyph name="Eng" format="1">
  <advance width="727"/>
  <unicode hex="014A"/>
  <outline>
    <contour>
      <point x="30" y="597" type="line"/>
      <point x="74" y="597" type="line"/>
      <point x="74" y="38" type="line"/>
      <point x="30" y="38" type="line"/>
      <point x="30" y="0" type="line"/>
      <point x="221" y="0" type="line"/>
      <point x="152" y="575" type="line" name="hr01"/>
      <point x="193" y="575" type="line"/>
      <point x="333" y="0" type="line"/>
      <point x="509" y="0" type="line" smooth="yes"/>
      <point x="525" y="0" smooth="yes"/>
      <point x="539" y="0" smooth="yes"/>
      <point x="539" y="-26" type="curve" smooth="yes"/>
      <point x="539" y="-79" type="line"/>
      <point x="411" y="-79" type="line"/>
      <point x="397" y="-187" type="line"/>
      <point x="425" y="-193" smooth="yes"/>
      <point x="453" y="-195" smooth="yes"/>
      <point x="481" y="-195" type="curve" smooth="yes"/>
      <point x="600" y="-195" smooth="yes"/>
      <point x="663" y="-146" smooth="yes"/>
      <point x="663" y="-29" type="curve" smooth="yes"/>
      <point x="663" y="597" type="line" name="hr02"/>
      <point x="707" y="597" type="line"/>
      <point x="707" y="635" type="line"/>
      <point x="516" y="635" type="line"/>
      <point x="597" y="109" type="line"/>
      <point x="556" y="109" type="line"/>
      <point x="415" y="635" type="line"/>
      <point x="30" y="635" type="line"/>
    </contour>
  </outline>
</glyph>
<glyph name="eng" format="1">
  <advance width="692"/>
  <unicode hex="014B"/>
  <outline>
    <contour>
      <point x="430" y="-195" type="curve" smooth="yes"/>
      <point x="549" y="-195" smooth="yes"/>
      <point x="612" y="-132" smooth="yes"/>
      <point x="612" y="20" type="curve" smooth="yes"/>
      <point x="612" y="415" type="line" smooth="yes"/>
      <point x="612" y="532" smooth="yes"/>
      <point x="536" y="565" smooth="yes"/>
      <point x="415" y="565" type="curve" smooth="yes"/>
      <point x="315" y="565"/>
      <point x="256" y="554"/>
      <point x="226" y="474" type="curve"/>
      <point x="213" y="474" type="line"/>
      <point x="178" y="550" type="line" name="hr01"/>
      <point x="45" y="550" type="line"/>
      <point x="45" y="512" type="line"/>
      <point x="85" y="512" type="line"/>
      <point x="85" y="38" type="line"/>
      <point x="45" y="38" type="line"/>
      <point x="45" y="0" type="line"/>
      <point x="275" y="0" type="line"/>
      <point x="275" y="474" type="line" name="hr02"/>
      <point x="422" y="474" type="line"/>
      <point x="422" y="49" type="line"/>
      <point x="458" y="49" type="line" smooth="yes"/>
      <point x="474" y="49" smooth="yes"/>
      <point x="488" y="49" smooth="yes"/>
      <point x="488" y="23" type="curve" smooth="yes" name="hr03"/>
      <point x="488" y="-30" type="line"/>
      <point x="366" y="-30" type="line"/>
      <point x="346" y="-187" type="line"/>
      <point x="374" y="-193" smooth="yes"/>
      <point x="402" y="-195" smooth="yes"/>
    </contour>
  </outline>
</glyph>
<glyph name="OE" format="1">
  <advance width="882"/>
  <unicode hex="0152"/>
  <outline>
    <contour>
      <point x="847" y="0" type="line" name="hr00"/>
      <point x="847" y="214" type="line"/>
      <point x="730" y="214" type="line"/>
      <point x="689" y="60" type="line"/>
      <point x="600" y="60" type="line"/>
      <point x="600" y="284" type="line"/>
      <point x="791" y="284" type="line"/>
      <point x="791" y="339" type="line"/>
      <point x="600" y="339" type="line"/>
      <point x="600" y="575" type="line"/>
      <point x="689" y="575" type="line"/>
      <point x="730" y="421" type="line"/>
      <point x="847" y="421" type="line"/>
      <point x="847" y="635" type="line"/>
      <point x="325" y="635" type="line" smooth="yes"/>
      <point x="165" y="635" smooth="yes"/>
      <point x="20" y="635" smooth="yes"/>
      <point x="20" y="374" type="curve" smooth="yes"/>
      <point x="20" y="262" type="line" smooth="yes"/>
      <point x="20" y="0" smooth="yes"/>
      <point x="150" y="0" smooth="yes"/>
      <point x="295" y="0" type="curve" smooth="yes"/>
    </contour>
    <contour>
      <point x="385" y="60" type="line"/>
      <point x="235" y="60" type="line"/>
      <point x="235" y="575" type="line"/>
      <point x="385" y="575" type="line"/>
    </contour>
  </outline>
</glyph>
<glyph name="oe" format="1">
  <advance width="930"/>
  <unicode hex="0153"/>
  <outline>
    <contour>
      <point x="587" y="60" type="line" name="hr00"/>
      <point x="587" y="235" type="line"/>
      <point x="668" y="235" type="line" smooth="yes"/>
      <point x="781" y="235" smooth="yes"/>
      <point x="880" y="235" smooth="yes"/>
      <point x="880" y="400" type="curve" smooth="yes"/>
      <point x="880" y="565" smooth="yes"/>
      <point x="781" y="565" smooth="yes"/>
      <point x="668" y="565" type="curve" smooth="yes"/>
      <point x="605" y="565"/>
      <point x="544" y="565"/>
      <point x="496" y="542" type="curve"/>
      <point x="452" y="565" smooth="yes"/>
      <point x="396" y="565" smooth="yes"/>
      <point x="337" y="565" type="curve" smooth="yes"/>
      <point x="191" y="565" smooth="yes"/>
      <point x="60" y="565" smooth="yes"/>
      <point x="60" y="314" type="curve" smooth="yes"/>
      <point x="60" y="236" type="line" smooth="yes"/>
      <point x="60" y="-15" smooth="yes"/>
      <point x="178" y="-15" smooth="yes"/>
      <point x="310" y="-15" type="curve" smooth="yes"/>
      <point x="376" y="-15"/>
      <point x="440" y="-15"/>
      <point x="489" y="9" type="curve"/>
      <point x="535" y="-12" smooth="yes"/>
      <point x="591" y="-15" smooth="yes"/>
      <point x="643" y="-15" type="curve" smooth="yes"/>
      <point x="712" y="-15"/>
      <point x="801" y="-2"/>
      <point x="868" y="15" type="curve"/>
      <point x="845" y="171" type="line"/>
      <point x="738" y="171" type="line"/>
      <point x="712" y="60" type="line"/>
    </contour>
    <contour>
      <point x="250" y="490" type="line"/>
      <point x="436" y="490" type="line"/>
      <point x="411" y="453" smooth="yes"/>
      <point x="397" y="397" smooth="yes"/>
      <point x="397" y="314" type="curve" smooth="yes"/>
      <point x="397" y="184" type="line" smooth="yes"/>
      <point x="397" y="129"/>
      <point x="408" y="89"/>
      <point x="428" y="60" type="curve"/>
      <point x="250" y="60" type="line"/>
    </contour>
    <contour>
      <point x="587" y="490" type="line"/>
      <point x="724" y="490" type="line"/>
      <point x="724" y="310" type="line"/>
      <point x="587" y="310" type="line"/>
    </contour>
  </outline>
</glyph>
<glyph name="florin" format="1">
  <advance width="575"/>
  <unicode hex="0192"/>
  <outline>
    <contour>
      <point x="423" y="277" type="line"/>
      <point x="423" y="310" type="line"/>
      <point x="300" y="310" type="line"/>
      <point x="300" y="550" type="line"/>
      <point x="387" y="550" type="line" name="hr01"/>
      <point x="387" y="419" type="line"/>
      <point x="471" y="419" type="line"/>
      <point x="516" y="585" type="line"/>
      <point x="475" y="599" smooth="yes"/>
      <point x="404" y="615" smooth="yes"/>
      <point x="337" y="615" type="curve" smooth="yes"/>
      <point x="236" y="615" smooth="yes"/>
      <point x="95" y="615" smooth="yes"/>
      <point x="95" y="364" type="curve" smooth="yes" name="hr02"/>
      <point x="95" y="310" type="line"/>
      <point x="41" y="310" type="line"/>
      <point x="41" y="277" type="line"/>
      <point x="95" y="277" type="line"/>
      <point x="95" y="-127" type="line"/>
      <point x="188" y="-127" smooth="yes"/>
      <point x="300" y="-127" smooth="yes"/>
      <point x="300" y="124" type="curve" smooth="yes"/>
      <point x="300" y="277" type="line"/>
    </contour>
  </outline>
</glyph>
<glyph name="dotlessj" format="1">
  <advance width="360"/>
  <unicode hex="0237"/>
  <outline>
    <contour>
      <point x="98" y="-195" type="curve" smooth="yes"/>
      <point x="217" y="-195" smooth="yes"/>
      <point x="280" y="-132" smooth="yes"/>
      <point x="280" y="20" type="curve" smooth="yes"/>
      <point x="280" y="550" type="line"/>
      <point x="50" y="550" type="line"/>
      <point x="50" y="512" type="line"/>
      <point x="90" y="512" type="line"/>
      <point x="90" y="49" type="line"/>
      <point x="126" y="49" type="line" smooth="yes"/>
      <point x="142" y="49" smooth="yes"/>
      <point x="156" y="49" smooth="yes"/>
      <point x="156" y="23" type="curve" smooth="yes" name="hr01"/>
      <point x="156" y="-30" type="line"/>
      <point x="34" y="-30" type="line"/>
      <point x="14" y="-187" type="line"/>
      <point x="42" y="-193" smooth="yes"/>
      <point x="70" y="-195" smooth="yes"/>
    </contour>
  </outline>
</glyph>
<glyph name="circumflex" format="1">
  <advance width="402"/>
  <unicode hex="02C6"/>
  <outline>
    <contour>
      <point x="249" y="787" type="line" name="hr00"/>
      <point x="153" y="787" type="line"/>
      <point x="35" y="657" type="line"/>
      <point x="94" y="586" type="line"/>
      <point x="201" y="662" type="line"/>
      <point x="308" y="586" type="line"/>
      <point x="367" y="657" type="line"/>
    </contour>
  </outline>
</glyph>
<glyph name="caron" format="1">
  <advance width="402"/>
  <unicode hex="02C7"/>
  <outline>
    <contour>
      <point x="367" y="717" type="line" name="hr00"/>
      <point x="308" y="788" type="line"/>
      <point x="201" y="712" type="line"/>
      <point x="94" y="788" type="line"/>
      <point x="35" y="717" type="line"/>
      <point x="153" y="587" type="line"/>
      <point x="249" y="587" type="line"/>
    </contour>
  </outline>
</glyph>
<glyph name="breve" format="1">
  <advance width="402"/>
  <unicode hex="02D8"/>
  <outline>
    <contour>
      <point x="199" y="710" type="curve" smooth="yes" name="hr00"/>
      <point x="162" y="710"/>
      <point x="111" y="727"/>
      <point x="79" y="749" type="curve"/>
      <point x="64" y="725"/>
      <point x="49" y="699"/>
      <point x="33" y="674" type="curve"/>
      <point x="70" y="617" smooth="yes"/>
      <point x="129" y="588" smooth="yes"/>
      <point x="199" y="588" type="curve" smooth="yes"/>
      <point x="269" y="588"/>
      <point x="328" y="617"/>
      <point x="365" y="674" type="curve"/>
      <point x="347" y="703"/>
      <point x="338" y="719"/>
      <point x="319" y="749" type="curve"/>
      <point x="287" y="727" smooth="yes"/>
      <point x="236" y="710" smooth="yes"/>
    </contour>
  </outline>
</glyph>
<glyph name="dotaccent" format="1">
  <advance width="304"/>
  <unicode hex="02D9"/>
  <outline>
    <contour>
      <point x="152" y="765" type="curve" smooth="yes" name="hr00"/>
      <point x="233" y="765" smooth="yes"/>
      <point x="249" y="742" smooth="yes"/>
      <point x="249" y="675" type="curve" smooth="yes"/>
      <point x="249" y="608" smooth="yes"/>
      <point x="233" y="584" smooth="yes"/>
      <point x="152" y="584" type="curve" smooth="yes"/>
      <point x="71" y="584" smooth="yes"/>
      <point x="55" y="608" smooth="yes"/>
      <point x="55" y="675" type="curve" smooth="yes"/>
      <point x="55" y="742" smooth="yes"/>
      <point x="71" y="765" smooth="yes"/>
    </contour>
  </outline>
</glyph>
<glyph name="ring" format="1">
  <advance width="364"/>
  <unicode hex="02DA"/>
  <outline>
    <contour>
      <point x="182" y="790" type="curve" smooth="yes" name="hr00"/>
      <point x="80" y="790" smooth="yes"/>
      <point x="60" y="759" smooth="yes"/>
      <point x="60" y="675" type="curve" smooth="yes"/>
      <point x="60" y="591" smooth="yes"/>
      <point x="80" y="560" smooth="yes"/>
      <point x="182" y="560" type="curve" smooth="yes"/>
      <point x="284" y="560" smooth="yes"/>
      <point x="304" y="591" smooth="yes"/>
      <point x="304" y="675" type="curve" smooth="yes"/>
      <point x="304" y="759" smooth="yes"/>
      <point x="284" y="790" smooth="yes"/>
    </contour>
    <contour>
      <point x="182" y="718" type="curve" smooth="yes"/>
      <point x="217" y="718" smooth="yes"/>
      <point x="223" y="714" smooth="yes"/>
      <point x="223" y="675" type="curve" smooth="yes"/>
      <point x="223" y="634" smooth="yes"/>
      <point x="217" y="632" smooth="yes"/>
      <point x="182" y="632" type="curve" smooth="yes"/>
      <point x="147" y="632" smooth="yes"/>
      <point x="141" y="634" smooth="yes"/>
      <point x="141" y="675" type="curve" smooth="yes"/>
      <point x="141" y="714" smooth="yes"/>
      <point x="147" y="718" smooth="yes"/>
    </contour>
  </outline>
</glyph>
<glyph name="ogonek" format="1">
  <advance width="249"/>
  <unicode hex="02DB"/>
  <outline>
    <contour>
      <point x="23" y="-87" type="curve" smooth="yes" name="hr00"/>
      <point x="23" y="-141" smooth="yes"/>
      <point x="63" y="-165" smooth="yes"/>
      <point x="115" y="-165" type="curve" smooth="yes"/>
      <point x="162" y="-165"/>
      <point x="214" y="-137"/>
      <point x="240" y="-110" type="curve"/>
      <point x="230" y="-53" type="line"/>
      <point x="214" y="-63" smooth="yes"/>
      <point x="189" y="-72" smooth="yes"/>
      <point x="168" y="-72" type="curve" smooth="yes"/>
      <point x="149" y="-72" smooth="yes"/>
      <point x="133" y="-61" smooth="yes"/>
      <point x="133" y="-40" type="curve" smooth="yes"/>
      <point x="133" y="-14"/>
      <point x="149" y="5"/>
      <point x="193" y="11" type="curve"/>
      <point x="193" y="38" type="line"/>
      <point x="85" y="22" smooth="yes"/>
      <point x="23" y="-17" smooth="yes"/>
    </contour>
  </outline>
</glyph>
<glyph name="tilde" format="1">
  <advance width="403"/>
  <unicode hex="02DC"/>
  <outline>
    <contour>
      <point x="378" y="741" type="line" name="hr00"/>
      <point x="305" y="755" type="line"/>
      <point x="277" y="703" type="line"/>
      <point x="265" y="703" type="line"/>
      <point x="239" y="742" smooth="yes"/>
      <point x="202" y="765" smooth="yes"/>
      <point x="152" y="765" type="curve" smooth="yes"/>
      <point x="95" y="765" smooth="yes"/>
      <point x="48" y="736" smooth="yes"/>
      <point x="35" y="663" type="curve" smooth="yes"/>
      <point x="25" y="606" type="line"/>
      <point x="97" y="593" type="line"/>
      <point x="125" y="644" type="line"/>
      <point x="137" y="644" type="line"/>
      <point x="163" y="606" smooth="yes"/>
      <point x="200" y="583" smooth="yes"/>
      <point x="249" y="583" type="curve" smooth="yes"/>
      <point x="307" y="583" smooth="yes"/>
      <point x="353" y="611" smooth="yes"/>
      <point x="367" y="684" type="curve" smooth="yes"/>
    </contour>
  </outline>
</glyph>
<glyph name="hungarumlaut" format="1">
  <advance width="495"/>
  <unicode hex="02DD"/>
  <outline>
    <contour>
      <point x="20" y="650" type="line" name="hr00"/>
      <point x="88" y="580" type="line"/>
      <point x="243" y="701" type="line"/>
      <point x="147" y="804" type="line"/>
    </contour>
    <contour>
      <point x="252" y="650" type="line"/>
      <point x="320" y="580" type="line"/>
      <point x="475" y="701" type="line"/>
      <point x="379" y="804" type="line"/>
    </contour>
  </outline>
</glyph>
<glyph name="pi" format="1">
  <advance width="740"/>
  <unicode hex="03C0"/>
  <outline>
    <contour>
      <point x="710" y="467" type="line"/>
      <point x="710" y="550" type="line"/>
      <point x="30" y="550" type="line"/>
      <point x="30" y="467" type="line"/>
      <point x="100" y="467" type="line"/>
      <point x="100" y="0" type="line"/>
      <point x="305" y="0" type="line"/>
      <point x="305" y="467" type="line"/>
      <point x="415" y="467" type="line"/>
      <point x="430" y="236" type="line" smooth="yes"/>
      <point x="446" y="-14"/>
      <point x="577" y="-15"/>
      <point x="670" y="-15" type="curve" name="hr01"/>
      <point x="636" y="467" type="line"/>
    </contour>
  </outline>
</glyph>
<glyph name="emdash" format="1">
  <advance width="880"/>
  <unicode hex="2014"/>
  <outline>
    <contour>
      <point x="30" y="213" type="line" name="hr00"/>
      <point x="850" y="213" type="line"/>
      <point x="850" y="351" type="line"/>
      <point x="30" y="351" type="line"/>
    </contour>
  </outline>
</glyph>
<glyph name="quoteleft" format="1">
  <advance width="263"/>
  <unicode hex="2018"/>
  <outline>
    <contour>
      <point x="30" y="429" type="curve" smooth="yes" name="hr00"/>
      <point x="30" y="344" smooth="yes"/>
      <point x="46" y="335" smooth="yes"/>
      <point x="115" y="335" type="curve" smooth="yes"/>
      <point x="198" y="335" smooth="yes"/>
      <point x="218" y="344" smooth="yes"/>
      <point x="218" y="429" type="curve" smooth="yes"/>
      <point x="218" y="496"/>
      <point x="194" y="511"/>
      <point x="152" y="511" type="curve"/>
      <point x="167" y="628" type="line"/>
      <point x="116" y="636" type="line"/>
      <point x="57" y="580" smooth="yes"/>
      <point x="30" y="508" smooth="yes"/>
    </contour>
  </outline>
</glyph>
<glyph name="quoteright" format="1">
  <advance width="263"/>
  <unicode hex="2019"/>
  <outline>
    <contour>
      <point x="233" y="546" type="curve" smooth="yes" name="hr00"/>
      <point x="233" y="631" smooth="yes"/>
      <point x="217" y="640" smooth="yes"/>
      <point x="148" y="640" type="curve" smooth="yes"/>
      <point x="65" y="640" smooth="yes"/>
      <point x="45" y="631" smooth="yes"/>
      <point x="45" y="546" type="curve" smooth="yes"/>
      <point x="45" y="479"/>
      <point x="69" y="464"/>
      <point x="111" y="464" type="curve"/>
      <point x="96" y="347" type="line"/>
      <point x="147" y="339" type="line"/>
      <point x="206" y="395" smooth="yes"/>
      <point x="233" y="467" smooth="yes"/>
    </contour>
  </outline>
</glyph>
<glyph name="quotedblleft" format="1">
  <advance width="501"/>
  <unicode hex="201C"/>
  <outline>
    <contour>
      <point x="30" y="429" type="curve" smooth="yes" name="hr00"/>
      <point x="30" y="344" smooth="yes"/>
      <point x="46" y="335" smooth="yes"/>
      <point x="115" y="335" type="curve" smooth="yes"/>
      <point x="198" y="335" smooth="yes"/>
      <point x="218" y="344" smooth="yes"/>
      <point x="218" y="429" type="curve" smooth="yes"/>
      <point x="218" y="496"/>
      <point x="194" y="511"/>
      <point x="152" y="511" type="curve"/>
      <point x="167" y="628" type="line"/>
      <point x="116" y="636" type="line"/>
      <point x="57" y="580" smooth="yes"/>
      <point x="30" y="508" smooth="yes"/>
    </contour>
    <contour>
      <point x="268" y="429" type="curve" smooth="yes"/>
      <point x="268" y="344" smooth="yes"/>
      <point x="284" y="335" smooth="yes"/>
      <point x="353" y="335" type="curve" smooth="yes"/>
      <point x="436" y="335" smooth="yes"/>
      <point x="456" y="344" smooth="yes"/>
      <point x="456" y="429" type="curve" smooth="yes"/>
      <point x="456" y="496"/>
      <point x="432" y="511"/>
      <point x="390" y="511" type="curve"/>
      <point x="405" y="628" type="line"/>
      <point x="354" y="636" type="line"/>
      <point x="295" y="580" smooth="yes"/>
      <point x="268" y="508" smooth="yes"/>
    </contour>
  </outline>
</glyph>
<glyph name="quotedblright" format="1">
  <advance width="501"/>
  <unicode hex="201D"/>
  <outline>
    <contour>
      <point x="471" y="546" type="curve" smooth="yes" name="hr00"/>
      <point x="471" y="631" smooth="yes"/>
      <point x="455" y="640" smooth="yes"/>
      <point x="386" y="640" type="curve" smooth="yes"/>
      <point x="303" y="640" smooth="yes"/>
      <point x="283" y="631" smooth="yes"/>
      <point x="283" y="546" type="curve" smooth="yes"/>
      <point x="283" y="479"/>
      <point x="307" y="464"/>
      <point x="349" y="464" type="curve"/>
      <point x="334" y="347" type="line"/>
      <point x="385" y="339" type="line"/>
      <point x="444" y="395" smooth="yes"/>
      <point x="471" y="467" smooth="yes"/>
    </contour>
    <contour>
      <point x="233" y="546" type="curve" smooth="yes"/>
      <point x="233" y="631" smooth="yes"/>
      <point x="217" y="640" smooth="yes"/>
      <point x="148" y="640" type="curve" smooth="yes"/>
      <point x="65" y="640" smooth="yes"/>
      <point x="45" y="631" smooth="yes"/>
      <point x="45" y="546" type="curve" smooth="yes"/>
      <point x="45" y="479"/>
      <point x="69" y="464"/>
      <point x="111" y="464" type="curve"/>
      <point x="96" y="347" type="line"/>
      <point x="147" y="339" type="line"/>
      <point x="206" y="395" smooth="yes"/>
      <point x="233" y="467" smooth="yes"/>
    </contour>
  </outline>
</glyph>
<glyph name="dagger" format="1">
  <advance width="478"/>
  <unicode hex="2020"/>
  <outline>
    <contour>
      <point x="453" y="366" type="line" name="hr00"/>
      <point x="453" y="434" type="line"/>
      <point x="318" y="434" type="line"/>
      <point x="353" y="578" type="line"/>
      <point x="353" y="635" type="line"/>
      <point x="124" y="635" type="line"/>
      <point x="124" y="578" type="line"/>
      <point x="159" y="434" type="line"/>
      <point x="25" y="434" type="line"/>
      <point x="25" y="366" type="line"/>
      <point x="159" y="366" type="line"/>
      <point x="124" y="200" type="line"/>
      <point x="124" y="-150" type="line"/>
      <point x="353" y="-150" type="line"/>
      <point x="353" y="200" type="line"/>
      <point x="318" y="366" type="line"/>
    </contour>
  </outline>
</glyph>
<glyph name="daggerdbl" format="1">
  <advance width="478"/>
  <unicode hex="2021"/>
  <outline>
    <contour>
      <point x="124" y="635" type="line" name="hr00"/>
      <point x="124" y="578" type="line"/>
      <point x="159" y="434" type="line"/>
      <point x="25" y="434" type="line"/>
      <point x="25" y="366" type="line"/>
      <point x="167" y="366" type="line"/>
      <point x="131" y="296" type="line"/>
      <point x="131" y="189" type="line"/>
      <point x="167" y="119" type="line"/>
      <point x="25" y="119" type="line"/>
      <point x="25" y="51" type="line"/>
      <point x="159" y="51" type="line"/>
      <point x="124" y="-93" type="line"/>
      <point x="124" y="-150" type="line"/>
      <point x="353" y="-150" type="line"/>
      <point x="353" y="-93" type="line"/>
      <point x="318" y="51" type="line"/>
      <point x="453" y="51" type="line"/>
      <point x="453" y="119" type="line"/>
      <point x="310" y="119" type="line"/>
      <point x="346" y="189" type="line"/>
      <point x="346" y="296" type="line"/>
      <point x="310" y="366" type="line"/>
      <point x="453" y="366" type="line"/>
      <point x="453" y="434" type="line"/>
      <point x="318" y="434" type="line"/>
      <point x="353" y="578" type="line"/>
      <point x="353" y="635" type="line"/>
    </contour>
  </outline>
</glyph>
<glyph name="ellipsis" format="1">
  <advance width="924"/>
  <unicode hex="2026"/>
  <outline>
    <contour>
      <point x="248" y="88" type="curve" smooth="yes" name="hr00"/>
      <point x="248" y="178" smooth="yes"/>
      <point x="230" y="188" smooth="yes"/>
      <point x="160" y="188" type="curve" smooth="yes"/>
      <point x="78" y="188" smooth="yes"/>
      <point x="60" y="178" smooth="yes"/>
      <point x="60" y="88" type="curve" smooth="yes"/>
      <point x="60" y="0" smooth="yes"/>
      <point x="78" y="-10" smooth="yes"/>
      <point x="159" y="-10" type="curve" smooth="yes"/>
      <point x="230" y="-10" smooth="yes"/>
      <point x="248" y="0" smooth="yes"/>
    </contour>
    <contour>
      <point x="556" y="88" type="curve" smooth="yes"/>
      <point x="556" y="178" smooth="yes"/>
      <point x="538" y="188" smooth="yes"/>
      <point x="468" y="188" type="curve" smooth="yes"/>
      <point x="386" y="188" smooth="yes"/>
      <point x="368" y="178" smooth="yes"/>
      <point x="368" y="88" type="curve" smooth="yes"/>
      <point x="368" y="0" smooth="yes"/>
      <point x="386" y="-10" smooth="yes"/>
      <point x="467" y="-10" type="curve" smooth="yes"/>
      <point x="538" y="-10" smooth="yes"/>
      <point x="556" y="0" smooth="yes"/>
    </contour>
    <contour>
      <point x="864" y="88" type="curve" smooth="yes"/>
      <point x="864" y="178" smooth="yes"/>
      <point x="846" y="188" smooth="yes"/>
      <point x="776" y="188" type="curve" smooth="yes"/>
      <point x="694" y="188" smooth="yes"/>
      <point x="676" y="178" smooth="yes"/>
      <point x="676" y="88" type="curve" smooth="yes"/>
      <point x="676" y="0" smooth="yes"/>
      <point x="694" y="-10" smooth="yes"/>
      <point x="775" y="-10" type="curve" smooth="yes"/>
      <point x="846" y="-10" smooth="yes"/>
      <point x="864" y="0" smooth="yes"/>
    </contour>
  </outline>
</glyph>
<glyph name="guilsinglleft" format="1">
  <advance width="257"/>
  <unicode hex="2039"/>
  <outline>
    <contour>
      <point x="160" y="479" type="line" name="hr00"/>
      <point x="236" y="415" type="line"/>
      <point x="154" y="281" type="line"/>
      <point x="237" y="146" type="line"/>
      <point x="160" y="82" type="line"/>
      <point x="15" y="238" type="line"/>
      <point x="15" y="324" type="line"/>
    </contour>
  </outline>
</glyph>
<glyph name="guilsinglright" format="1">
  <advance width="257"/>
  <unicode hex="203A"/>
  <outline>
    <contour>
      <point x="242" y="324" type="line" name="hr00"/>
      <point x="242" y="238" type="line"/>
      <point x="97" y="82" type="line"/>
      <point x="20" y="146" type="line"/>
      <point x="103" y="281" type="line"/>
      <point x="21" y="415" type="line"/>
      <point x="97" y="479" type="line"/>
    </contour>
  </outline>
</glyph>
<glyph name="fraction" format="1">
  <advance width="238"/>
  <unicode hex="2044"/>
  <outline>
    <contour>
      <point x="70" y="-48" type="line" name="hr00"/>
      <point x="218" y="648" type="line"/>
      <point x="167" y="648" type="line"/>
      <point x="20" y="-48" type="line"/>
    </contour>
  </outline>
</glyph>
<glyph name="zeroinferior" format="1">
  <advance width="422"/>
  <unicode hex="2080"/>
  <outline>
    <contour>
      <point x="381" y="240" type="line" smooth="yes" name="hr00"/>
      <point x="381" y="402" smooth="yes"/>
      <point x="293" y="402" smooth="yes"/>
      <point x="220" y="402" type="curve" smooth="yes"/>
      <point x="139" y="402" smooth="yes"/>
      <point x="41" y="402" smooth="yes"/>
      <point x="41" y="240" type="curve" smooth="yes"/>
      <point x="41" y="156" type="line" smooth="yes"/>
      <point x="41" y="-6" smooth="yes"/>
      <point x="129" y="-6" smooth="yes"/>
      <point x="203" y="-6" type="curve" smooth="yes"/>
      <point x="283" y="-6" smooth="yes"/>
      <point x="381" y="-6" smooth="yes"/>
      <point x="381" y="156" type="curve" smooth="yes"/>
    </contour>
    <contour>
      <point x="167" y="31" type="line"/>
      <point x="201" y="363" type="line"/>
      <point x="259" y="363" type="line"/>
      <point x="225" y="31" type="line"/>
    </contour>
  </outline>
</glyph>
<glyph name="oneinferior" format="1">
  <advance width="278"/>
  <unicode hex="2081"/>
  <outline>
    <contour>
      <point x="228" y="0" type="line" name="hr00"/>
      <point x="228" y="403" type="line"/>
      <point x="176" y="403" type="line"/>
      <point x="0" y="348" type="line"/>
      <point x="16" y="265" type="line"/>
      <point x="137" y="265" type="line"/>
      <point x="137" y="241" type="line"/>
      <point x="56" y="220" type="line"/>
      <point x="56" y="0" type="line"/>
    </contour>
  </outline>
</glyph>
<glyph name="twoinferior" format="1">
  <advance width="381"/>
  <unicode hex="2082"/>
  <outline>
    <contour>
      <point x="37" y="0" type="line"/>
      <point x="356" y="0" type="line"/>
      <point x="345" y="140" type="line"/>
      <point x="314" y="140" type="line"/>
      <point x="253" y="44" type="line" name="hr01"/>
      <point x="204" y="44" type="line"/>
      <point x="276" y="158" type="line" smooth="yes"/>
      <point x="319" y="227" smooth="yes"/>
      <point x="340" y="269" smooth="yes"/>
      <point x="340" y="311" type="curve" smooth="yes"/>
      <point x="340" y="396" smooth="yes"/>
      <point x="255" y="406" smooth="yes"/>
      <point x="183" y="406" type="curve" smooth="yes"/>
      <point x="135" y="406"/>
      <point x="99" y="398"/>
      <point x="51" y="386" type="curve"/>
      <point x="63" y="256" type="line"/>
      <point x="117" y="256" type="line"/>
      <point x="180" y="363" type="line" name="hr02"/>
      <point x="227" y="363" type="line"/>
      <point x="27" y="25" type="line"/>
    </contour>
  </outline>
</glyph>
<glyph name="threeinferior" format="1">
  <advance width="384"/>
  <unicode hex="2083"/>
  <outline>
    <contour>
      <point x="184" y="406" type="curve" smooth="yes"/>
      <point x="136" y="406"/>
      <point x="90" y="398"/>
      <point x="43" y="386" type="curve"/>
      <point x="55" y="256" type="line"/>
      <point x="109" y="256" type="line"/>
      <point x="171" y="363" type="line"/>
      <point x="226" y="363" type="line"/>
      <point x="140" y="216" type="line"/>
      <point x="102" y="216" type="line"/>
      <point x="102" y="180" type="line"/>
      <point x="132" y="180" type="line"/>
      <point x="218" y="33" type="line"/>
      <point x="163" y="33" type="line"/>
      <point x="101" y="140" type="line" name="hr01"/>
      <point x="46" y="140" type="line"/>
      <point x="35" y="10" type="line"/>
      <point x="84" y="-2" smooth="yes"/>
      <point x="132" y="-10" smooth="yes"/>
      <point x="182" y="-10" type="curve" smooth="yes"/>
      <point x="294" y="-10" smooth="yes"/>
      <point x="343" y="34" smooth="yes"/>
      <point x="343" y="105" type="curve" smooth="yes"/>
      <point x="343" y="173"/>
      <point x="310" y="196"/>
      <point x="260" y="203" type="curve"/>
      <point x="260" y="207" type="line"/>
      <point x="307" y="216" smooth="yes"/>
      <point x="337" y="243" smooth="yes"/>
      <point x="337" y="306" type="curve" smooth="yes"/>
      <point x="337" y="369" smooth="yes"/>
      <point x="295" y="406" smooth="yes"/>
    </contour>
  </outline>
</glyph>
<glyph name="fourinferior" format="1">
  <advance width="371"/>
  <unicode hex="2084"/>
  <outline>
    <contour>
      <point x="0" y="76" type="line" name="hr00"/>
      <point x="154" y="76" type="line"/>
      <point x="154" y="0" type="line"/>
      <point x="316" y="0" type="line"/>
      <point x="316" y="76" type="line"/>
      <point x="351" y="76" type="line"/>
      <point x="351" y="131" type="line"/>
      <point x="316" y="131" type="line"/>
      <point x="316" y="396" type="line"/>
      <point x="92" y="396" type="line"/>
      <point x="0" y="116" type="line"/>
    </contour>
    <contour>
      <point x="118" y="356" type="line"/>
      <point x="154" y="356" type="line"/>
      <point x="154" y="120" type="line"/>
      <point x="76" y="120" type="line"/>
    </contour>
  </outline>
</glyph>
<glyph name="franc" format="1">
  <advance width="546"/>
  <unicode hex="20A3"/>
  <outline>
    <contour>
      <point x="470" y="264" type="line"/>
      <point x="470" y="319" type="line"/>
      <point x="289" y="319" type="line"/>
      <point x="289" y="540" type="line"/>
      <point x="368" y="540" type="line"/>
      <point x="409" y="406" type="line"/>
      <point x="526" y="406" type="line"/>
      <point x="526" y="600" type="line"/>
      <point x="30" y="600" type="line"/>
      <point x="30" y="562" type="line" name="hr01"/>
      <point x="74" y="562" type="line"/>
      <point x="74" y="38" type="line"/>
      <point x="30" y="38" type="line"/>
      <point x="30" y="0" type="line"/>
      <point x="413" y="0" type="line"/>
      <point x="413" y="38" type="line"/>
      <point x="289" y="38" type="line"/>
      <point x="289" y="264" type="line"/>
    </contour>
    <contour>
      <point x="0" y="176" type="line"/>
      <point x="0" y="143" type="line"/>
      <point x="423" y="143" type="line"/>
      <point x="423" y="176" type="line"/>
    </contour>
  </outline>
</glyph>
<glyph name="lira" format="1">
  <advance width="575"/>
  <unicode hex="20A4"/>
  <outline>
    <contour>
      <point x="499" y="0" type="line"/>
      <point x="499" y="162" type="line"/>
      <point x="408" y="162" type="line"/>
      <point x="374" y="53" type="line" name="hr01"/>
      <point x="253" y="53" type="line"/>
      <point x="281" y="89" smooth="yes"/>
      <point x="300" y="149" smooth="yes"/>
      <point x="300" y="251" type="curve" smooth="yes"/>
      <point x="300" y="550" type="line"/>
      <point x="387" y="550" type="line"/>
      <point x="387" y="419" type="line"/>
      <point x="471" y="419" type="line"/>
      <point x="516" y="585" type="line"/>
      <point x="477" y="599" smooth="yes"/>
      <point x="405" y="615" smooth="yes"/>
      <point x="338" y="615" type="curve" smooth="yes"/>
      <point x="236" y="615" smooth="yes"/>
      <point x="95" y="615" smooth="yes"/>
      <point x="95" y="364" type="curve" smooth="yes"/>
      <point x="95" y="33" type="line" name="hr02"/>
      <point x="41" y="33" type="line"/>
      <point x="41" y="0" type="line"/>
    </contour>
    <contour>
      <point x="41" y="351" type="line"/>
      <point x="41" y="318" type="line"/>
      <point x="423" y="318" type="line"/>
      <point x="423" y="351" type="line"/>
    </contour>
    <contour>
      <point x="41" y="246" type="line"/>
      <point x="41" y="213" type="line"/>
      <point x="423" y="213" type="line"/>
      <point x="423" y="246" type="line"/>
    </contour>
  </outline>
</glyph>
<glyph name="Euro" format="1">
  <advance width="576"/>
  <unicode hex="20AC"/>
  <outline>
    <contour>
      <point x="491" y="244" type="line" name="hr00"/>
      <point x="491" y="277" type="line"/>
      <point x="267" y="277" type="line"/>
      <point x="267" y="317" type="line"/>
      <point x="491" y="317" type="line"/>
      <point x="491" y="350" type="line"/>
      <point x="267" y="350" type="line"/>
      <point x="267" y="550" type="line"/>
      <point x="407" y="550" type="line"/>
      <point x="407" y="419" type="line"/>
      <point x="491" y="419" type="line"/>
      <point x="536" y="585" type="line"/>
      <point x="497" y="599" smooth="yes"/>
      <point x="417" y="615" smooth="yes"/>
      <point x="350" y="615" type="curve" smooth="yes"/>
      <point x="201" y="615"/>
      <point x="66" y="615"/>
      <point x="62" y="350" type="curve"/>
      <point x="20" y="350" type="line"/>
      <point x="20" y="317" type="line"/>
      <point x="62" y="317" type="line"/>
      <point x="62" y="277" type="line"/>
      <point x="20" y="277" type="line"/>
      <point x="20" y="244" type="line"/>
      <point x="62" y="244" type="line"/>
      <point x="68" y="-15" smooth="yes"/>
      <point x="202" y="-15" smooth="yes"/>
      <point x="350" y="-15" type="curve" smooth="yes"/>
      <point x="417" y="-15"/>
      <point x="497" y="1"/>
      <point x="536" y="15" type="curve"/>
      <point x="491" y="181" type="line"/>
      <point x="407" y="181" type="line"/>
      <point x="407" y="50" type="line"/>
      <point x="267" y="50" type="line"/>
      <point x="267" y="244" type="line"/>
    </contour>
  </outline>
</glyph>
<glyph name="uni2113" format="1">
  <advance width="390"/>
  <unicode hex="2113"/>
  <outline>
    <contour>
      <point x="80" y="600" type="line"/>
      <point x="80" y="150" type="line" smooth="yes"/>
      <point x="80" y="-15" smooth="yes"/>
      <point x="164" y="-15" smooth="yes"/>
      <point x="232" y="-15" type="curve" smooth="yes"/>
      <point x="318" y="-15" smooth="yes"/>
      <point x="375" y="0" smooth="yes"/>
      <point x="375" y="76" type="curve" smooth="yes"/>
      <point x="375" y="149" type="line"/>
      <point x="327" y="149" type="line"/>
      <point x="327" y="50" type="line" name="hr01"/>
      <point x="270" y="50" type="line"/>
      <point x="270" y="620" type="line"/>
    </contour>
  </outline>
</glyph>
<glyph name="trademark" format="1">
  <advance width="789"/>
  <unicode hex="2122"/>
  <outline>
    <contour>
      <point x="530" y="401" type="line"/>
      <point x="488" y="640" type="line"/>
      <point x="356" y="640" type="line"/>
      <point x="356" y="291" type="line"/>
      <point x="396" y="291" type="line"/>
      <point x="396" y="607" type="line" name="hr01"/>
      <point x="406" y="607" type="line"/>
      <point x="461" y="291" type="line"/>
      <point x="563" y="291" type="line"/>
      <point x="611" y="607" type="line"/>
      <point x="621" y="607" type="line"/>
      <point x="621" y="291" type="line"/>
      <point x="739" y="291" type="line"/>
      <point x="739" y="640" type="line"/>
      <point x="576" y="640" type="line"/>
      <point x="540" y="401" type="line"/>
    </contour>
    <contour>
      <point x="30" y="522" type="line"/>
      <point x="84" y="522" type="line"/>
      <point x="98" y="601" type="line"/>
      <point x="117" y="601" type="line" name="hr02"/>
      <point x="117" y="291" type="line"/>
      <point x="235" y="291" type="line"/>
      <point x="235" y="601" type="line"/>
      <point x="255" y="601" type="line"/>
      <point x="268" y="526" type="line"/>
      <point x="323" y="526" type="line" name="hr03"/>
      <point x="323" y="640" type="line"/>
      <point x="30" y="640" type="line" name="hr04"/>
    </contour>
  </outline>
</glyph>
<glyph name="Omega" format="1">
  <advance width="620"/>
  <unicode hex="2126"/>
  <outline>
    <contour>
      <point x="600" y="0" type="line" name="hr00"/>
      <point x="600" y="38" type="line"/>
      <point x="423" y="38" type="line"/>
      <point x="423" y="91" type="line"/>
      <point x="525" y="104" smooth="yes"/>
      <point x="600" y="146" smooth="yes"/>
      <point x="600" y="332" type="curve" smooth="yes"/>
      <point x="600" y="339" type="line" smooth="yes"/>
      <point x="600" y="615" smooth="yes"/>
      <point x="470" y="615" smooth="yes"/>
      <point x="325" y="615" type="curve" smooth="yes"/>
      <point x="165" y="615" smooth="yes"/>
      <point x="20" y="615" smooth="yes"/>
      <point x="20" y="339" type="curve" smooth="yes"/>
      <point x="20" y="332" type="line" smooth="yes"/>
      <point x="20" y="146"/>
      <point x="96" y="100"/>
      <point x="197" y="89" type="curve"/>
      <point x="197" y="38" type="line"/>
      <point x="20" y="38" type="line"/>
      <point x="20" y="0" type="line"/>
      <point x="235" y="0" type="line"/>
      <point x="235" y="544" type="line"/>
      <point x="385" y="544" type="line"/>
      <point x="385" y="0" type="line"/>
    </contour>
  </outline>
</glyph>
<glyph name="partialdiff" format="1">
  <advance width="647"/>
  <unicode hex="2202"/>
  <outline>
    <contour>
      <point x="210" y="703" type="curve" name="hr00"/>
      <point x="220" y="599" type="line"/>
      <point x="275" y="627"/>
      <point x="390" y="649"/>
      <point x="432" y="649" type="curve"/>
      <point x="406" y="444" type="line"/>
      <point x="387" y="445" smooth="yes"/>
      <point x="367" y="445" smooth="yes"/>
      <point x="347" y="445" type="curve" smooth="yes"/>
      <point x="167" y="445" smooth="yes"/>
      <point x="36" y="405" smooth="yes"/>
      <point x="36" y="148" type="curve" smooth="yes"/>
      <point x="36" y="-15" smooth="yes"/>
      <point x="144" y="-15" smooth="yes"/>
      <point x="263" y="-15" type="curve" smooth="yes"/>
      <point x="410" y="-15" smooth="yes"/>
      <point x="539" y="-15" smooth="yes"/>
      <point x="569" y="223" type="curve" smooth="yes"/>
      <point x="599" y="463" smooth="yes"/>
      <point x="603" y="508" smooth="yes"/>
      <point x="603" y="547" type="curve" smooth="yes"/>
      <point x="603" y="671" smooth="yes"/>
      <point x="561" y="740" smooth="yes"/>
      <point x="404" y="740" type="curve" smooth="yes"/>
      <point x="351" y="740"/>
      <point x="282" y="729"/>
    </contour>
    <contour>
      <point x="359" y="60" type="line"/>
      <point x="212" y="60" type="line"/>
      <point x="250" y="370" type="line"/>
      <point x="397" y="370" type="line"/>
    </contour>
  </outline>
</glyph>
<glyph name="Delta" format="1">
  <advance width="666"/>
  <unicode hex="2206"/>
  <outline>
    <contour>
      <point x="596" y="0" type="line" name="hr00"/>
      <point x="469" y="600" type="line"/>
      <point x="218" y="600" type="line"/>
      <point x="70" y="0" type="line"/>
    </contour>
    <contour>
      <point x="259" y="540" type="line"/>
      <point x="280" y="540" type="line"/>
      <point x="385" y="50" type="line"/>
      <point x="137" y="50" type="line"/>
    </contour>
  </outline>
</glyph>
<glyph name="product" format="1">
  <advance width="740"/>
  <unicode hex="220F"/>
  <outline>
    <contour>
      <point x="710" y="517" type="line"/>
      <point x="710" y="600" type="line"/>
      <point x="30" y="600" type="line"/>
      <point x="30" y="517" type="line"/>
      <point x="100" y="517" type="line"/>
      <point x="100" y="0" type="line"/>
      <point x="305" y="0" type="line"/>
      <point x="305" y="517" type="line"/>
      <point x="417" y="517" type="line"/>
      <point x="443" y="236" type="line" smooth="yes"/>
      <point x="466" y="-13"/>
      <point x="590" y="-15"/>
      <point x="683" y="-15" type="curve" name="hr01"/>
      <point x="637" y="517" type="line"/>
    </contour>
  </outline>
</glyph>
<glyph name="summation" format="1">
  <advance width="553"/>
  <unicode hex="2211"/>
  <outline>
    <contour>
      <point x="533" y="517" type="line" name="hr00"/>
      <point x="543" y="600" type="line"/>
      <point x="30" y="600" type="line"/>
      <point x="30" y="537" type="line"/>
      <point x="204" y="238" type="line"/>
      <point x="30" y="-117" type="line"/>
      <point x="30" y="-180" type="line"/>
      <point x="543" y="-180" type="line"/>
      <point x="543" y="-97" type="line"/>
      <point x="235" y="-97" type="line"/>
      <point x="409" y="238" type="line"/>
      <point x="235" y="517" type="line"/>
    </contour>
  </outline>
</glyph>
<glyph name="minus" format="1">
  <advance width="540"/>
  <unicode hex="2212"/>
  <outline>
    <contour>
      <point x="60" y="261" type="line" name="hr00"/>
      <point x="480" y="261" type="line"/>
      <point x="480" y="363" type="line"/>
      <point x="60" y="363" type="line"/>
    </contour>
  </outline>
</glyph>
<glyph name="radical" format="1">
  <advance width="652"/>
  <unicode hex="221A"/>
  <outline>
    <contour>
      <point x="752" y="729" type="line" name="hr00"/>
      <point x="506" y="729" type="line"/>
      <point x="383" y="-119" type="line"/>
      <point x="362" y="-119" type="line"/>
      <point x="290" y="301" type="line"/>
      <point x="30" y="301" type="line"/>
      <point x="30" y="263" type="line"/>
      <point x="93" y="263" type="line"/>
      <point x="167" y="-179" type="line"/>
      <point x="424" y="-179" type="line"/>
      <point x="551" y="691" type="line"/>
      <point x="752" y="691" type="line"/>
    </contour>
  </outline>
</glyph>
<glyph name="infinity" format="1">
  <advance width="862"/>
  <unicode hex="221E"/>
  <outline>
    <contour>
      <point x="630" y="103" type="curve" smooth="yes" name="hr00"/>
      <point x="733" y="103" smooth="yes"/>
      <point x="812" y="187" smooth="yes"/>
      <point x="812" y="308" type="curve" smooth="yes"/>
      <point x="812" y="441" smooth="yes"/>
      <point x="731" y="519" smooth="yes"/>
      <point x="635" y="519" type="curve" smooth="yes"/>
      <point x="542" y="519"/>
      <point x="478" y="477"/>
      <point x="425" y="387" type="curve"/>
      <point x="374" y="463" smooth="yes"/>
      <point x="318" y="519" smooth="yes"/>
      <point x="231" y="519" type="curve" smooth="yes"/>
      <point x="129" y="519" smooth="yes"/>
      <point x="50" y="435" smooth="yes"/>
      <point x="50" y="314" type="curve" smooth="yes"/>
      <point x="50" y="181" smooth="yes"/>
      <point x="131" y="103" smooth="yes"/>
      <point x="227" y="103" type="curve" smooth="yes"/>
      <point x="320" y="103"/>
      <point x="384" y="145"/>
      <point x="437" y="236" type="curve"/>
      <point x="488" y="159" smooth="yes"/>
      <point x="544" y="103" smooth="yes"/>
    </contour>
    <contour>
      <point x="247" y="195" type="curve" smooth="yes"/>
      <point x="186" y="195" smooth="yes"/>
      <point x="145" y="244" smooth="yes"/>
      <point x="145" y="313" type="curve" smooth="yes"/>
      <point x="145" y="384" smooth="yes"/>
      <point x="186" y="426" smooth="yes"/>
      <point x="247" y="426" type="curve" smooth="yes"/>
      <point x="303" y="426"/>
      <point x="347" y="377"/>
      <point x="384" y="318" type="curve"/>
      <point x="353" y="242" smooth="yes"/>
      <point x="298" y="195" smooth="yes"/>
    </contour>
    <contour>
      <point x="615" y="427" type="curve" smooth="yes"/>
      <point x="676" y="427" smooth="yes"/>
      <point x="717" y="378" smooth="yes"/>
      <point x="717" y="309" type="curve" smooth="yes"/>
      <point x="717" y="238" smooth="yes"/>
      <point x="676" y="196" smooth="yes"/>
      <point x="615" y="196" type="curve" smooth="yes"/>
      <point x="560" y="196"/>
      <point x="516" y="245"/>
      <point x="478" y="305" type="curve"/>
      <point x="509" y="380" smooth="yes"/>
      <point x="564" y="427" smooth="yes"/>
    </contour>
  </outline>
</glyph>
<glyph name="integral" format="1">
  <advance width="395"/>
  <unicode hex="222B"/>
  <outline>
    <contour>
      <point x="305" y="550" type="line" name="hr00"/>
      <point x="397" y="550" type="line"/>
      <point x="406" y="610" type="line"/>
      <point x="383" y="613" smooth="yes"/>
      <point x="360" y="615" smooth="yes"/>
      <point x="337" y="615" type="curve" smooth="yes"/>
      <point x="236" y="615" smooth="yes"/>
      <point x="90" y="615" smooth="yes"/>
      <point x="90" y="364" type="curve" smooth="yes"/>
      <point x="90" y="-130" type="line"/>
      <point x="-2" y="-130" type="line"/>
      <point x="-11" y="-190" type="line"/>
      <point x="12" y="-193" smooth="yes"/>
      <point x="35" y="-195" smooth="yes"/>
      <point x="58" y="-195" type="curve" smooth="yes"/>
      <point x="159" y="-195" smooth="yes"/>
      <point x="305" y="-195" smooth="yes"/>
      <point x="305" y="56" type="curve" smooth="yes"/>
    </contour>
  </outline>
</glyph>
<glyph name="approxequal" format="1">
  <advance width="540"/>
  <unicode hex="2248"/>
  <outline>
    <contour>
      <point x="60" y="361" type="line"/>
      <point x="90" y="347" smooth="yes"/>
      <point x="119" y="341" smooth="yes"/>
      <point x="149" y="341" type="curve" smooth="yes"/>
      <point x="230" y="341" smooth="yes"/>
      <point x="311" y="380" smooth="yes"/>
      <point x="392" y="380" type="curve" smooth="yes" name="hr01"/>
      <point x="421" y="380"/>
      <point x="450" y="375"/>
      <point x="480" y="361" type="curve"/>
      <point x="480" y="463" type="line"/>
      <point x="450" y="476" smooth="yes"/>
      <point x="421" y="481" smooth="yes"/>
      <point x="391" y="481" type="curve" smooth="yes"/>
      <point x="310" y="481" smooth="yes"/>
      <point x="230" y="444" smooth="yes"/>
      <point x="149" y="444" type="curve" smooth="yes" name="hr02"/>
      <point x="119" y="444"/>
      <point x="90" y="449"/>
      <point x="60" y="463" type="curve"/>
    </contour>
    <contour>
      <point x="60" y="161" type="line"/>
      <point x="89" y="146" smooth="yes"/>
      <point x="119" y="141" smooth="yes"/>
      <point x="149" y="141" type="curve" smooth="yes"/>
      <point x="229" y="141" smooth="yes"/>
      <point x="310" y="181" smooth="yes"/>
      <point x="391" y="181" type="curve" smooth="yes" name="hr03"/>
      <point x="421" y="181"/>
      <point x="450" y="176"/>
      <point x="480" y="161" type="curve"/>
      <point x="480" y="263" type="line"/>
      <point x="450" y="277" smooth="yes"/>
      <point x="421" y="282" smooth="yes"/>
      <point x="392" y="282" type="curve" smooth="yes"/>
      <point x="311" y="282" smooth="yes"/>
      <point x="230" y="243" smooth="yes"/>
      <point x="149" y="243" type="curve" smooth="yes" name="hr04"/>
      <point x="119" y="243"/>
      <point x="90" y="248"/>
      <point x="60" y="263" type="curve"/>
    </contour>
  </outline>
</glyph>
<glyph name="lozenge" format="1">
  <advance width="626"/>
  <unicode hex="25CA"/>
  <outline>
    <contour>
      <point x="414" y="600" type="line" name="hr00"/>
      <point x="233" y="600" type="line"/>
      <point x="50" y="243" type="line"/>
      <point x="212" y="-114" type="line"/>
      <point x="393" y="-114" type="line"/>
      <point x="576" y="243" type="line"/>
    </contour>
    <contour>
      <point x="387" y="13" type="line"/>
      <point x="349" y="13" type="line"/>
      <point x="122" y="243" type="line"/>
      <point x="238" y="473" type="line"/>
      <point x="277" y="473" type="line"/>
      <point x="503" y="243" type="line"/>
    </contour>
  </outline>
</glyph>
<glyph name="acute.case" format="1">
  <advance width="311"/>
  <outline>
    <contour>
      <point x="51" y="763" type="line" name="hr00"/>
      <point x="84" y="671" type="line"/>
      <point x="311" y="730" type="line"/>
      <point x="262" y="865" type="line"/>
    </contour>
  </outline>
</glyph>
<glyph name="barra" format="1">
  <advance width="336"/>
  <outline>
    <contour>
      <point x="0" y="286" type="line"/>
      <point x="336" y="286" type="line"/>
      <point x="336" y="348" type="line"/>
      <point x="0" y="348" type="line"/>
    </contour>
  </outline>
</glyph>
<glyph name="breve.case" format="1">
  <advance width="402"/>
  <outline>
    <contour>
      <point x="199" y="795" type="curve" smooth="yes" name="hr00"/>
      <point x="162" y="795"/>
      <point x="111" y="812"/>
      <point x="79" y="834" type="curve"/>
      <point x="64" y="810"/>
      <point x="49" y="784"/>
      <point x="33" y="759" type="curve"/>
      <point x="70" y="702" smooth="yes"/>
      <point x="129" y="673" smooth="yes"/>
      <point x="199" y="673" type="curve" smooth="yes"/>
      <point x="269" y="673"/>
      <point x="328" y="702"/>
      <point x="365" y="759" type="curve"/>
      <point x="347" y="788"/>
      <point x="338" y="804"/>
      <point x="319" y="834" type="curve"/>
      <point x="287" y="812" smooth="yes"/>
      <point x="236" y="795" smooth="yes"/>
    </contour>
  </outline>
</glyph>
<glyph name="caron.case" format="1">
  <advance width="402"/>
  <outline>
    <contour>
      <point x="367" y="802" type="line" name="hr00"/>
      <point x="308" y="873" type="line"/>
      <point x="201" y="797" type="line"/>
      <point x="94" y="873" type="line"/>
      <point x="35" y="802" type="line"/>
      <point x="153" y="672" type="line"/>
      <point x="249" y="672" type="line"/>
    </contour>
  </outline>
</glyph>
<glyph name="caron.salt" format="1">
  <advance width="160"/>
  <outline>
    <contour>
      <point x="160" y="699" type="curve" smooth="yes" name="hr00"/>
      <point x="160" y="771" smooth="yes"/>
      <point x="146" y="778" smooth="yes"/>
      <point x="88" y="778" type="curve" smooth="yes"/>
      <point x="17" y="778" smooth="yes"/>
      <point x="0" y="771" smooth="yes"/>
      <point x="0" y="699" type="curve" smooth="yes"/>
      <point x="0" y="642"/>
      <point x="20" y="629"/>
      <point x="56" y="629" type="curve"/>
      <point x="43" y="529" type="line"/>
      <point x="87" y="523" type="line"/>
      <point x="137" y="570" smooth="yes"/>
      <point x="160" y="631" smooth="yes"/>
    </contour>
  </outline>
</glyph>
<glyph name="circumflex.case" format="1">
  <advance width="402"/>
  <outline>
    <contour>
      <point x="249" y="872" type="line" name="hr00"/>
      <point x="153" y="872" type="line"/>
      <point x="35" y="742" type="line"/>
      <point x="94" y="671" type="line"/>
      <point x="201" y="747" type="line"/>
      <point x="308" y="671" type="line"/>
      <point x="367" y="742" type="line"/>
    </contour>
  </outline>
</glyph>
<glyph name="commaaccent" format="1">
  <advance width="260"/>
  <outline>
    <contour>
      <point x="210" y="-119" type="curve" smooth="yes" name="hr00"/>
      <point x="210" y="-47" smooth="yes"/>
      <point x="196" y="-40" smooth="yes"/>
      <point x="138" y="-40" type="curve" smooth="yes"/>
      <point x="67" y="-40" smooth="yes"/>
      <point x="50" y="-47" smooth="yes"/>
      <point x="50" y="-119" type="curve" smooth="yes"/>
      <point x="50" y="-176"/>
      <point x="70" y="-189"/>
      <point x="106" y="-189" type="curve"/>
      <point x="93" y="-289" type="line"/>
      <point x="137" y="-295" type="line"/>
      <point x="187" y="-248" smooth="yes"/>
      <point x="210" y="-187" smooth="yes"/>
    </contour>
  </outline>
</glyph>
<glyph name="commaaccent.salt" format="1">
  <advance width="304"/>
  <outline>
    <contour>
      <point x="72" y="663" type="curve" smooth="yes" name="hr00"/>
      <point x="72" y="591" smooth="yes"/>
      <point x="86" y="584" smooth="yes"/>
      <point x="144" y="584" type="curve" smooth="yes"/>
      <point x="215" y="584" smooth="yes"/>
      <point x="232" y="591" smooth="yes"/>
      <point x="232" y="663" type="curve" smooth="yes"/>
      <point x="232" y="720"/>
      <point x="212" y="733"/>
      <point x="176" y="733" type="curve"/>
      <point x="189" y="833" type="line"/>
      <point x="145" y="839" type="line"/>
      <point x="95" y="792" smooth="yes"/>
      <point x="72" y="731" smooth="yes"/>
    </contour>
  </outline>
</glyph>
<glyph name="dieresis.case" format="1">
  <advance width="432"/>
  <outline>
    <contour>
      <point x="184" y="767" type="curve" smooth="yes" name="hr00"/>
      <point x="184" y="842" smooth="yes"/>
      <point x="172" y="850" smooth="yes"/>
      <point x="121" y="850" type="curve" smooth="yes"/>
      <point x="63" y="850" smooth="yes"/>
      <point x="50" y="842" smooth="yes"/>
      <point x="50" y="767" type="curve" smooth="yes"/>
      <point x="50" y="692" smooth="yes"/>
      <point x="63" y="684" smooth="yes"/>
      <point x="121" y="684" type="curve" smooth="yes"/>
      <point x="172" y="684" smooth="yes"/>
      <point x="184" y="692" smooth="yes"/>
    </contour>
    <contour>
      <point x="382" y="767" type="curve" smooth="yes"/>
      <point x="382" y="842" smooth="yes"/>
      <point x="370" y="850" smooth="yes"/>
      <point x="319" y="850" type="curve" smooth="yes"/>
      <point x="261" y="850" smooth="yes"/>
      <point x="248" y="842" smooth="yes"/>
      <point x="248" y="767" type="curve" smooth="yes"/>
      <point x="248" y="692" smooth="yes"/>
      <point x="261" y="684" smooth="yes"/>
      <point x="319" y="684" type="curve" smooth="yes"/>
      <point x="370" y="684" smooth="yes"/>
      <point x="382" y="692" smooth="yes"/>
    </contour>
  </outline>
</glyph>
<glyph name="dotaccent.case" format="1">
  <advance width="304"/>
  <outline>
    <contour>
      <point x="152" y="850" type="curve" smooth="yes" name="hr00"/>
      <point x="233" y="850" smooth="yes"/>
      <point x="249" y="827" smooth="yes"/>
      <point x="249" y="760" type="curve" smooth="yes"/>
      <point x="249" y="693" smooth="yes"/>
      <point x="233" y="669" smooth="yes"/>
      <point x="152" y="669" type="curve" smooth="yes"/>
      <point x="71" y="669" smooth="yes"/>
      <point x="55" y="693" smooth="yes"/>
      <point x="55" y="760" type="curve" smooth="yes"/>
      <point x="55" y="827" smooth="yes"/>
      <point x="71" y="850" smooth="yes"/>
    </contour>
  </outline>
</glyph>
<glyph name="grave.case" format="1">
  <advance width="311"/>
  <outline>
    <contour>
      <point x="49" y="865" type="line" name="hr00"/>
      <point x="0" y="730" type="line"/>
      <point x="227" y="671" type="line"/>
      <point x="260" y="763" type="line"/>
    </contour>
  </outline>
</glyph>
<glyph name="hungarumlaut.case" format="1">
  <advance width="495"/>
  <outline>
    <contour>
      <point x="20" y="735" type="line" name="hr00"/>
      <point x="88" y="665" type="line"/>
      <point x="243" y="786" type="line"/>
      <point x="147" y="889" type="line"/>
    </contour>
    <contour>
      <point x="252" y="735" type="line"/>
      <point x="320" y="665" type="line"/>
      <point x="475" y="786" type="line"/>
      <point x="379" y="889" type="line"/>
    </contour>
  </outline>
</glyph>
<glyph name="macron.case" format="1">
  <advance width="372"/>
  <outline>
    <contour>
      <point x="40" y="695" type="line" name="hr00"/>
      <point x="332" y="695" type="line"/>
      <point x="332" y="819" type="line"/>
      <point x="40" y="819" type="line"/>
    </contour>
  </outline>
</glyph>
<glyph name="ring.case" format="1">
  <advance width="364"/>
  <outline>
    <contour>
      <point x="182" y="875" type="curve" smooth="yes" name="hr00"/>
      <point x="80" y="875" smooth="yes"/>
      <point x="60" y="844" smooth="yes"/>
      <point x="60" y="760" type="curve" smooth="yes"/>
      <point x="60" y="676" smooth="yes"/>
      <point x="80" y="645" smooth="yes"/>
      <point x="182" y="645" type="curve" smooth="yes"/>
      <point x="284" y="645" smooth="yes"/>
      <point x="304" y="676" smooth="yes"/>
      <point x="304" y="760" type="curve" smooth="yes"/>
      <point x="304" y="844" smooth="yes"/>
      <point x="284" y="875" smooth="yes"/>
    </contour>
    <contour>
      <point x="182" y="803" type="curve" smooth="yes"/>
      <point x="217" y="803" smooth="yes"/>
      <point x="223" y="799" smooth="yes"/>
      <point x="223" y="760" type="curve" smooth="yes"/>
      <point x="223" y="719" smooth="yes"/>
      <point x="217" y="717" smooth="yes"/>
      <point x="182" y="717" type="curve" smooth="yes"/>
      <point x="147" y="717" smooth="yes"/>
      <point x="141" y="719" smooth="yes"/>
      <point x="141" y="760" type="curve" smooth="yes"/>
      <point x="141" y="799" smooth="yes"/>
      <point x="147" y="803" smooth="yes"/>
    </contour>
  </outline>
</glyph>
<glyph name="ringacute.case" format="1">
  <advance width="364"/>
  <outline>
    <contour>
      <point x="182" y="875" type="line" name="hr00"/>
      <point x="80" y="875" smooth="yes"/>
      <point x="60" y="844" smooth="yes"/>
      <point x="60" y="760" type="curve" smooth="yes"/>
      <point x="60" y="676" smooth="yes"/>
      <point x="80" y="645" smooth="yes"/>
      <point x="182" y="645" type="curve" smooth="yes"/>
      <point x="284" y="645" smooth="yes"/>
      <point x="304" y="676" smooth="yes"/>
      <point x="304" y="760" type="curve" smooth="yes"/>
      <point x="304" y="784"/>
      <point x="302" y="803"/>
      <point x="297" y="819" type="curve"/>
      <point x="361" y="836" type="line"/>
      <point x="317" y="958" type="line"/>
    </contour>
    <contour>
      <point x="182" y="803" type="curve" smooth="yes"/>
      <point x="217" y="803" smooth="yes"/>
      <point x="223" y="799" smooth="yes"/>
      <point x="223" y="760" type="curve" smooth="yes"/>
      <point x="223" y="719" smooth="yes"/>
      <point x="217" y="717" smooth="yes"/>
      <point x="182" y="717" type="curve" smooth="yes"/>
      <point x="147" y="717" smooth="yes"/>
      <point x="141" y="719" smooth="yes"/>
      <point x="141" y="760" type="curve" smooth="yes"/>
      <point x="141" y="799" smooth="yes"/>
      <point x="147" y="803" smooth="yes"/>
    </contour>
  </outline>
</glyph>
<glyph name="tilde.case" format="1">
  <advance width="403"/>
  <outline>
    <contour>
      <point x="378" y="826" type="line" name="hr00"/>
      <point x="305" y="840" type="line"/>
      <point x="277" y="788" type="line"/>
      <point x="265" y="788" type="line"/>
      <point x="239" y="827" smooth="yes"/>
      <point x="202" y="850" smooth="yes"/>
      <point x="152" y="850" type="curve" smooth="yes"/>
      <point x="95" y="850" smooth="yes"/>
      <point x="48" y="821" smooth="yes"/>
      <point x="35" y="748" type="curve" smooth="yes"/>
      <point x="25" y="691" type="line"/>
      <point x="97" y="678" type="line"/>
      <point x="125" y="729" type="line"/>
      <point x="137" y="729" type="line"/>
      <point x="163" y="691" smooth="yes"/>
      <point x="200" y="668" smooth="yes"/>
      <point x="249" y="668" type="curve" smooth="yes"/>
      <point x="307" y="668" smooth="yes"/>
      <point x="353" y="696" smooth="yes"/>
      <point x="367" y="769" type="curve" smooth="yes"/>
    </contour>
  </outline>
</glyph>
